<svg xmlns="http://www.w3.org/2000/svg" viewBox="0 0 241.37 356.25"><defs><style>.cls-1{isolation:isolate;}.cls-2{fill:#e94c3b;}.cls-3{fill:#fff;}.cls-4{mix-blend-mode:multiply;}.cls-5{fill:#e0dec9;}.cls-6{fill:none;stroke:#021223;stroke-linecap:round;stroke-linejoin:round;stroke-width:2px;}</style></defs><title>chopsticks</title><g class="cls-1"><g id="Layer_2" data-name="Layer 2"><g id="OBJECTS"><polygon class="cls-2" points="201.26 107.56 236.05 63.74 223.85 61.25 188.93 105.68 201.26 107.56"/><polygon class="cls-3" points="224.17 61.36 189.24 105.79 191.99 106.21 227.39 62.02 224.17 61.36"/><polygon class="cls-2" points="201.26 107.56 205.2 123.53 240.37 80.63 236.19 63.71 201.26 107.56"/><g class="cls-4"><path class="cls-5" d="M234.25,78.2c-4.54,6.64-9.92,12.65-15,18.89-2.73,3.35-5.37,6.77-8,10.19s-5.15,6.7-7.54,10.18l1.49,6.07,35.17-42.9L238.22,72C237,74.07,235.64,76.17,234.25,78.2Z"/></g><polygon class="cls-2" points="205.2 123.53 192.45 121.51 188.93 105.68 201.26 107.56 205.2 123.53"/><polygon class="cls-6" points="201.26 107.56 236.05 63.74 223.85 61.25 188.93 105.68 201.26 107.56"/><polygon class="cls-6" points="201.26 107.56 205.2 123.53 240.37 80.63 236.19 63.71 201.26 107.56"/><polygon class="cls-6" points="205.2 123.53 192.45 121.51 188.93 105.68 201.26 107.56 205.2 123.53"/><path class="cls-5" d="M201,122.18,9.3,353.82a3.94,3.94,0,0,1-6.13-4.94L188.54,112.17A8,8,0,0,1,201.11,122Z"/><path class="cls-3" d="M188.19,112.05,2.82,348.76a3.92,3.92,0,0,0-.17,4.59L197,109.41A8,8,0,0,0,188.19,112.05Z"/><g class="cls-4"><path class="cls-5" d="M16,340.06a39.24,39.24,0,0,1-13.51,12.3,3.88,3.88,0,0,0,1.28,2,3.93,3.93,0,0,0,5.54-.52L201,122.18c0-.05.1-.12.13-.17a8,8,0,0,0-.54-10.45Z"/></g><path class="cls-6" d="M201,122.18,9.3,353.82a3.94,3.94,0,0,1-6.13-4.94L188.54,112.17A8,8,0,0,1,201.11,122Z"/><path class="cls-6" d="M159.65,149.74A10.53,10.53,0,0,1,170,158.58l-.18-.75"/><path class="cls-6" d="M166.38,141a10.53,10.53,0,0,1,10.36,8.84c-.06-.25-.12-.49-.17-.74"/><polygon class="cls-2" points="105.95 54.08 123.86 1.08 111.54 2.86 93.71 56.49 105.95 54.08"/><polygon class="cls-3" points="111.87 2.86 94.04 56.49 96.77 55.95 115.13 2.39 111.87 2.86"/><polygon class="cls-2" points="105.95 54.08 115.06 67.78 133.63 15.51 123.98 1 105.95 54.08"/><g class="cls-4"><path class="cls-5" d="M127.06,15.3c-2,7.78-5,15.26-7.72,22.85-1.43,4.07-2.75,8.18-4.08,12.29s-2.59,8.05-3.66,12.14l3.46,5.19,18.57-52.26-4.94-7.44C128.21,10.5,127.68,12.91,127.06,15.3Z"/></g><polygon class="cls-2" points="115.06 67.78 102.38 70.19 93.71 56.49 105.95 54.08 115.06 67.78"/><polygon class="cls-6" points="105.95 54.08 123.86 1.08 111.54 2.86 93.71 56.49 105.95 54.08"/><polygon class="cls-6" points="105.95 54.08 115.06 67.78 133.63 15.51 123.98 1 105.95 54.08"/><polygon class="cls-6" points="115.06 67.78 102.38 70.19 93.71 56.49 105.95 54.08 115.06 67.78"/><path class="cls-5" d="M110.62,67.94,8.64,350.77A3.94,3.94,0,0,1,1.2,348.2L95.54,62.73a8,8,0,1,1,15.15,5Z"/><path class="cls-3" d="M95.16,62.73.82,348.2a3.91,3.91,0,0,0,1.4,4.37L102.59,57.26A8,8,0,0,0,95.16,62.73Z"/><g class="cls-4"><path class="cls-5" d="M10.29,335.55A39.31,39.31,0,0,1,1.74,351.7a3.84,3.84,0,0,0,1.87,1.43,3.92,3.92,0,0,0,5-2.36l102-282.83.07-.21a8,8,0,0,0-4-9.65Z"/></g><path class="cls-6" d="M110.62,67.94,8.64,350.77A3.94,3.94,0,0,1,1.2,348.2L95.54,62.73a8,8,0,1,1,15.15,5Z"/><path class="cls-6" d="M81.06,107.86a10.5,10.5,0,0,1,12.74,4.81l-.41-.64"/><path class="cls-6" d="M84.45,97.38a10.53,10.53,0,0,1,12.74,4.82l-.42-.65"/></g></g></g></svg>