<svg width="1400" height="444" viewBox="0 0 1400 444" fill="none" xmlns="http://www.w3.org/2000/svg">
<path d="M45.9497 287.221C45.4157 271.559 44.9708 257.055 44.6149 243.707C44.4369 230.359 44.3479 217.189 44.3479 204.197C44.3479 191.205 44.4369 178.213 44.6149 165.221C44.9708 152.051 45.5047 137.991 46.2166 123.041H91.3327C90.6208 131.05 89.9979 139.148 89.464 147.335C95.515 139.682 102.723 133.364 111.088 128.38C119.452 123.219 129.33 120.639 140.72 120.639C151.932 120.639 161.098 122.507 168.217 126.245C175.514 129.982 181.209 135.143 185.302 141.728C189.574 148.313 192.599 155.877 194.379 164.42C196.337 172.785 197.582 181.861 198.116 191.65C198.65 201.26 198.917 210.96 198.917 220.748C198.917 231.427 198.739 241.66 198.383 251.449C198.027 261.237 197.671 269.424 197.315 276.009C196.959 282.594 196.692 286.509 196.514 287.755H151.665C152.021 280.458 152.377 272.716 152.733 264.53C153.089 256.165 153.445 247.978 153.801 239.969C154.157 231.783 154.335 224.397 154.335 217.812C154.335 179.904 148.195 160.949 135.915 160.949C125.77 160.949 116.516 165.399 108.151 174.297C99.9643 183.018 93.1124 194.052 87.5952 207.4C87.5952 209.18 87.5952 210.96 87.5952 212.739C87.5952 221.282 87.5952 230.181 87.5952 239.435C87.7732 248.512 87.9512 257.233 88.1292 265.597C88.4851 273.784 88.7521 280.903 88.93 286.954L45.9497 287.221Z" fill="white"/>
<path d="M304.289 289.891C290.051 289.891 277.593 287.577 266.914 282.95C256.414 278.322 247.693 272.004 240.752 263.996C233.812 255.809 228.65 246.465 225.269 235.965C221.887 225.465 220.197 214.43 220.197 202.862C220.197 191.116 222.243 180.259 226.337 170.293C230.608 160.149 236.392 151.339 243.689 143.864C251.164 136.389 259.885 130.605 269.851 126.512C279.817 122.24 290.674 120.105 302.42 120.105C314.7 120.105 326.09 122.24 336.591 126.512C347.091 130.783 356.257 136.745 364.087 144.398C371.918 152.051 377.969 161.038 382.241 171.361C386.69 181.683 388.915 192.896 388.915 204.998C388.915 231.872 381.529 252.783 366.757 267.733C351.985 282.505 331.163 289.891 304.289 289.891ZM304.022 246.643C317.014 246.643 326.891 242.995 333.654 235.698C340.595 228.401 344.066 217.901 344.066 204.197C344.066 191.917 340.328 182.039 332.853 174.564C325.378 167.09 315.59 163.352 303.488 163.352C296.191 163.352 289.517 165.31 283.466 169.225C277.415 172.963 272.521 178.035 268.783 184.442C265.224 190.671 263.444 197.612 263.444 205.265C263.444 212.028 264.779 218.613 267.448 225.02C270.296 231.427 274.745 236.677 280.796 240.77C286.847 244.686 294.589 246.643 304.022 246.643Z" fill="white"/>
<path d="M489.126 289.891C474.889 289.891 462.431 287.577 451.752 282.95C441.252 278.322 432.531 272.004 425.59 263.996C418.649 255.809 413.488 246.465 410.107 235.965C406.725 225.465 405.034 214.43 405.034 202.862C405.034 191.116 407.081 180.259 411.174 170.293C415.446 160.149 421.23 151.339 428.527 143.864C436.002 136.389 444.722 130.605 454.689 126.512C464.655 122.24 475.512 120.105 487.258 120.105C499.538 120.105 510.928 122.24 521.428 126.512C531.929 130.783 541.094 136.745 548.925 144.398C556.756 152.051 562.807 161.038 567.078 171.361C571.528 181.683 573.752 192.896 573.752 204.998C573.752 231.872 566.367 252.783 551.595 267.733C536.823 282.505 516 289.891 489.126 289.891ZM488.86 246.643C501.852 246.643 511.729 242.995 518.492 235.698C525.433 228.401 528.903 217.901 528.903 204.197C528.903 191.917 525.166 182.039 517.691 174.564C510.216 167.09 500.428 163.352 488.326 163.352C481.029 163.352 474.355 165.31 468.304 169.225C462.253 172.963 457.358 178.035 453.621 184.442C450.061 190.671 448.282 197.612 448.282 205.265C448.282 212.028 449.617 218.613 452.286 225.02C455.134 231.427 459.583 236.677 465.634 240.77C471.685 244.686 479.427 246.643 488.86 246.643Z" fill="white"/>
<path d="M661.951 289.09C652.696 289.09 643.62 287.488 634.721 284.284C626.001 281.081 618.081 276.098 610.962 269.335C604.021 262.75 598.504 254.474 594.41 244.508C590.317 234.363 588.27 222.528 588.27 209.002C588.27 193.696 590.584 180.526 595.211 169.492C600.017 158.28 606.335 149.114 614.165 141.995C621.996 134.698 630.717 129.27 640.327 125.711C649.938 122.151 659.548 120.372 669.159 120.372C674.854 120.372 680.282 120.817 685.443 121.706C690.605 122.418 695.41 123.486 699.859 124.91C700.393 111.918 701.016 98.837 701.728 85.667C702.618 72.4971 703.597 59.5051 704.664 46.691L749.514 49.6276C748.09 64.3993 746.844 80.3279 745.776 97.4132C744.708 114.321 743.907 131.584 743.373 149.203C743.018 166.823 742.84 183.997 742.84 200.726C742.84 216.388 743.018 231.338 743.373 245.575C743.907 259.635 744.53 272.449 745.242 284.018L699.058 287.488C698.88 284.106 698.791 280.814 698.791 277.611C693.63 280.992 687.935 283.751 681.706 285.886C675.655 288.022 669.07 289.09 661.951 289.09ZM631.251 206.599C631.251 215.854 633.031 223.151 636.59 228.49C640.149 233.651 644.51 237.3 649.671 239.435C654.832 241.571 659.815 242.639 664.621 242.639C670.316 242.639 676.011 241.393 681.706 238.901C687.401 236.41 692.74 232.05 697.724 225.82C697.724 223.685 697.724 221.638 697.724 219.68C697.724 205.265 697.902 190.493 698.257 175.365C689.893 168.068 680.816 164.42 671.028 164.42C666.934 164.42 662.574 165.043 657.947 166.289C653.319 167.534 648.959 169.759 644.866 172.963C640.95 175.988 637.658 180.259 634.988 185.777C632.497 191.116 631.251 198.057 631.251 206.599Z" fill="white"/>
<path d="M822.969 289.09C813.181 289.09 805.083 286.954 798.676 282.683C792.447 278.589 787.463 272.894 783.726 265.597C780.167 258.3 777.497 249.936 775.717 240.503C774.116 231.071 773.048 221.015 772.514 210.337C772.158 199.481 771.98 188.624 771.98 177.768C771.98 168.335 772.247 158.013 772.781 146.801C773.315 135.41 773.938 123.931 774.649 112.363C775.539 100.617 776.429 89.5824 777.319 79.26C778.387 68.9376 779.366 59.95 780.256 52.2972L828.575 52.8311C827.151 61.9077 825.817 72.2301 824.571 83.7983C823.325 95.1886 822.257 106.757 821.367 118.503C820.655 130.249 820.032 141.106 819.499 151.072C819.143 161.038 818.965 168.958 818.965 174.831C818.965 191.027 819.232 203.752 819.766 213.006C820.477 222.261 821.456 228.846 822.702 232.761C824.126 236.499 825.995 238.368 828.308 238.368C831.334 238.368 834.626 236.499 838.186 232.761C841.745 228.846 845.216 224.486 848.597 219.68L871.289 264.796C865.771 270.848 859.186 276.365 851.534 281.348C843.881 286.509 834.359 289.09 822.969 289.09Z" fill="white"/>
<path d="M974.846 289.357C957.76 289.357 942.722 285.975 929.73 279.212C916.916 272.627 906.86 263.373 899.563 251.449C892.444 239.524 888.885 225.731 888.885 210.07C888.885 200.637 890.487 190.76 893.69 180.437C896.894 169.937 902.055 160.149 909.174 151.072C916.293 141.995 925.636 134.61 937.204 128.914C948.951 123.219 963.188 120.372 979.918 120.372C992.02 120.372 1002.16 121.706 1010.35 124.376C1018.72 127.046 1025.48 130.516 1030.64 134.787C1035.98 139.059 1039.98 143.597 1042.65 148.402C1045.5 153.208 1047.37 157.835 1048.26 162.284C1049.33 166.556 1049.86 170.115 1049.86 172.963C1049.86 190.226 1042.56 203.574 1027.97 213.006C1013.55 222.261 993.088 226.888 966.57 226.888C960.519 226.888 954.735 226.621 949.218 226.087C943.878 225.554 938.895 224.931 934.268 224.219C937.649 233.117 943.256 239.702 951.086 243.974C958.917 248.067 967.015 250.114 975.38 250.114C987.482 250.114 998.16 247.978 1007.41 243.707C1016.67 239.257 1025.39 232.494 1033.58 223.418L1057.34 257.589C1051.64 262.216 1045.23 267.021 1038.11 272.004C1031.17 276.988 1022.63 281.081 1012.49 284.284C1002.34 287.666 989.795 289.357 974.846 289.357ZM980.719 160.416C970.218 160.416 960.964 163.085 952.955 168.424C944.946 173.763 939.073 180.793 935.336 189.514C939.785 190.226 944.145 190.849 948.417 191.383C952.866 191.739 957.226 191.917 961.498 191.917C965.413 191.917 969.862 191.561 974.846 190.849C980.007 190.137 984.99 189.069 989.795 187.645C994.779 186.222 998.872 184.442 1002.08 182.306C1005.28 179.993 1006.88 177.323 1006.88 174.297C1006.88 172.874 1006.17 171.094 1004.75 168.958C1003.32 166.823 1000.74 164.865 997.003 163.085C993.266 161.305 987.838 160.416 980.719 160.416Z" fill="white"/>
<path d="M1156.51 290.158C1144.4 290.158 1133.19 288.734 1122.87 285.886C1112.55 283.039 1103.2 279.39 1094.84 274.941C1086.47 270.492 1079 265.775 1072.41 260.792L1096.44 222.083C1103.91 229.024 1111.12 234.363 1118.06 238.101C1125 241.838 1132.21 244.419 1139.69 245.842C1147.34 247.266 1155.62 247.978 1164.51 247.978C1172.17 247.978 1178.31 246.999 1182.93 245.042C1187.56 242.906 1189.87 240.236 1189.87 237.033C1189.87 234.363 1187.65 232.316 1183.2 230.893C1178.75 229.291 1173.06 227.956 1166.12 226.888C1159.17 225.642 1151.88 224.13 1144.22 222.35C1133.37 219.502 1123.22 216.21 1113.79 212.473C1104.36 208.735 1096.71 203.663 1090.83 197.256C1085.14 190.849 1082.29 182.306 1082.29 171.628C1082.29 163.085 1084.34 155.61 1088.43 149.203C1092.52 142.618 1097.95 137.19 1104.71 132.919C1111.66 128.469 1119.49 125.177 1128.21 123.041C1136.93 120.906 1145.92 119.838 1155.17 119.838C1171.19 119.838 1184.98 121.795 1196.55 125.711C1208.3 129.448 1219.51 134.432 1230.19 140.661L1205.89 177.501C1200.55 173.763 1194.41 170.56 1187.47 167.89C1180.71 165.043 1173.86 162.907 1166.92 161.483C1160.15 159.882 1153.84 159.081 1147.96 159.081C1141.56 159.081 1136.48 160.06 1132.75 162.017C1129.19 163.975 1127.41 166.734 1127.41 170.293C1127.41 172.429 1129.63 174.475 1134.08 176.433C1138.71 178.213 1147.43 180.615 1160.24 183.641C1167.9 185.421 1175.99 187.289 1184.54 189.247C1193.08 191.027 1201.09 193.607 1208.56 196.989C1216.21 200.192 1222.35 204.909 1226.98 211.138C1231.79 217.189 1234.19 225.287 1234.19 235.431C1234.19 252.516 1227.34 265.864 1213.63 275.475C1199.93 285.263 1180.89 290.158 1156.51 290.158Z" fill="white"/>
<path d="M45.9497 287.221C45.4157 271.559 44.9708 257.055 44.6149 243.707C44.4369 230.359 44.3479 217.189 44.3479 204.197C44.3479 191.205 44.4369 178.213 44.6149 165.221C44.9708 152.051 45.5047 137.991 46.2166 123.041H91.3327C90.6208 131.05 89.9979 139.148 89.464 147.335C95.515 139.682 102.723 133.364 111.088 128.38C119.452 123.219 129.33 120.639 140.72 120.639C151.932 120.639 161.098 122.507 168.217 126.245C175.514 129.982 181.209 135.143 185.302 141.728C189.574 148.313 192.599 155.877 194.379 164.42C196.337 172.785 197.582 181.861 198.116 191.65C198.65 201.26 198.917 210.96 198.917 220.748C198.917 231.427 198.739 241.66 198.383 251.449C198.027 261.237 197.671 269.424 197.315 276.009C196.959 282.594 196.692 286.509 196.514 287.755H151.665C152.021 280.458 152.377 272.716 152.733 264.53C153.089 256.165 153.445 247.978 153.801 239.969C154.157 231.783 154.335 224.397 154.335 217.812C154.335 179.904 148.195 160.949 135.915 160.949C125.77 160.949 116.516 165.399 108.151 174.297C99.9643 183.018 93.1124 194.052 87.5952 207.4C87.5952 209.18 87.5952 210.96 87.5952 212.739C87.5952 221.282 87.5952 230.181 87.5952 239.435C87.7732 248.512 87.9512 257.233 88.1292 265.597C88.4851 273.784 88.7521 280.903 88.93 286.954L45.9497 287.221Z" stroke="white" stroke-width="87"/>
<path d="M304.289 289.891C290.051 289.891 277.593 287.577 266.914 282.95C256.414 278.322 247.693 272.004 240.752 263.996C233.812 255.809 228.65 246.465 225.269 235.965C221.887 225.465 220.197 214.43 220.197 202.862C220.197 191.116 222.243 180.259 226.337 170.293C230.608 160.149 236.392 151.339 243.689 143.864C251.164 136.389 259.885 130.605 269.851 126.512C279.817 122.24 290.674 120.105 302.42 120.105C314.7 120.105 326.09 122.24 336.591 126.512C347.091 130.783 356.257 136.745 364.087 144.398C371.918 152.051 377.969 161.038 382.241 171.361C386.69 181.683 388.915 192.896 388.915 204.998C388.915 231.872 381.529 252.783 366.757 267.733C351.985 282.505 331.163 289.891 304.289 289.891ZM304.022 246.643C317.014 246.643 326.891 242.995 333.654 235.698C340.595 228.401 344.066 217.901 344.066 204.197C344.066 191.917 340.328 182.039 332.853 174.564C325.378 167.09 315.59 163.352 303.488 163.352C296.191 163.352 289.517 165.31 283.466 169.225C277.415 172.963 272.521 178.035 268.783 184.442C265.224 190.671 263.444 197.612 263.444 205.265C263.444 212.028 264.779 218.613 267.448 225.02C270.296 231.427 274.745 236.677 280.796 240.77C286.847 244.686 294.589 246.643 304.022 246.643Z" stroke="white" stroke-width="87"/>
<path d="M489.126 289.891C474.889 289.891 462.431 287.577 451.752 282.95C441.252 278.322 432.531 272.004 425.59 263.996C418.649 255.809 413.488 246.465 410.107 235.965C406.725 225.465 405.034 214.43 405.034 202.862C405.034 191.116 407.081 180.259 411.174 170.293C415.446 160.149 421.23 151.339 428.527 143.864C436.002 136.389 444.722 130.605 454.689 126.512C464.655 122.24 475.512 120.105 487.258 120.105C499.538 120.105 510.928 122.24 521.428 126.512C531.929 130.783 541.094 136.745 548.925 144.398C556.756 152.051 562.807 161.038 567.078 171.361C571.528 181.683 573.752 192.896 573.752 204.998C573.752 231.872 566.367 252.783 551.595 267.733C536.823 282.505 516 289.891 489.126 289.891ZM488.86 246.643C501.852 246.643 511.729 242.995 518.492 235.698C525.433 228.401 528.903 217.901 528.903 204.197C528.903 191.917 525.166 182.039 517.691 174.564C510.216 167.09 500.428 163.352 488.326 163.352C481.029 163.352 474.355 165.31 468.304 169.225C462.253 172.963 457.358 178.035 453.621 184.442C450.061 190.671 448.282 197.612 448.282 205.265C448.282 212.028 449.617 218.613 452.286 225.02C455.134 231.427 459.583 236.677 465.634 240.77C471.685 244.686 479.427 246.643 488.86 246.643Z" stroke="white" stroke-width="87"/>
<path d="M661.951 289.09C652.696 289.09 643.62 287.488 634.721 284.284C626.001 281.081 618.081 276.098 610.962 269.335C604.021 262.75 598.504 254.474 594.41 244.508C590.317 234.363 588.27 222.528 588.27 209.002C588.27 193.696 590.584 180.526 595.211 169.492C600.017 158.28 606.335 149.114 614.165 141.995C621.996 134.698 630.717 129.27 640.327 125.711C649.938 122.151 659.548 120.372 669.159 120.372C674.854 120.372 680.282 120.817 685.443 121.706C690.605 122.418 695.41 123.486 699.859 124.91C700.393 111.918 701.016 98.837 701.728 85.667C702.618 72.4971 703.597 59.5051 704.664 46.691L749.514 49.6276C748.09 64.3993 746.844 80.3279 745.776 97.4132C744.708 114.321 743.907 131.584 743.373 149.203C743.018 166.823 742.84 183.997 742.84 200.726C742.84 216.388 743.018 231.338 743.373 245.575C743.907 259.635 744.53 272.449 745.242 284.018L699.058 287.488C698.88 284.106 698.791 280.814 698.791 277.611C693.63 280.992 687.935 283.751 681.706 285.886C675.655 288.022 669.07 289.09 661.951 289.09ZM631.251 206.599C631.251 215.854 633.031 223.151 636.59 228.49C640.149 233.651 644.51 237.3 649.671 239.435C654.832 241.571 659.815 242.639 664.621 242.639C670.316 242.639 676.011 241.393 681.706 238.901C687.401 236.41 692.74 232.05 697.724 225.82C697.724 223.685 697.724 221.638 697.724 219.68C697.724 205.265 697.902 190.493 698.257 175.365C689.893 168.068 680.816 164.42 671.028 164.42C666.934 164.42 662.574 165.043 657.947 166.289C653.319 167.534 648.959 169.759 644.866 172.963C640.95 175.988 637.658 180.259 634.988 185.777C632.497 191.116 631.251 198.057 631.251 206.599Z" stroke="white" stroke-width="87"/>
<path d="M822.969 289.09C813.181 289.09 805.083 286.954 798.676 282.683C792.447 278.589 787.463 272.894 783.726 265.597C780.167 258.3 777.497 249.936 775.717 240.503C774.116 231.071 773.048 221.015 772.514 210.337C772.158 199.481 771.98 188.624 771.98 177.768C771.98 168.335 772.247 158.013 772.781 146.801C773.315 135.41 773.938 123.931 774.649 112.363C775.539 100.617 776.429 89.5824 777.319 79.26C778.387 68.9376 779.366 59.95 780.256 52.2972L828.575 52.8311C827.151 61.9077 825.817 72.2301 824.571 83.7983C823.325 95.1886 822.257 106.757 821.367 118.503C820.655 130.249 820.032 141.106 819.499 151.072C819.143 161.038 818.965 168.958 818.965 174.831C818.965 191.027 819.232 203.752 819.766 213.006C820.477 222.261 821.456 228.846 822.702 232.761C824.126 236.499 825.995 238.368 828.308 238.368C831.334 238.368 834.626 236.499 838.186 232.761C841.745 228.846 845.216 224.486 848.597 219.68L871.289 264.796C865.771 270.848 859.186 276.365 851.534 281.348C843.881 286.509 834.359 289.09 822.969 289.09Z" stroke="white" stroke-width="87"/>
<path d="M974.846 289.357C957.76 289.357 942.722 285.975 929.73 279.212C916.916 272.627 906.86 263.373 899.563 251.449C892.444 239.524 888.885 225.731 888.885 210.07C888.885 200.637 890.487 190.76 893.69 180.437C896.894 169.937 902.055 160.149 909.174 151.072C916.293 141.995 925.636 134.61 937.204 128.914C948.951 123.219 963.188 120.372 979.918 120.372C992.02 120.372 1002.16 121.706 1010.35 124.376C1018.72 127.046 1025.48 130.516 1030.64 134.787C1035.98 139.059 1039.98 143.597 1042.65 148.402C1045.5 153.208 1047.37 157.835 1048.26 162.284C1049.33 166.556 1049.86 170.115 1049.86 172.963C1049.86 190.226 1042.56 203.574 1027.97 213.006C1013.55 222.261 993.088 226.888 966.57 226.888C960.519 226.888 954.735 226.621 949.218 226.087C943.878 225.554 938.895 224.931 934.268 224.219C937.649 233.117 943.256 239.702 951.086 243.974C958.917 248.067 967.015 250.114 975.38 250.114C987.482 250.114 998.16 247.978 1007.41 243.707C1016.67 239.257 1025.39 232.494 1033.58 223.418L1057.34 257.589C1051.64 262.216 1045.23 267.021 1038.11 272.004C1031.17 276.988 1022.63 281.081 1012.49 284.284C1002.34 287.666 989.795 289.357 974.846 289.357ZM980.719 160.416C970.218 160.416 960.964 163.085 952.955 168.424C944.946 173.763 939.073 180.793 935.336 189.514C939.785 190.226 944.145 190.849 948.417 191.383C952.866 191.739 957.226 191.917 961.498 191.917C965.413 191.917 969.862 191.561 974.846 190.849C980.007 190.137 984.99 189.069 989.795 187.645C994.779 186.222 998.872 184.442 1002.08 182.306C1005.28 179.993 1006.88 177.323 1006.88 174.297C1006.88 172.874 1006.17 171.094 1004.75 168.958C1003.32 166.823 1000.74 164.865 997.003 163.085C993.266 161.305 987.838 160.416 980.719 160.416Z" stroke="white" stroke-width="87"/>
<path d="M1156.51 290.158C1144.4 290.158 1133.19 288.734 1122.87 285.886C1112.55 283.039 1103.2 279.39 1094.84 274.941C1086.47 270.492 1079 265.775 1072.41 260.792L1096.44 222.083C1103.91 229.024 1111.12 234.363 1118.06 238.101C1125 241.838 1132.21 244.419 1139.69 245.842C1147.34 247.266 1155.62 247.978 1164.51 247.978C1172.17 247.978 1178.31 246.999 1182.93 245.042C1187.56 242.906 1189.87 240.236 1189.87 237.033C1189.87 234.363 1187.65 232.316 1183.2 230.893C1178.75 229.291 1173.06 227.956 1166.12 226.888C1159.17 225.642 1151.88 224.13 1144.22 222.35C1133.37 219.502 1123.22 216.21 1113.79 212.473C1104.36 208.735 1096.71 203.663 1090.83 197.256C1085.14 190.849 1082.29 182.306 1082.29 171.628C1082.29 163.085 1084.34 155.61 1088.43 149.203C1092.52 142.618 1097.95 137.19 1104.71 132.919C1111.66 128.469 1119.49 125.177 1128.21 123.041C1136.93 120.906 1145.92 119.838 1155.17 119.838C1171.19 119.838 1184.98 121.795 1196.55 125.711C1208.3 129.448 1219.51 134.432 1230.19 140.661L1205.89 177.501C1200.55 173.763 1194.41 170.56 1187.47 167.89C1180.71 165.043 1173.86 162.907 1166.92 161.483C1160.15 159.882 1153.84 159.081 1147.96 159.081C1141.56 159.081 1136.48 160.06 1132.75 162.017C1129.19 163.975 1127.41 166.734 1127.41 170.293C1127.41 172.429 1129.63 174.475 1134.08 176.433C1138.71 178.213 1147.43 180.615 1160.24 183.641C1167.9 185.421 1175.99 187.289 1184.54 189.247C1193.08 191.027 1201.09 193.607 1208.56 196.989C1216.21 200.192 1222.35 204.909 1226.98 211.138C1231.79 217.189 1234.19 225.287 1234.19 235.431C1234.19 252.516 1227.34 265.864 1213.63 275.475C1199.93 285.263 1180.89 290.158 1156.51 290.158Z" stroke="white" stroke-width="87"/>
<path d="M856.81 216.15C850.59 214.3 843.26 220.47 840.46 229.94C837.66 239.41 840.46 248.57 846.64 250.42C852.82 252.27 860.18 246.09 862.99 236.63C865.8 227.17 863 218 856.81 216.15ZM848.35 244.65C843.57 243.23 841.04 237.56 842.7 231.97C844.36 226.38 849.57 223.02 854.35 224.43C859.13 225.84 861.66 231.53 860 237.11C858.34 242.69 853.13 246.07 848.35 244.65Z" fill="#9AD130"/>
<path d="M857 216.42C850.82 214.58 843.52 220.78 840.71 230.26C837.9 239.74 840.63 248.92 846.81 250.75C852.99 252.58 860.3 246.39 863.11 236.91C865.92 227.43 863.17 218.25 857 216.42ZM849.25 242.53C844.86 241.23 842.78 235.19 844.6 229.04C846.42 222.89 851.47 218.96 855.86 220.26C860.25 221.56 862.34 227.61 860.51 233.76C858.68 239.91 853.63 243.84 849.23 242.53H849.25Z" fill="#9AD130"/>
<path d="M856.5 218.05C861.5 219.55 864.38 225.71 863.94 233.05C865.08 225.05 862.31 218.05 856.94 216.46C851.57 214.87 845.46 219.26 842.06 226.56C845.71 220.17 851.45 216.55 856.5 218.05Z" fill="white"/>
<path d="M864.18 230.29C862.815 233.919 860.463 237.095 857.39 239.46C855.06 242.08 852.02 243.36 849.23 242.53C846.44 241.7 844.59 238.97 844.07 235.53C842.784 231.868 842.545 227.92 843.38 224.13C842.226 226.057 841.322 228.124 840.69 230.28C837.87 239.76 840.61 248.94 846.79 250.77C852.97 252.6 860.28 246.41 863.09 236.93C863.735 234.772 864.101 232.541 864.18 230.29Z" fill="#9AD130"/>
<path d="M1095.83 97.63C1101.96 94.92 1103.59 85.16 1099.47 75.83C1095.35 66.5 1087 61.14 1080.9 63.85C1074.8 66.56 1073.14 76.32 1077.26 85.65C1081.38 94.98 1089.7 100.34 1095.83 97.63ZM1083.41 69.54C1088.12 67.46 1093.91 70.23 1096.34 75.73C1098.77 81.23 1096.93 87.38 1092.22 89.46C1087.51 91.54 1081.72 88.77 1079.29 83.27C1076.86 77.77 1078.7 71.62 1083.41 69.54Z" fill="#9AD130"/>
<path d="M1095.51 97.53C1101.61 94.84 1103.21 85.08 1099.08 75.73C1094.95 66.38 1086.65 61 1080.56 63.69C1074.47 66.38 1072.86 76.15 1077 85.49C1081.14 94.83 1089.42 100.23 1095.51 97.53ZM1084.14 71.79C1088.47 69.88 1094.14 73.24 1096.83 79.3C1099.52 85.36 1098.17 91.83 1093.83 93.74C1089.49 95.65 1083.83 92.3 1081.14 86.23C1078.45 80.16 1079.81 73.71 1084.14 71.79Z" fill="#9AD130"/>
<path d="M1094.8 95.92C1089.8 98.12 1083.47 95.17 1078.94 89.13C1083.38 96.13 1090.26 99.86 1095.51 97.53C1100.76 95.2 1102.67 87.65 1100.51 79.62C1101.87 87 1099.77 93.72 1094.8 95.92Z" fill="white"/>
<path d="M1080.57 91.43C1079.22 87.66 1078.94 83.5871 1079.78 79.67C1079.85 76.06 1081.39 73.01 1084.14 71.79C1086.89 70.57 1090.14 71.5 1092.89 73.87C1096.35 75.8875 1099.18 78.8314 1101.06 82.37C1100.68 80.0808 1100.01 77.8496 1099.06 75.73C1094.92 66.39 1086.63 61 1080.54 63.73C1074.45 66.46 1072.84 76.19 1076.98 85.53C1077.92 87.6427 1079.12 89.6257 1080.57 91.43Z" fill="#9AD130"/>
<path d="M1316.28 377.36C1300.96 380.67 1286.59 383.36 1273.09 385C1266.36 386 1259.83 386.55 1253.56 387.21C1250.43 387.57 1247.34 387.71 1244.31 387.93L1235.41 388.53C1215.68 389.601 1195.89 389.266 1176.21 387.53C1174.21 387.35 1172.21 387.27 1170.21 387.02L1164.55 386.35L1159.18 385.73C1157.44 385.52 1155.74 385.35 1154.1 385.06L1144.78 383.59L1140.52 382.91L1136.52 382.12L1129.28 380.67C1127.03 380.2 1124.91 379.84 1122.99 379.33L1109.29 375.96L1102.23 373.89L1100.61 373.42L1108.73 375.79C1110.01 376.18 1111.39 376.46 1112.73 376.79C1123.65 379.46 1134.57 382.14 1112.4 376.71C1109.61 376.09 1106.4 375.08 1102.55 373.98C1098.7 372.88 1094.31 371.65 1089.35 369.92C1086.86 369.06 1084.19 368.25 1081.41 367.21C1078.63 366.17 1075.66 365.12 1072.54 363.97L1062.71 360.12C1059.26 358.76 1055.71 357.21 1051.87 355.65C1036.71 349.29 1018.87 340.97 997.45 331.18C986.73 326.31 975.1 321.11 962.35 315.87C948.614 310.18 934.595 305.197 920.35 300.94C918.18 300.24 915.97 299.68 913.78 299.08C911.59 298.48 909.39 297.86 907.18 297.33C902.74 296.33 898.33 295.17 893.86 294.33C885 292.44 876 291.1 867 289.91C848.919 287.713 830.689 286.987 812.49 287.74C803.39 288.03 794.32 288.92 785.28 289.94C780.78 290.59 776.28 291.1 771.77 291.94C769.53 292.33 767.28 292.68 765.04 293.1L758.35 294.45C749.44 296.32 740.6 298.45 731.88 301.05L728.61 301.99L718.85 304.99C714.55 306.42 710.24 307.83 705.98 309.37C671.78 321.49 639.09 336.93 606.19 351.37C597.97 354.99 589.72 358.52 581.44 361.96C573.16 365.4 564.827 368.68 556.44 371.8C548.04 374.87 539.6 377.8 531.07 380.43C522.54 383.06 513.95 385.43 505.27 387.43C501.5 388.31 498.21 389.07 495.42 389.88C492.63 390.69 490.28 391.32 488.42 392.01C486.991 392.512 485.612 393.144 484.3 393.9C483.4 394.47 482.99 395 483.05 395.46C483.11 395.92 483.67 396.31 484.71 396.6C486.202 396.959 487.737 397.11 489.27 397.05C491.757 397.022 494.241 396.855 496.71 396.55C499.65 396.12 503.08 395.55 506.93 394.68C538.04 387.38 563.72 377.33 585.51 368.35C607.3 359.37 625.26 351.02 640.35 344.35C655.44 337.68 667.59 332.35 677.35 328.35C687.11 324.35 694.45 321.48 699.83 319.51C705.21 317.54 708.59 316.34 710.45 315.67C712.31 315 712.69 314.88 712.04 315.1C710.76 315.58 705.42 317.38 700.15 319.39C694.88 321.4 689.61 323.39 688.32 323.92L689.9 323.3C691.76 322.59 695.09 321.25 700.47 319.3C705.85 317.35 713.24 314.65 723.24 311.42C735.94 307.332 748.856 303.95 761.93 301.29C808.028 292.046 855.577 292.84 901.34 303.62C903.5 304.16 905.68 304.62 907.82 305.21L914.27 306.95C916.42 307.49 918.53 308.21 920.67 308.84L927.06 310.79C931.28 312.23 935.51 313.63 939.71 315.14L945.99 317.47C948.08 318.24 950.17 319.03 952.24 319.87C968.89 326.41 985.24 333.79 1001.6 341.28C1017.96 348.77 1034.31 356.39 1051.01 363.38C1067.71 370.37 1084.72 376.8 1102.26 381.67C1119.76 386.609 1137.58 390.328 1155.6 392.8C1173.61 395.186 1191.75 396.422 1209.92 396.5C1246.25 396.81 1282.49 392.4 1317.92 384.62C1325.59 382.82 1331.25 381.1 1334.85 379.35C1338.45 377.6 1340.13 376.27 1339.85 375.35C1339.57 374.43 1337.49 374.05 1333.55 374.35C1327.73 374.982 1321.97 375.987 1316.28 377.36Z" fill="#FFB956"/>
<path d="M686.73 323.63C695.98 319.99 702.13 317.73 705.93 316.37L711.05 314.56C717.86 312.22 726.37 309.33 737.05 306.38C749.836 302.788 762.822 299.946 775.94 297.87C777.86 297.56 779.84 297.32 781.84 297.04C783.84 296.76 785.89 296.44 787.99 296.24C792.17 295.81 796.51 295.24 800.99 294.99C809.99 294.24 819.73 293.99 830.12 293.99C841.226 294.097 852.318 294.791 863.35 296.07C875.836 297.493 888.23 299.633 900.47 302.48C917.863 306.596 934.929 311.987 951.53 318.61C968.21 325.14 984.59 332.5 1000.95 339.99C1017.31 347.48 1033.65 355.11 1050.31 362.11C1066.96 369.263 1084.03 375.397 1101.42 380.48C1118.87 385.47 1136.64 389.239 1154.61 391.76C1172.58 394.161 1190.68 395.437 1208.81 395.58H1219.01L1222.4 395.47C1226.93 395.31 1231.46 395.21 1235.98 394.99L1249.53 394.08C1254.05 393.73 1258.53 393.19 1263.05 392.76C1281.06 390.773 1298.95 387.849 1316.66 384C1321.51 382.88 1325.47 381.81 1328.73 380.81C1321.93 382.31 1315.03 384.01 1307.88 385.3C1304.32 385.96 1300.74 386.74 1297.08 387.3L1286 389.13L1283.2 389.58L1280.38 389.96L1274.7 390.69C1270.89 391.17 1267.05 391.74 1263.16 392.06L1251.39 393.19L1239.39 393.95C1235.39 394.26 1231.29 394.33 1227.19 394.45C1223.09 394.57 1218.96 394.74 1214.79 394.65C1210.62 394.56 1206.44 394.65 1202.21 394.53L1189.49 394C1171.93 392.976 1154.46 390.868 1137.16 387.69C1119.04 384.289 1101.2 379.559 1083.78 373.54C1065.98 367.45 1048.36 359.87 1030.61 351.91C1012.86 343.95 995 335.39 976.67 327.37C958.181 319.077 939.194 311.94 919.82 306C909.478 302.914 898.988 300.347 888.39 298.31C877.863 296.31 867.33 294.82 856.79 293.84C846.27 292.9 835.79 292.47 825.38 292.47C814.97 292.47 804.68 293.09 794.51 294.04L786.9 294.86L779.37 295.86C776.85 296.17 774.37 296.62 771.89 297.04C769.41 297.46 766.89 297.84 764.47 298.38C754.62 300.24 744.99 302.67 735.54 305.38C726.09 308.09 716.84 311.08 707.8 314.32C698.76 317.56 689.88 320.98 681.2 324.54C663.83 331.64 647.14 339.17 630.93 346.47C614.72 353.77 599 360.86 583.6 367.33C568.2 373.8 553.18 379.62 538.45 384.43C524.358 389.131 509.999 392.991 495.45 395.99C498.39 395.56 501.78 394.91 505.65 394.08C518.86 391.08 531.11 387.45 542.49 383.67C553.87 379.89 564.43 375.92 574.2 372C593.75 364.17 610.38 356.72 624.76 350.33C639.14 343.94 651.24 338.52 661.47 334.11C671.7 329.7 680 326.32 686.73 323.63Z" fill="#F4CAAB"/>
<path d="M940.53 308.69C940.16 308.665 939.796 308.584 939.45 308.45C938.75 308.26 937.71 307.94 936.35 307.52C933.62 306.7 929.67 305.32 924.46 303.87C909.849 299.505 894.963 296.124 879.9 293.75C870.37 292.3 859.9 290.97 848.55 290.29C836.504 289.548 824.427 289.438 812.37 289.96C799.046 290.541 785.768 291.923 772.61 294.1C758.493 296.458 744.534 299.677 730.81 303.74C716.7 307.85 703.18 312.69 690.27 317.66C677.36 322.63 665.07 327.84 653.41 332.88C630.12 343.02 609.31 352.45 591.62 359.88C573.93 367.31 559.43 372.68 549.3 376.08C544.22 377.75 540.3 379.08 537.57 379.81C536.22 380.2 535.19 380.48 534.49 380.66C534.14 380.777 533.778 380.851 533.41 380.88C533.721 380.684 534.057 380.533 534.41 380.43C535.09 380.17 536.1 379.81 537.41 379.35C540.08 378.43 544 377 549 375.2C559 371.54 573.4 365.87 591 358.28C608.6 350.69 629.29 341.12 652.57 330.86C664.22 325.75 676.52 320.51 689.46 315.47C702.4 310.43 715.98 305.58 730.17 301.47C743.991 297.385 758.051 294.158 772.27 291.81C785.509 289.661 798.867 288.325 812.27 287.81C824.408 287.342 836.562 287.525 848.68 288.36C860.07 289.13 870.61 290.57 880.18 292.13C895.282 294.645 910.176 298.279 924.74 303C929.92 304.59 933.83 306.12 936.51 307.09C937.84 307.58 938.85 307.97 939.51 308.24C939.87 308.339 940.214 308.491 940.53 308.69Z" fill="white"/>
<path d="M1217 391.28C1216.46 391.372 1215.91 391.412 1215.36 391.4L1210.68 391.5L1203.26 391.58L1193.43 391.29C1174.46 390.623 1155.56 388.548 1136.9 385.08C1118.24 381.607 1099.88 376.652 1082 370.26L1072.8 366.8C1070.09 365.8 1067.8 364.8 1065.91 364.03L1061.59 362.2C1061.08 362.014 1060.58 361.776 1060.12 361.49C1060.65 361.6 1061.18 361.761 1061.68 361.97L1066.09 363.58C1068 364.27 1070.31 365.2 1073.04 366.15L1082.29 369.43C1100.19 375.562 1118.52 380.384 1137.12 383.86C1155.73 387.304 1174.55 389.492 1193.46 390.41L1203.26 390.89L1210.67 391.02L1215.35 391.15C1215.9 391.131 1216.46 391.174 1217 391.28Z" fill="white"/>
<path d="M1252.29 406.36C1227 410.658 1201.2 411.019 1175.8 407.43C1174.44 407.24 1173.09 407.1 1171.8 406.87L1167.87 406.19C1165.27 405.74 1162.72 405.35 1160.26 404.78L1153 403.22L1146.12 401.46C1143.86 400.93 1141.7 400.24 1139.58 399.62C1137.46 399 1135.36 398.41 1133.36 397.72C1129.36 396.32 1125.51 395.13 1121.94 393.66C1114.72 390.96 1108.35 388.13 1102.64 385.52L1094.64 381.68L1087.57 378.07C1078.73 373.49 1072.25 369.82 1067.57 367.14C1058.14 361.76 1055.78 360.32 1056.89 360.99C1058 361.66 1062.63 364.37 1067.28 366.99L1073.82 370.68L1077.75 372.82C1078.89 373.41 1076.43 372.2 1067 366.82C1062.28 364.14 1055.83 360.38 1047.21 355.28C1038.59 350.18 1027.7 343.71 1014 336C1007.15 332.18 999.6 328 991.1 323.8L984.58 320.57L977.67 317.41L974.1 315.79L970.4 314.25C967.89 313.25 965.4 312.15 962.74 311.12C938.147 301.677 912.322 295.83 886.06 293.76C877.46 293.1 868.83 292.86 860.21 292.95C851.59 293.04 842.97 293.68 834.39 294.59C830.12 295.16 825.82 295.59 821.59 296.39C817.36 297.19 813.07 297.75 808.88 298.71C804.69 299.67 800.45 300.43 796.3 301.51C792.15 302.59 787.95 303.51 783.83 304.71C750.73 313.71 718.83 325.93 686.18 334.6C669.953 339.074 653.388 342.218 636.65 344C619.959 345.696 603.127 345.424 586.5 343.19C569.868 340.962 553.526 336.938 537.76 331.19C535.76 330.55 533.85 329.68 531.9 328.92L526.06 326.57L520.35 323.95C518.45 323.05 516.51 322.25 514.67 321.25L509.09 318.35C508.17 317.86 507.22 317.41 506.31 316.89L498.16 312.15C496.35 311.09 494.63 309.89 492.86 308.77C491.33 307.77 489.86 306.88 488.52 306.06C487.18 305.24 485.95 304.37 484.79 303.66C482.46 302.22 480.44 301.11 478.79 300.29C475.51 298.49 473.51 298 473 298.7C472.49 299.4 473.35 301.23 475.87 304.08C477.522 305.76 479.265 307.349 481.09 308.84C482.18 309.73 483.37 310.7 484.69 311.68C486.01 312.66 487.5 313.6 489.08 314.62C500.951 322.309 513.5 328.896 526.57 334.3L531.1 336.13C532.6 336.74 534.1 337.34 535.59 337.83L544.4 340.89L553 343.45C553.7 343.65 554.4 343.87 555.1 344.06L557.21 344.58L561.36 345.58L565.43 346.58C566.78 346.88 568.12 347.12 569.43 347.39C572.09 347.9 574.69 348.45 577.25 348.89C582.4 349.6 587.31 350.49 592.07 350.89L599.07 351.55L605.76 351.88C610.12 352.19 614.28 352.05 618.25 352.08C625.428 352.001 632.598 351.554 639.73 350.74L644.4 350.26C645.91 350.08 647.4 349.83 648.79 349.62L656.79 348.4C661.79 347.46 666.12 346.59 669.89 345.84L679.49 343.59C682.18 343 684.32 342.38 686.05 341.93L689.99 340.93C691.83 340.44 692.19 340.35 691.55 340.51L687.18 341.68C685.05 342.22 682.46 342.99 679.81 343.57C674.53 344.78 669.27 346.1 667.96 346.28L669.55 345.97L680.13 343.49C682.82 342.9 685.94 341.98 689.65 341.02C693.36 340.06 697.59 338.83 702.43 337.41L706.18 336.32L710.18 335.1L718.81 332.42L739 325.82C746.43 323.4 754.56 320.75 763.51 317.97C767.97 316.55 772.66 315.22 777.51 313.74C779.96 313.04 782.51 312.37 785.02 311.66C787.53 310.95 790.18 310.2 792.86 309.58L801.05 307.58C803.83 306.9 806.7 306.36 809.6 305.73L814.01 304.81C815.5 304.52 817.01 304.29 818.53 304.03C821.53 303.54 824.66 302.95 827.83 302.51C841.469 300.626 855.233 299.787 869 300C902.706 300.53 936.002 307.488 967.1 320.5C982.637 327.118 997.755 334.678 1012.37 343.14C1027.11 351.51 1041.64 360.36 1056.37 368.93C1071.1 377.5 1086.16 385.81 1101.81 392.93L1107.74 395.51C1109.74 396.34 1111.66 397.28 1113.74 398.02L1119.74 400.36L1122.74 401.54L1125.8 402.59L1131.93 404.68C1133.99 405.33 1136.06 405.92 1138.13 406.54C1142.25 407.85 1146.46 408.79 1150.64 409.89C1159.04 411.873 1167.53 413.435 1176.09 414.57C1184.64 415.8 1193.26 416.38 1201.87 416.76L1208.35 416.87C1209.42 416.87 1210.5 416.87 1211.58 416.87L1214.82 416.8L1221.29 416.65L1227.75 416.26L1230.98 416.06C1232.05 415.98 1233.13 415.86 1234.2 415.76L1240.64 415.11C1242.78 414.87 1244.92 414.53 1247.06 414.24C1249.2 413.95 1251.34 413.68 1253.45 413.24C1268.26 410.69 1275.01 406.74 1274.55 405.1C1274.09 403.46 1266.65 403.89 1252.29 406.36Z" fill="#FFB956"/>
<path d="M666.51 345.65C667.68 345.41 668.8 345.21 669.87 344.98L678.13 343.03C681.3 342.32 683.74 341.66 685.6 341.16L690.6 339.83C693.94 338.98 697.6 337.83 701.8 336.65C706 335.47 710.53 334.02 715.58 332.46C725.68 329.31 737.58 325.36 751.76 320.8C765.94 316.24 782.27 311.12 801.45 306.62C803.85 306.06 806.3 305.62 808.79 305.05C811.28 304.48 813.79 303.93 816.38 303.54C821.56 302.68 826.88 301.7 832.43 301.07C877.923 295.518 924.079 301.804 966.43 319.32C982.012 325.911 997.177 333.448 1011.84 341.89C1026.61 350.24 1041.14 359.1 1055.84 367.67C1070.54 376.24 1085.57 384.56 1101.16 391.75C1105.08 393.49 1109.02 395.21 1112.97 396.88L1118.97 399.22C1120.97 399.99 1122.97 400.81 1124.97 401.47L1131.07 403.56C1133.07 404.28 1135.19 404.81 1137.24 405.45C1139.29 406.09 1141.35 406.73 1143.45 407.23L1149.7 408.83C1151.78 409.39 1153.89 409.83 1155.99 410.25C1158.09 410.67 1160.19 411.18 1162.31 411.56L1168.67 412.66C1169.73 412.84 1170.78 413.05 1171.85 413.19L1175.05 413.62L1181.44 414.46L1191.08 415.36L1200.74 415.9C1209.34 416.11 1217.95 416.16 1226.54 415.54C1230.83 415.34 1235.11 414.85 1239.39 414.43C1241.54 414.25 1243.66 413.87 1245.79 413.6C1247.92 413.33 1250.06 413.05 1252.17 412.66C1256.08 412.026 1259.95 411.171 1263.76 410.1C1250.25 412.853 1236.54 414.525 1222.76 415.1C1207.94 415.751 1193.1 415.106 1178.39 413.17C1162.72 411.129 1147.28 407.661 1132.24 402.81C1116.46 397.493 1101.12 390.918 1086.39 383.15C1056.08 367.57 1026.56 347.59 994.04 330.62C992.04 329.52 989.94 328.55 987.89 327.52C985.84 326.49 983.77 325.45 981.69 324.46L972.21 320.12L969 318.78C960.382 315.097 951.569 311.889 942.6 309.17C940.33 308.51 938.08 307.78 935.79 307.17L928.91 305.36C924.29 304.28 919.64 303.19 914.91 302.36C905.455 300.557 895.912 299.249 886.32 298.44C866.107 296.824 845.777 297.478 825.71 300.39C805.95 303.39 786.85 308.39 768.32 314.05C749.79 319.71 732 326 714.17 331.53C696.34 337.06 678.72 342.12 661.17 345.53C644.058 348.976 626.623 350.556 609.17 350.24C592.745 349.803 576.411 347.638 560.44 343.78C531.797 336.88 504.72 324.617 480.64 307.64C481.74 308.51 482.95 309.45 484.26 310.43C485.57 311.41 487.06 312.35 488.63 313.38C498.763 320.057 509.429 325.887 520.52 330.81C530.288 335.213 540.357 338.916 550.65 341.89C567.455 346.872 584.78 349.892 602.28 350.89C606.04 351.04 609.65 351.34 613.13 351.26H620.72C621.53 351.26 622.34 351.18 623.14 351.15L632.31 350.68L640.66 349.82L644.54 349.43L648.22 348.88L655.03 347.88C657.19 347.59 659.2 347.15 661.11 346.78L666.51 345.65Z" fill="#F4CAAB"/>
<path d="M906.23 297.16C904.858 297.108 903.489 296.984 902.13 296.79C899.45 296.53 895.51 296.01 890.41 295.64L886.41 295.31L881.96 295.07C880.4 295 878.79 294.86 877.1 294.83L871.85 294.7L869.08 294.64H860.22C856.11 294.81 851.76 294.9 847.22 295.28C837.282 295.95 827.392 297.199 817.6 299.02L813.6 299.71L809.6 300.57L801.34 302.33L792.92 304.43C791.5 304.79 790.06 305.12 788.62 305.51L784.3 306.71C761 313.06 736.09 322 709.67 330.1L704.73 331.62L699.8 333.06C696.51 333.99 693.27 335 690.02 335.83L680.34 338.38L670.75 340.62C669.17 341.01 667.58 341.32 666 341.62L656.6 343.45L651.94 344.16L647.33 344.85C645.8 345.07 644.33 345.35 642.76 345.47L633.76 346.37C622.506 347.256 611.202 347.309 599.94 346.53C597.3 346.33 594.71 346.01 592.17 345.77L588.39 345.39L577.56 343.75L570.77 342.38C556.83 339.528 543.206 335.301 530.1 329.76C525.42 327.89 521.95 326.1 519.57 324.94C518.38 324.36 517.48 323.94 516.88 323.59C516.564 323.455 516.267 323.276 516 323.06C516.348 323.112 516.686 323.22 517 323.38C517.63 323.63 518.56 324.01 519.78 324.53C522.22 325.53 525.78 327.21 530.45 328.94C543.611 334.134 557.222 338.107 571.11 340.81L577.86 342.09L584.96 343.09L588.62 343.61L592.38 343.96C594.9 344.17 597.47 344.47 600.09 344.64C611.257 345.329 622.46 345.209 633.61 344.28L642.53 343.34C644.04 343.22 645.53 342.94 647.06 342.72L651.63 342.01L656.25 341.3L665.58 339.45C667.15 339.15 668.73 338.83 670.3 338.45L679.82 336.21L689.45 333.66C692.69 332.83 695.92 331.82 699.19 330.89L704.1 329.46L709.03 327.93C735.39 319.81 760.35 310.93 783.71 304.75L788.06 303.57C789.5 303.19 790.95 302.86 792.38 302.51L800.86 300.45L813.23 297.89L817.23 297.23C827.094 295.465 837.055 294.3 847.06 293.74C851.65 293.41 856.06 293.37 860.16 293.26C862.23 293.26 864.24 293.26 866.16 293.26H869.04L871.82 293.36L877.09 293.58C878.79 293.65 880.41 293.82 881.97 293.92L886.43 294.26L890.43 294.69C895.54 295.2 899.43 295.86 902.14 296.27C903.47 296.47 904.48 296.65 905.14 296.81C905.519 296.869 905.887 296.987 906.23 297.16Z" fill="white"/>
<path d="M1158.3 406.48C1157.78 406.465 1157.26 406.394 1156.76 406.27C1155.76 406.09 1154.3 405.84 1152.42 405.45C1148.68 404.54 1143.24 403.35 1136.66 401.35C1133.34 400.46 1129.8 399.15 1125.95 397.9C1124.02 397.29 1122.1 396.47 1120.08 395.72L1113.87 393.33C1105.49 389.78 1096.33 385.71 1087.02 380.81C1082.32 378.46 1077.85 375.92 1073.48 373.58C1069.11 371.24 1064.99 368.79 1061.05 366.49C1053.17 361.9 1046.12 357.66 1040.21 354.1L1026.21 345.63L1022.41 343.3C1021.95 343.054 1021.52 342.759 1021.13 342.42C1021.62 342.601 1022.08 342.825 1022.53 343.09C1023.44 343.56 1024.75 344.29 1026.43 345.24C1029.81 347.13 1034.67 349.9 1040.63 353.39L1061.63 365.55C1065.58 367.83 1069.76 370.15 1074.08 372.55C1078.4 374.95 1082.91 377.41 1087.6 379.75C1096.89 384.64 1106 388.75 1114.32 392.32L1120.49 394.74C1122.49 395.5 1124.4 396.34 1126.32 396.96C1130.14 398.25 1133.64 399.6 1136.94 400.54C1143.47 402.64 1148.86 403.95 1152.56 404.98L1156.85 405.98C1157.35 406.099 1157.83 406.266 1158.3 406.48Z" fill="white"/>
<path d="M1390.19 307.66C1383.89 306.266 1377.79 304.124 1372 301.28C1367.1 298.842 1362.52 295.783 1358.4 292.18C1351.96 286.629 1346.93 279.617 1343.75 271.73C1342.62 268.79 1341.77 265.75 1341.21 262.65C1340.78 260.113 1340.49 257.551 1340.37 254.98C1340.21 251.427 1340.25 247.868 1340.5 244.32C1340.87 239.19 1341.08 237.86 1341 238.48C1340.92 239.1 1340.67 241.65 1340.51 244.17C1340.35 246.69 1340.28 249.17 1340.28 249.79C1340.28 250.41 1340.2 249.13 1340.52 244.01C1340.68 241.45 1341.01 237.92 1341.61 233.13C1342.21 228.34 1343.1 222.24 1343.9 214.53C1344.7 206.82 1345.35 197.61 1345.5 186.61C1345.5 183.86 1345.5 181 1345.5 178.03C1345.5 175.06 1345.4 172.03 1345.18 168.66C1344.98 165.09 1344.44 161.547 1343.57 158.08C1343.06 156.157 1342.39 154.281 1341.57 152.47C1341.16 151.53 1340.57 150.64 1340.11 149.73C1339.84 149.27 1339.6 148.81 1339.3 148.37L1338.37 147.08C1335.51 143.229 1331.89 140.011 1327.73 137.63C1323.75 135.343 1319.46 133.639 1315 132.57C1310.66 131.517 1306.22 130.903 1301.76 130.74C1299.55 130.67 1297.31 130.68 1295.13 130.79C1292.95 130.9 1290.79 131.05 1288.64 131.33C1271.37 133.26 1254.94 139.33 1239.97 147.33C1225 155.33 1211.29 165.55 1198.36 176.19C1191.9 181.51 1185.58 186.96 1179.3 192.4L1170 200.51C1167.2 202.985 1164.08 205.073 1160.72 206.72C1158.7 207.567 1156.73 208.522 1154.82 209.58C1154.16 209.94 1153.55 210.384 1153 210.9C1152.52 211.288 1152.17 211.811 1152 212.4C1151.93 212.711 1151.93 213.032 1152 213.344C1152.06 213.655 1152.19 213.95 1152.37 214.21C1152.95 214.963 1153.73 215.538 1154.62 215.87C1156.8 216.8 1160.55 216.87 1164.4 215.05C1167.92 213.372 1171.22 211.27 1174.23 208.79C1175.66 207.66 1176.96 206.51 1178.23 205.46L1195.19 190.83C1203.4 183.83 1210.4 178.15 1216.39 173.63C1224.11 167.677 1232.23 162.257 1240.69 157.41C1242.94 156.12 1244.38 155.41 1245.17 154.95C1245.96 154.49 1246.17 154.45 1245.85 154.6C1245.3 154.89 1243.04 156.06 1240.85 157.33C1238.66 158.6 1236.45 159.93 1235.91 160.23C1235.37 160.53 1236.49 159.84 1240.98 157.23C1242.11 156.59 1243.45 155.83 1245.05 155C1246.65 154.17 1248.5 153.21 1250.63 152.16C1256.05 149.54 1261.62 147.269 1267.33 145.36C1270.83 144.23 1274.69 143.09 1278.99 142.15C1283.66 141.129 1288.4 140.427 1293.17 140.05C1295.83 139.822 1298.5 139.752 1301.17 139.84C1303.99 139.932 1306.81 140.226 1309.59 140.72C1312.53 141.247 1315.41 142.04 1318.21 143.09C1321.09 144.198 1323.81 145.699 1326.28 147.55C1329.07 149.642 1331.35 152.336 1332.96 155.43C1334.53 158.698 1335.51 162.22 1335.85 165.83C1336.25 169.817 1336.45 173.822 1336.45 177.83C1336.51 181.923 1336.49 186.017 1336.39 190.11C1336.18 198.28 1335.66 206.46 1334.8 214.59C1333.94 222.72 1332.63 230.89 1331.8 239.38C1330.97 247.87 1330.8 256.68 1332.53 265.51C1333.4 269.945 1334.81 274.259 1336.71 278.36C1338.61 282.43 1340.95 286.275 1343.71 289.82C1346.44 293.347 1349.52 296.587 1352.91 299.49C1356.27 302.391 1359.9 304.969 1363.74 307.19C1371.36 311.542 1379.6 314.711 1388.18 316.59C1390.98 317.338 1393.91 317.38 1396.73 316.71C1398.73 316.11 1399.73 315.09 1399.86 313.95C1400.09 311.61 1396.87 309.12 1390.19 307.66Z" fill="#FFB956"/>
<path d="M1234.8 159.65C1238.66 157.29 1241.27 155.86 1242.87 154.96L1245.05 153.81C1247.94 152.28 1251.6 150.46 1256.21 148.48C1261.73 146.086 1267.41 144.081 1273.21 142.48C1281.08 140.289 1289.18 139.04 1297.34 138.76C1302.22 138.612 1307.1 139.069 1311.87 140.12C1314.45 140.668 1316.97 141.455 1319.4 142.47C1321.93 143.492 1324.32 144.837 1326.51 146.47C1329.46 148.619 1331.89 151.396 1333.63 154.6C1335.33 157.927 1336.4 161.542 1336.78 165.26C1337.21 169.245 1337.44 173.251 1337.44 177.26C1337.51 181.367 1337.51 185.473 1337.44 189.58C1337.24 197.78 1336.72 205.97 1335.88 214.15C1335.06 222.3 1333.73 230.47 1332.88 238.9C1332.03 247.33 1331.79 256.03 1333.45 264.71C1335.1 273.449 1338.8 281.673 1344.24 288.71C1349.58 295.685 1356.23 301.557 1363.81 306C1371.32 310.343 1379.45 313.52 1387.91 315.42C1389.84 315.886 1391.82 316.128 1393.8 316.14C1387.03 314.896 1380.43 312.907 1374.1 310.21C1367.24 307.314 1360.85 303.392 1355.17 298.58C1349.1 293.432 1344.05 287.186 1340.29 280.17C1338.36 276.495 1336.86 272.609 1335.82 268.59C1334.8 264.488 1334.19 260.294 1334 256.07C1333.55 247.58 1334.51 239 1335.65 230.42C1336.23 226.13 1336.85 221.82 1337.37 217.47C1337.89 213.12 1338.3 208.71 1338.64 204.27C1339.31 195.37 1339.57 186.313 1339.44 177.1C1339.47 172.518 1339.17 167.939 1338.55 163.4C1337.94 158.942 1336.28 154.693 1333.71 151C1333.35 150.53 1333.02 150 1332.65 149.57L1331.46 148.25C1331.26 148.03 1331.07 147.81 1330.86 147.6L1328.89 145.81C1327.03 144.323 1325.02 143.033 1322.89 141.96C1318.61 139.84 1314.02 138.399 1309.3 137.69C1304.62 136.922 1299.86 136.691 1295.13 137C1290.43 137.257 1285.75 137.852 1281.13 138.78C1276.59 139.666 1272.12 140.835 1267.73 142.28C1263.4 143.662 1259.15 145.274 1255 147.11C1246.96 150.684 1239.22 154.887 1231.84 159.68C1217.4 169.01 1204.84 179.58 1193.34 189.68C1187.59 194.68 1182.09 199.68 1176.77 204.42C1174.11 206.882 1171.28 209.145 1168.29 211.19C1166.75 212.195 1165.15 213.097 1163.49 213.89C1161.77 214.678 1159.96 215.275 1158.11 215.67C1159.95 215.516 1161.76 215.06 1163.45 214.32C1166.45 212.962 1169.28 211.267 1171.89 209.27C1173.12 208.33 1174.31 207.39 1175.42 206.44L1178.62 203.69L1190.34 193.56C1197.65 187.25 1204.05 181.91 1209.68 177.44C1217.69 171.011 1226.08 165.07 1234.8 159.65Z" fill="#F4CAAB"/>
<path d="M1342.08 157.69C1341.98 157.69 1341.69 157.02 1341.08 155.69C1340.25 153.759 1339.25 151.908 1338.08 150.16C1336.27 147.421 1334.04 144.982 1331.48 142.93C1328.15 140.311 1324.42 138.241 1320.43 136.8C1315.7 135.118 1310.78 134.046 1305.78 133.61C1300.11 133.146 1294.42 133.286 1288.78 134.03C1275.98 135.673 1263.51 139.247 1251.78 144.63C1240.16 150.008 1229.09 156.494 1218.72 164C1209.1 170.76 1200.85 177.41 1194 183C1187.15 188.59 1181.63 193.24 1177.77 196.33C1173.91 199.42 1171.71 201.07 1171.58 200.92C1171.45 200.77 1173.4 198.84 1177.02 195.47C1180.64 192.1 1185.94 187.26 1192.65 181.41C1199.36 175.56 1207.53 168.71 1217.16 161.71C1227.63 154.013 1238.87 147.408 1250.69 142C1262.68 136.493 1275.47 132.913 1288.58 131.39C1290.1 131.23 1291.58 131.07 1293.09 131.01C1294.6 130.95 1296.04 130.82 1297.53 130.83C1300.4 130.788 1303.27 130.925 1306.12 131.24C1311.31 131.79 1316.41 133.027 1321.27 134.92C1325.41 136.544 1329.25 138.846 1332.63 141.73C1335.23 143.975 1337.43 146.643 1339.14 149.62C1340.23 151.485 1341.09 153.476 1341.69 155.55C1342.08 156.91 1342.18 157.66 1342.08 157.69Z" fill="white"/>
<path d="M1350.8 288.3C1350.03 287.74 1349.36 287.065 1348.8 286.3C1347.11 284.333 1345.58 282.229 1344.24 280.01C1342.24 276.717 1340.63 273.2 1339.45 269.53C1338.05 264.985 1337.23 260.281 1337.01 255.53C1336.78 250.757 1336.91 245.973 1337.4 241.22C1337.82 236.82 1338.4 232.87 1338.87 229.54C1339.34 226.21 1339.82 223.54 1340.14 221.65C1340.23 220.666 1340.45 219.698 1340.79 218.77C1340.91 219.768 1340.89 220.778 1340.73 221.77C1340.59 223.66 1340.31 226.38 1339.94 229.77C1339.57 233.16 1339.13 237.06 1338.8 241.43C1338.39 246.118 1338.3 250.829 1338.53 255.53C1338.75 260.149 1339.51 264.727 1340.79 269.17C1341.89 272.763 1343.35 276.232 1345.17 279.52C1348.29 285.09 1351 288.13 1350.8 288.3Z" fill="white"/>
<path d="M1328.68 254.9C1312.88 252.59 1298.19 250.45 1284.68 248.02C1277.9 246.8 1271.4 245.503 1265.19 244.13C1258.97 242.75 1253.04 241.25 1247.38 239.69C1236.97 236.807 1226.76 233.256 1216.81 229.06C1207.7 225.17 1199.62 221.06 1192.36 217.14C1177.87 209.2 1166.68 201.87 1157.79 195.97C1148.9 190.07 1142.38 185.46 1137.61 182.13C1118.54 168.74 1127.93 175.34 1137.32 181.93L1147.88 189.26C1149.02 190.04 1146.58 188.4 1137.04 181.73L1116.93 167.62C1112.53 164.54 1107.55 161.08 1101.93 157.27C1096.31 153.46 1089.93 149.27 1082.81 144.81C1075.69 140.35 1067.72 135.6 1058.7 130.88C1048.87 125.669 1038.7 121.116 1028.26 117.25C1015.93 112.722 1003.18 109.452 990.19 107.49C975.097 105.317 959.786 105.109 944.64 106.87C935.393 107.932 926.247 109.738 917.29 112.27C908.37 114.76 899.39 117.98 891.14 122.94C886.905 125.43 883.024 128.477 879.6 132C877.875 133.809 876.31 135.763 874.92 137.84C874.27 138.91 873.59 139.98 873.01 141.1C872.43 142.22 871.85 143.34 871.41 144.53C869.578 149.178 868.563 154.107 868.41 159.1C868.235 163.945 868.645 168.793 869.63 173.54C869.821 174.723 870.078 175.895 870.4 177.05C870.7 178.21 870.96 179.38 871.3 180.53C872.06 182.79 872.71 185.1 873.66 187.29C875.418 191.71 877.524 195.984 879.96 200.07C884.86 208.114 890.712 215.538 897.39 222.18C900.65 225.55 904.16 228.63 907.68 231.67C911.2 234.71 914.92 237.55 918.68 240.17C920.58 241.5 922.43 242.9 924.37 244.17L930.18 247.98C934.13 250.38 938.06 252.83 942.12 254.98C950.2 259.489 958.504 263.584 967 267.25C975.45 270.9 984 274.25 992.72 277.25C1001.44 280.25 1010.15 283 1019 285.49C1027.85 287.98 1036.7 290.24 1045.59 292.37C1081.17 300.84 1117.07 307.09 1152.08 316.37C1157.77 317.977 1163.56 319.203 1169.42 320.04C1173.42 320.47 1175.55 320.22 1175.84 319.31C1176.13 318.4 1174.54 316.88 1170.92 315.1C1165.5 312.536 1159.83 310.525 1154 309.1C1138.48 304.98 1123.9 301.72 1110.33 298.78L1072.58 290.78C1049.38 285.78 1030.1 281.02 1014.2 276.28C1001.25 272.47 988.497 268.001 976 262.89C966.2 258.89 959.06 255.42 954 252.78C948.94 250.14 945.76 248.36 944 247.41L942.52 246.58L946.66 248.89C947.66 249.44 948.77 250.09 949.97 250.71L953.69 252.62C954.95 253.26 956.2 253.93 957.41 254.52L960.82 256.15C962.9 257.15 964.48 257.91 965.11 258.15C965.74 258.39 965.37 258.3 963.58 257.43L956.86 254.23L953.38 252.43L949.19 250.27L944.32 247.55C943.45 247.06 942.53 246.55 941.6 246.02L938.73 244.29C936.73 243.08 934.61 241.85 932.43 240.37C923.62 234.6 912.62 227.07 901.3 215.37C898.363 212.303 895.593 209.082 893 205.72C891.6 203.99 890.36 202.1 889 200.21C888.36 199.21 887.76 198.21 887.13 197.21L886.18 195.7L885.32 194.13C882.836 189.777 880.799 185.183 879.24 180.42C877.513 175.328 876.425 170.04 876 164.68C875.51 159.032 876.237 153.344 878.13 148C880.372 142.37 884.063 137.433 888.83 133.69C894.175 129.457 900.146 126.083 906.53 123.69C909.86 122.36 913.35 121.22 916.97 120.13C918.77 119.57 920.62 119.13 922.47 118.6C924.32 118.07 926.21 117.69 928.11 117.23C945.535 113.354 963.464 112.263 981.23 114C983.44 114.26 985.66 114.45 987.86 114.79L991.17 115.26L994.45 115.83C996.65 116.17 998.82 116.72 1001 117.16C1002.09 117.4 1003.19 117.61 1004.27 117.87L1007.51 118.71C1016.16 120.956 1024.65 123.785 1032.92 127.18C1049.51 134.185 1065.45 142.61 1080.59 152.36C1095.88 162 1110.7 172.48 1125.59 182.96C1140.48 193.44 1155.49 203.96 1171.12 213.55C1186.74 223.357 1203.2 231.763 1220.31 238.67C1237.56 245.41 1255.49 250.02 1273.48 253.59C1291.47 257.16 1309.58 259.72 1327.58 262.37C1358.88 266.92 1360 259.49 1328.68 254.9Z" fill="#FFB956"/>
<path d="M966 259.54C956.9 255.39 951.07 252.31 947.5 250.37L942.74 247.71C934.809 243.154 927.146 238.146 919.79 232.71C914.907 229.076 910.233 225.17 905.79 221.01C900.528 216.103 895.699 210.749 891.36 205.01C886.33 198.371 882.263 191.056 879.28 183.28C878.89 182.28 878.58 181.17 878.22 180.1C878.04 179.56 877.86 179.02 877.69 178.48C877.52 177.94 877.4 177.37 877.25 176.82C876.98 175.71 876.69 174.58 876.41 173.45C876.13 172.32 876.01 171.14 875.81 169.97C874.963 165.179 874.831 160.289 875.42 155.46C875.74 152.987 876.317 150.554 877.14 148.2C877.558 147.005 878.063 145.842 878.65 144.72L879.07 143.86C879.22 143.58 879.39 143.31 879.56 143.03C879.89 142.48 880.21 141.91 880.56 141.37C882.06 139.163 883.779 137.113 885.69 135.25C887.73 133.331 889.92 131.579 892.24 130.01C901.8 123.61 913.94 119.63 926.94 116.57C935.669 114.558 944.543 113.24 953.48 112.63C962.417 112.032 971.388 112.128 980.31 112.92C984.76 113.36 989.21 113.92 993.61 114.68C994.71 114.88 995.82 115.04 996.92 115.27L1000.2 115.97C1002.39 116.43 1004.59 116.88 1006.75 117.49C1015.44 119.72 1023.97 122.564 1032.26 126C1048.93 132.9 1064.95 141.266 1080.14 151C1095.49 160.61 1110.33 171.09 1125.22 181.57C1140.11 192.05 1155.09 202.57 1170.66 212.19C1186.23 221.81 1202.47 230.59 1219.66 237.39C1236.85 244.19 1254.66 248.86 1272.66 252.47C1290.66 256.08 1308.66 258.64 1326.72 261.29C1331.72 262.02 1335.78 262.47 1339.2 262.74C1325.36 260.59 1310.89 258.47 1295.87 255.97C1280.85 253.47 1265.3 250.47 1249.5 246.18C1233.16 241.85 1217.29 235.891 1202.14 228.39C1186.54 220.74 1171.34 211.39 1156.2 201.31C1141.06 191.23 1126.02 180.31 1110.5 169.44C1094.98 158.57 1078.94 147.83 1061.8 138.33C1044.66 128.83 1026.33 120.78 1006.8 115.89C986.95 110.847 966.35 109.445 946 111.75C935.185 112.957 924.51 115.194 914.12 118.43C908.973 119.966 903.956 121.912 899.12 124.25C896.741 125.412 894.434 126.714 892.21 128.15C890.019 129.558 887.943 131.136 886 132.87C884.052 134.587 882.267 136.482 880.67 138.53C879.102 140.579 877.761 142.792 876.67 145.13C874.588 149.834 873.492 154.916 873.45 160.06C873.397 162.632 873.524 165.205 873.83 167.76C873.96 169.04 874.23 170.3 874.44 171.57C874.631 172.842 874.888 174.104 875.21 175.35C876.384 180.338 878.09 185.186 880.3 189.81C882.471 194.426 885.047 198.84 888 203C890.884 207.149 894.059 211.089 897.5 214.79C904.297 222.113 911.8 228.749 919.9 234.6C927.819 240.374 936.099 245.634 944.69 250.35C953.074 254.983 961.692 259.178 970.51 262.92C979.23 266.61 987.98 269.92 996.71 272.85C1005.44 275.78 1014.18 278.37 1022.82 280.75C1040.12 285.48 1057.12 289.24 1073.58 292.75C1090.04 296.26 1105.99 299.38 1121.24 302.69C1136.49 306 1151.08 309.48 1164.85 313.29C1162.01 312.36 1158.69 311.29 1154.85 310.29C1128.44 303.29 1104.85 298.6 1084.08 294.16C1073.71 291.96 1064.04 289.843 1055.08 287.81C1046.12 285.777 1037.81 283.737 1030.14 281.69C999.44 273.53 979.17 265.49 966 259.54Z" fill="#F4CAAB"/>
<path d="M966.57 106.82C966.2 106.91 965.82 106.947 965.44 106.93C964.7 106.93 963.59 107.03 962.15 107.08C960.71 107.13 958.91 107.21 956.79 107.37C954.67 107.53 952.25 107.7 949.51 107.96C942.872 108.645 936.276 109.687 929.75 111.08L926.84 111.71L923.84 112.45C921.84 112.92 919.75 113.53 917.62 114.12C915.49 114.71 913.34 115.44 911.11 116.12C908.88 116.8 906.62 117.67 904.34 118.61C899.504 120.516 894.868 122.894 890.5 125.71C888.153 127.217 885.932 128.913 883.86 130.78C881.689 132.725 879.725 134.89 878 137.24C876.188 139.679 874.683 142.333 873.52 145.14C872.355 148.032 871.543 151.054 871.1 154.14C870.247 160.531 870.514 167.021 871.89 173.32C873.218 179.909 875.399 186.296 878.38 192.32C881.475 198.555 885.223 204.445 889.56 209.89C898.736 221.215 909.516 231.14 921.56 239.35C933.422 247.701 945.993 254.996 959.13 261.15C971.321 266.92 983.843 271.962 996.63 276.25C1021.04 284.52 1043.63 289.9 1062.56 294.25C1081.49 298.6 1096.89 301.81 1107.46 304.25C1112.75 305.46 1116.84 306.45 1119.61 307.15C1120.99 307.49 1122.04 307.77 1122.75 307.97C1123.1 308.045 1123.44 308.169 1123.75 308.34C1123.38 308.353 1123 308.309 1122.64 308.21L1119.45 307.62L1107.21 305.18C1096.58 303.01 1081.21 300 1062.14 295.92C1043.07 291.84 1020.44 286.56 995.86 278.36C982.967 274.104 970.344 269.071 958.06 263.29C944.765 257.1 932.048 249.738 920.06 241.29C907.823 232.937 896.883 222.829 887.59 211.29C883.161 205.712 879.34 199.678 876.19 193.29C873.146 187.089 870.927 180.517 869.59 173.74C868.24 167.195 868.04 160.464 869 153.85C869.48 150.588 870.36 147.397 871.62 144.35C872.855 141.383 874.451 138.578 876.37 136C878.201 133.559 880.282 131.317 882.58 129.31C884.741 127.399 887.052 125.663 889.49 124.12C893.982 121.28 898.745 118.895 903.71 117C906.05 116.07 908.36 115.29 910.61 114.55C912.86 113.81 915.06 113.17 917.21 112.55C919.36 111.93 921.46 111.39 923.51 110.95L926.51 110.25L929.45 109.66C936.058 108.365 942.736 107.453 949.45 106.93C952.2 106.74 954.65 106.59 956.78 106.56C958.91 106.53 960.7 106.48 962.16 106.5C963.62 106.52 964.72 106.5 965.46 106.59C965.839 106.614 966.213 106.691 966.57 106.82Z" fill="white"/>
<path d="M1228.91 236.18C1228.36 236.1 1227.83 235.952 1227.32 235.74L1222.85 234.19C1220.92 233.49 1218.6 232.54 1215.85 231.47C1213.1 230.4 1210.11 229.01 1206.75 227.47C1200.08 224.38 1192.27 220.39 1183.81 215.56C1175.35 210.73 1166.26 205.05 1156.89 198.81C1138.17 186.3 1121.7 174.23 1109.58 165.81C1103.58 161.56 1098.58 158.14 1095.21 155.81L1091.3 153.08C1090.82 152.794 1090.38 152.459 1089.97 152.08C1090.48 152.288 1090.97 152.553 1091.43 152.87C1092.37 153.43 1093.73 154.29 1095.43 155.41C1098.93 157.62 1103.93 160.93 1110.05 165.09C1122.31 173.37 1138.86 185.33 1157.54 197.82C1167 204 1176 209.72 1184.42 214.59C1192.84 219.46 1200.56 223.52 1207.16 226.7C1208.81 227.51 1210.41 228.2 1211.9 228.9C1213.39 229.6 1214.8 230.28 1216.15 230.82L1223.03 233.74L1227.41 235.5C1227.93 235.689 1228.43 235.916 1228.91 236.18Z" fill="white"/>
<path d="M1064.43 440.86C1059.64 444.86 1051.37 442.55 1046.09 440.35C1040.81 438.15 1036 435 1030.73 432.68C1027.44 431.035 1023.82 430.144 1020.14 430.07C1015.75 430.18 1011.65 432.07 1007.49 433.48C997.78 436.68 992 432.14 984.37 426.56C975.737 420.209 967.664 413.13 960.24 405.4C922.7 366.48 908.09 319.69 927.59 300.88L948.73 287L1084.2 427L1064.43 440.86Z" fill="#E94C3B"/>
<path d="M937.42 350.19C947.141 376.49 964.47 399.302 987.2 415.72C994.13 420.72 1001.98 425.2 1010.51 425.24C1016.97 425.24 1023.42 422.76 1029.77 423.94C1034.93 424.94 1039.3 428.19 1043.9 430.73C1051.35 434.821 1059.66 437.08 1068.15 437.32L1064.06 440.2C1059.26 444.25 1051 441.89 1045.72 439.69C1040.44 437.49 1035.58 434.37 1030.35 432.03C1027.06 430.375 1023.44 429.48 1019.76 429.41C1015.38 429.52 1011.28 431.41 1007.11 432.82C997.41 436.02 991.62 431.48 983.99 425.9C975.358 419.547 967.286 412.468 959.86 404.74C922.33 365.82 907.71 319.03 927.22 300.22L928.9 299.1C928.565 316.51 931.454 333.831 937.42 350.19Z" fill="#CDA186"/>
<path d="M943.59 290.43C924.08 309.25 938.7 356 976.23 395C983.658 402.725 991.731 409.804 1000.36 416.16C1007.99 421.74 1013.78 426.28 1023.48 423.08C1027.65 421.7 1031.75 419.78 1036.13 419.67C1039.81 419.743 1043.43 420.634 1046.73 422.28C1051.95 424.63 1056.8 427.75 1062.09 429.95C1067.38 432.15 1075.63 434.5 1080.43 430.46C1091.59 421.04 1088.96 402.84 1085.65 390.46C1080.82 372.3 1065.27 356.18 1050.18 345.74C1043.41 341.05 1036.09 337.18 1029.31 332.49C1023.36 328.398 1017.89 323.655 1013 318.35C1007 311.78 1001.89 304.35 995.86 297.74C983 283.61 959.5 275.09 943.59 290.43Z" fill="#E94C3B"/>
<path d="M995.9 297.74C1001.9 304.34 1006.99 311.74 1013.04 318.35C1015.88 321.405 1018.91 324.271 1022.12 326.93C1015.61 324.93 1010.12 320.41 1004.55 316.3C998.79 312.01 992.65 307.99 985.71 306.16C978.77 304.33 970.85 305.02 965.21 309.45C962.043 312.134 959.553 315.525 957.94 319.35C953.419 329.103 952.324 340.097 954.83 350.55C956.92 359.01 961.37 366.72 966.46 373.8C976.145 387.28 988.218 398.871 1002.08 408C1006.02 410.697 1010.23 412.957 1014.66 414.74C1020.49 416.97 1026.99 418.05 1032.92 420C1029.72 420.817 1026.57 421.819 1023.48 423C1013.78 426.2 1007.99 421.66 1000.36 416.08C991.734 409.75 983.662 402.698 976.23 395C938.7 356 924.08 309.25 943.59 290.43C959.5 275.09 983 283.61 995.9 297.74Z" fill="#CDA186"/>
<path d="M951.55 300C936.32 314.69 950.55 354.13 983.31 388.11C989.786 394.849 996.77 401.08 1004.2 406.75C1010.75 411.75 1015.74 415.75 1023.6 413.56C1026.97 412.61 1030.27 411.21 1033.88 411.32C1036.99 411.566 1040.01 412.469 1042.74 413.97C1047.16 416.16 1051.31 418.97 1055.74 421.03C1060.17 423.09 1067.13 425.43 1070.9 422.3C1079.67 415.01 1076.66 399.81 1073.36 389.37C1068.54 374.11 1054.96 360.04 1042.03 350.69C1036.22 346.49 1030.03 342.94 1024.2 338.75C1019.11 335.089 1014.39 330.932 1010.12 326.34C1004.82 320.62 1000.3 314.22 995.02 308.48C983.73 296.19 964 288.05 951.55 300Z" fill="#F9918F"/>
<path d="M1064.81 383.56C1048.62 352.87 1043.58 358.65 1030 343C1052.39 357.66 1071.24 373.82 1075.51 401.38C1071.92 395.44 1068 389.68 1064.81 383.56Z" fill="white"/>
<path d="M960.47 294.92C958.52 297.821 956.973 300.973 955.87 304.29C952.51 314.61 953.45 325.98 956.74 336.29C960.03 346.6 965.56 356.12 971.4 365.29C974.521 370.395 978.035 375.25 981.91 379.81C986.742 385.111 992.137 389.869 998 394C997.743 393.187 997.674 392.326 997.798 391.482C997.923 390.638 998.238 389.834 998.72 389.13C1001.23 385.89 1007.89 386.87 1013.6 391.3C1019.31 395.73 1021.89 401.94 1019.38 405.17C1019.01 405.642 1018.54 406.033 1018.01 406.32L1018.6 406.58C1022.6 408.17 1026.74 409.18 1030.6 411.04C1030.87 411.17 1031.13 411.32 1031.4 411.46C1028.77 411.984 1026.19 412.679 1023.65 413.54C1015.79 415.75 1010.8 411.72 1004.25 406.74C996.822 401.067 989.839 394.836 983.36 388.1C950.59 354.1 936.36 314.68 951.6 299.99C954.077 297.573 957.13 295.828 960.47 294.92Z" fill="white"/>
<path d="M962.87 325.3C962.016 321.619 961.985 317.794 962.78 314.1C963.181 312.251 963.95 310.501 965.041 308.955C966.132 307.409 967.522 306.098 969.13 305.1C970.181 304.46 971.372 304.082 972.6 304C973.952 304.004 975.288 304.293 976.52 304.85C987.97 309.43 994.77 320.93 1003.27 329.85C1006.6 333.344 1010.29 336.481 1014.27 339.21C1020.19 343.26 1026.74 346.31 1032.66 350.35C1038.58 354.39 1044.03 359.68 1046.28 366.48C1047.7 370.75 1047.28 376.35 1043.36 378.56C1040.43 380.22 1036.71 379.3 1033.66 377.86C1024.48 373.53 1017.85 365.25 1009.54 359.42C1007.85 358.135 1005.94 357.169 1003.9 356.57C1000.8 355.8 997.55 356.49 994.37 356.79C978.35 358.35 965.61 338.9 962.87 325.3Z" fill="#E94C3B"/>
<path d="M967.65 314C966.954 317.651 966.877 321.393 967.42 325.07C968.078 328.037 969.242 330.868 970.86 333.44C975.73 341.68 983.76 348.7 993.29 349.66C997.69 350.11 1002.18 349.25 1006.54 350.05C1013.1 351.24 1018.36 355.94 1023.79 359.82C1029.22 363.7 1036 367 1042.37 365C1043.33 364.683 1044.25 364.239 1045.1 363.68C1045.56 364.609 1045.95 365.568 1046.28 366.55C1047.69 370.81 1047.28 376.41 1043.36 378.62C1040.42 380.29 1036.71 379.36 1033.66 377.92C1024.48 373.59 1017.84 365.32 1009.54 359.49C1007.85 358.2 1005.94 357.23 1003.9 356.63C1000.8 355.86 997.55 356.56 994.37 356.86C978.37 358.37 965.66 338.92 962.92 325.33C962.067 321.646 962.033 317.819 962.82 314.12C963.227 312.273 963.998 310.526 965.088 308.98C966.178 307.435 967.566 306.122 969.17 305.12L969.62 304.89C968.722 307.869 968.063 310.916 967.65 314Z" fill="#E0D3AD"/>
<path d="M976.87 319.36C973.36 321.36 973.36 328 976.87 334.2C980.38 340.4 986.1 343.79 989.62 341.79C993.14 339.79 993.13 333.15 989.62 326.95C986.11 320.75 980.39 317.36 976.87 319.36Z" fill="#F9918F"/>
<path d="M1064.91 415.64C1066.16 415.514 1067.35 415.074 1068.38 414.36C1068.96 413.887 1069.45 413.319 1069.83 412.68C1071.3 410.467 1071.88 407.781 1071.45 405.16C1071.22 403.863 1070.69 402.64 1069.9 401.588C1069.1 400.537 1068.07 399.687 1066.89 399.11C1062.15 396.97 1056.58 400.18 1051.48 399.18C1049.35 398.77 1047.43 397.64 1045.36 397.01C1044.58 396.719 1043.74 396.653 1042.93 396.82C1039.29 397.82 1041.06 402.65 1042.37 404.75C1043.68 406.85 1046.1 408.66 1048.05 410.29C1052.69 414.18 1058.81 416.54 1064.91 415.64Z" fill="#E94C3B"/>
<path d="M843 330.58C843 334.37 838 337.45 837 340.94C836 344.43 838.82 349.74 837 352.94C835.18 356.14 829.24 356.31 826.63 358.94C824.02 361.57 823.87 367.45 820.63 369.3C817.39 371.15 812.28 368.3 808.63 369.3C804.98 370.3 802.06 375.3 798.27 375.3C794.48 375.3 791.4 370.3 787.9 369.3C784.4 368.3 779.1 371.13 775.9 369.3C772.7 367.47 772.54 361.54 769.9 358.94C767.26 356.34 761.39 356.17 759.53 352.94C757.67 349.71 760.53 344.59 759.53 340.94C758.53 337.29 753.53 334.37 753.53 330.58C753.53 326.79 758.53 323.71 759.53 320.21C760.53 316.71 757.7 311.41 759.53 308.21C761.36 305.01 767.29 304.84 769.9 302.21C772.51 299.58 772.66 293.7 775.9 291.84C779.14 289.98 784.24 292.84 787.9 291.84C791.56 290.84 794.48 285.84 798.27 285.84C802.06 285.84 805.14 290.84 808.63 291.84C812.12 292.84 817.43 290.01 820.63 291.84C823.83 293.67 824 299.6 826.63 302.21C829.26 304.82 835.14 304.97 837 308.21C838.86 311.45 836 316.55 837 320.21C838 323.87 843 326.79 843 330.58Z" fill="white"/>
<path d="M837 340.94C837.93 337.45 843 334.37 843 330.58C843 326.79 838 323.71 837 320.21C836 316.71 838.83 311.42 837 308.21C835.17 305 829.24 304.84 826.64 302.21C824.04 299.58 823.87 293.81 820.74 291.9C828.18 308.8 826.1 329.63 815.21 344.59C808.68 353.59 798.78 360.59 787.73 361.45C782.361 361.754 776.983 361.038 771.88 359.34C771.19 359.13 770.51 358.9 769.88 358.66L770.07 358.83C772.68 361.43 772.83 367.34 776.07 369.19C779.31 371.04 784.42 368.19 788.07 369.19C791.72 370.19 794.65 375.19 798.44 375.19C802.23 375.19 805.31 370.19 808.8 369.19C812.29 368.19 817.6 371.02 820.8 369.19C824 367.36 824.17 361.43 826.8 358.83C829.43 356.23 835.31 356.06 837.17 352.83C839.03 349.6 836.06 344.56 837 340.94Z" fill="#ECECEC"/>
<path d="M802.08 335.86C801.187 336.303 800.18 336.462 799.194 336.313C798.209 336.165 797.292 335.717 796.57 335.03C795.951 334.397 795.52 333.604 795.328 332.74C795.135 331.876 795.188 330.976 795.48 330.14C796.74 326.14 801.79 323.4 805.84 323.38C810.49 323.38 814.41 326.98 816.44 330.89C817.435 332.8 817.962 334.92 817.978 337.074C817.993 339.228 817.497 341.355 816.53 343.28C814.27 347.63 810 349.79 805.39 350.88C802.839 351.543 800.204 351.826 797.57 351.72C794.884 351.397 792.271 350.626 789.84 349.44C787.715 348.619 785.794 347.347 784.21 345.71C782.708 343.904 781.589 341.812 780.92 339.56C779.2 334.47 778.06 328.81 778.92 323.45C779.78 318.09 782.44 313.45 787.09 310.68C791.54 308.01 796.84 307.11 801.95 306.79C802.711 306.777 803.437 306.47 803.976 305.933C804.515 305.396 804.824 304.671 804.84 303.91C804.84 303.15 804.543 302.42 804.013 301.877C803.482 301.333 802.76 301.018 802 301C796 301.37 789.83 302.44 784.55 305.48C781.887 307.042 779.565 309.124 777.721 311.601C775.878 314.078 774.551 316.9 773.82 319.9C772.07 326.74 773.08 334.06 775.25 340.68C776.161 343.756 777.643 346.633 779.62 349.16C781.7 351.534 784.316 353.378 787.25 354.54C790.365 356.024 793.697 357.003 797.12 357.44C800.634 357.645 804.157 357.253 807.54 356.28C813.54 354.74 819.18 351.28 821.88 345.48C823.197 342.638 823.819 339.524 823.695 336.394C823.572 333.265 822.706 330.209 821.17 327.48C818.06 321.92 812.03 317.38 805.44 317.63C798.68 317.89 790.84 322.74 789.64 329.84C789.296 331.664 789.447 333.546 790.076 335.292C790.706 337.037 791.792 338.582 793.221 339.766C794.65 340.95 796.37 341.73 798.202 342.024C800.034 342.319 801.912 342.117 803.64 341.44C804.359 341.209 804.964 340.715 805.335 340.057C805.706 339.399 805.815 338.625 805.64 337.89C805.27 336.52 803.54 335.28 802.09 335.89L802.08 335.86Z" fill="#E94C3B"/>
<path d="M961.06 89.27C954.3 93.27 953.8 104.92 959.94 115.2C966.08 125.48 976.55 130.53 983.31 126.49C990.07 122.45 990.57 110.85 984.42 100.57C978.27 90.29 967.82 85.23 961.06 89.27ZM979.56 120.27C974.37 123.37 967.23 120.97 963.61 114.9C959.99 108.83 961.25 101.41 966.44 98.31C971.63 95.21 978.77 97.61 982.44 103.67C986.11 109.73 984.75 117.13 979.56 120.23V120.27Z" fill="#9AD130"/>
<path d="M961.44 89.33C954.72 93.33 954.26 104.96 960.44 115.25C966.62 125.54 977 130.65 983.73 126.63C990.46 122.61 990.91 111.01 984.73 100.71C978.55 90.41 968.16 85.32 961.44 89.33ZM978.39 117.7C973.62 120.55 966.52 117.45 962.53 110.77C958.54 104.09 959.17 96.36 963.94 93.51C968.71 90.66 975.81 93.76 979.81 100.44C983.81 107.12 983.17 114.85 978.39 117.7Z" fill="#9AD130"/>
<path d="M962.5 91.11C967.98 87.84 975.82 90.37 981.97 96.75C975.78 89.18 967.23 85.88 961.44 89.33C955.65 92.78 954.52 101.89 958.25 110.92C955.54 102.48 957 94.39 962.5 91.11Z" fill="white"/>
<path d="M979.74 94.3C981.858 98.5024 982.762 103.212 982.35 107.9C982.78 112.12 981.42 115.9 978.35 117.7C975.28 119.5 971.35 118.92 967.85 116.54C963.527 114.682 959.808 111.655 957.11 107.8C957.875 110.413 958.974 112.917 960.38 115.25C966.53 125.55 976.97 130.65 983.69 126.63C990.41 122.61 990.87 111.01 984.69 100.71C983.319 98.3718 981.655 96.2178 979.74 94.3Z" fill="#9AD130"/>
<path d="M1343.81 415.81C1329.36 416.202 1314.91 414.968 1300.74 412.13L1295.83 411.13C1294.22 410.79 1292.63 410.37 1291.05 410C1287.88 409.28 1284.82 408.37 1281.8 407.56C1275.8 405.78 1270.05 403.94 1264.63 401.89C1246.15 394.897 1228.32 386.273 1211.37 376.12C1197.21 367.77 1186.17 360.39 1177.37 354.41C1168.57 348.43 1162.16 343.82 1157.45 340.46C1138.54 326.97 1147.87 333.61 1157.17 340.25C1166.47 346.89 1175.75 353.42 1156.88 340.05C1152.16 336.7 1145.72 332.05 1136.88 325.91C1132.44 322.91 1127.4 319.47 1121.58 315.84C1115.76 312.21 1109.16 308.35 1101.58 304.5C1093.2 300.307 1084.55 296.688 1075.68 293.67C1065.16 290.106 1054.44 287.184 1043.57 284.92C1031.83 282.42 1019.1 280.32 1005.29 278.6C998.39 277.71 991.19 277.02 983.72 276.42C976.25 275.82 968.46 275.51 960.4 275.42C941.925 275.136 923.472 276.785 905.34 280.34C896.249 282.182 887.292 284.635 878.53 287.68C869.799 290.689 861.24 294.175 852.89 298.12C836.4 306.062 820.407 314.999 805 324.88C789.57 334.56 774.54 344.7 759.33 354.34C744.12 363.98 728.68 373.16 712.61 380.87C704.62 384.759 696.436 388.237 688.09 391.29C679.78 394.288 671.286 396.746 662.66 398.65C645.531 402.503 627.836 403.154 610.47 400.57C593.22 397.99 576.47 391.98 562.31 382.11C556.2 377.83 551.77 374.41 548.43 372.37C545.09 370.33 542.97 369.58 542 370.37C541.03 371.16 541.34 373.54 543.51 377.12C546.95 382.325 551.398 386.79 556.59 390.25C569.383 399.027 583.759 405.236 598.92 408.53C611.863 411.413 625.135 412.546 638.38 411.9C644.243 411.632 650.086 411.027 655.88 410.09C658.68 409.67 661.33 409.09 663.97 408.54C666.61 407.99 669.14 407.36 671.63 406.75C680.689 404.405 689.596 401.506 698.3 398.07C711.063 392.897 723.488 386.925 735.5 380.19C744.92 374.93 751.76 370.74 756.74 367.69C766.66 361.53 769.1 359.89 767.94 360.69C766.78 361.49 761.94 364.52 757.04 367.55L750.13 371.76L746 374.2L747.49 373.32C749.24 372.32 752.38 370.4 757.36 367.32C762.34 364.24 769.05 360 778 354.16C786.95 348.32 798.1 340.95 812.09 332.16C819.09 327.79 826.83 323.1 835.45 318.27C844.799 312.99 854.408 308.184 864.24 303.87C875.704 298.85 887.569 294.799 899.71 291.76C906.5 290.107 913.369 288.795 920.29 287.83C927.47 286.83 934.95 286.05 942.74 285.69C960.581 284.896 978.457 285.518 996.2 287.55C1014.01 289.402 1031.68 292.338 1049.13 296.34C1066.45 300.5 1083.33 306.17 1098.98 314.34C1114.63 322.51 1129.45 332.67 1144.15 343.15C1173.52 364.28 1203.7 385.26 1237 401C1253.65 408.986 1271.08 415.252 1289 419.7C1307.04 424.187 1325.61 426.206 1344.19 425.7C1347.73 425.575 1351.26 425.194 1354.75 424.56C1356.24 424.27 1357.6 423.97 1358.84 423.65C1359.95 423.339 1361.05 422.972 1362.12 422.55C1363.63 422.021 1365.05 421.269 1366.33 420.32C1367.21 419.55 1367.58 418.85 1367.47 418.23C1367.36 417.61 1366.77 417.1 1365.72 416.71C1364.26 416.167 1362.73 415.83 1361.17 415.71C1360.17 415.61 1359.09 415.58 1357.88 415.53C1356.67 415.48 1355.34 415.43 1353.88 415.43C1351 415.64 1347.63 415.59 1343.81 415.81Z" fill="#FFB956"/>
<path d="M744.16 373.9C746.34 372.62 748.34 371.44 750.16 370.36L755.06 367.36C758.01 365.58 760.26 364.12 762.01 363.04C765.49 360.87 766.77 360.04 766.66 360.09C772.84 356.17 780.46 351.18 789.85 345.09C799.24 339 810.4 331.68 823.91 323.64C830.67 319.64 838.01 315.42 846.1 311.28C854.741 306.803 863.606 302.771 872.66 299.2C882.959 295.141 893.566 291.914 904.38 289.55C910.12 288.24 916.13 287.28 922.33 286.39C928.53 285.5 934.99 284.95 941.65 284.63C950.56 284.14 959.51 284.08 968.46 284.38C977.41 284.68 986.36 285.38 995.28 286.32C1004.2 287.26 1013.13 288.44 1022 289.87C1030.87 291.3 1039.68 292.97 1048.39 295.01C1057.08 297.038 1065.66 299.511 1074.1 302.42C1082.49 305.34 1090.67 308.828 1098.59 312.86C1114.45 320.93 1129.26 331.14 1143.97 341.61C1173.34 362.71 1203.4 383.74 1236.52 399.52C1253.07 407.533 1270.38 413.849 1288.2 418.37C1306.1 422.934 1324.53 425.04 1343 424.63C1347.26 424.529 1351.5 424.084 1355.69 423.3C1352.16 423.68 1348.57 423.81 1344.95 423.98C1343.13 424.04 1341.31 423.98 1339.48 424.04C1338.57 424.04 1337.65 424.04 1336.73 424.04L1334 424C1332.15 423.92 1330.29 423.93 1328.43 423.77L1322.83 423.36C1319.09 422.97 1315.3 422.62 1311.52 422.02C1303.8 420.915 1296.16 419.383 1288.61 417.43C1280.94 415.43 1273.23 413.13 1265.54 410.36C1249.76 404.557 1234.45 397.536 1219.76 389.36C1204.64 381.01 1189.69 371.49 1174.76 361.25C1167.29 356.14 1159.83 350.83 1152.34 345.43C1144.85 340.03 1137.29 334.58 1129.53 329.3C1121.77 324.02 1113.78 318.93 1105.44 314.3C1097.04 309.637 1088.3 305.593 1079.31 302.2C1061.15 295.35 1041.77 290.95 1021.94 287.76C1001.85 284.37 981.546 282.445 961.18 282C939.39 281.72 917.78 283.75 897.26 289C876.74 294.25 857.48 302.69 839.43 312.45C821.38 322.21 804.43 333.28 787.81 344.13C771.19 354.98 755.01 365.76 738.53 375.22C730.29 379.95 722.03 384.43 713.65 388.43C705.386 392.387 696.928 395.929 688.31 399.04C679.92 402.062 671.333 404.508 662.61 406.36C658.317 407.307 654.013 408.063 649.7 408.63C645.387 409.197 641.103 409.567 636.85 409.74C620.355 410.535 603.847 408.464 588.06 403.62C572.91 398.88 559.14 391.45 548.14 381.71L549.85 383.39C550.46 383.96 551.11 384.52 551.79 385.11C553.13 386.31 554.68 387.45 556.31 388.67C567.117 396.289 579.152 401.995 591.89 405.54C603.044 408.683 614.538 410.459 626.12 410.83C636.238 411.182 646.366 410.512 656.35 408.83C664.941 407.326 673.428 405.279 681.76 402.7C694.783 398.517 707.464 393.335 719.69 387.2C729.85 382.15 737.81 377.59 744.16 373.9Z" fill="#F4CAAB"/>
<path d="M982.05 277.79C980.593 277.927 979.127 277.927 977.67 277.79C976.23 277.73 974.46 277.73 972.36 277.67L968.98 277.59H960.81L956.06 277.66C952.74 277.66 949.14 277.88 945.28 278.01C937.55 278.44 928.75 279.17 919.11 280.62C908.583 282.191 898.185 284.53 888 287.62C876.358 291.216 864.995 295.658 854 300.91C842.38 306.39 830.6 312.91 818.65 320.13C806.7 327.35 794.65 335.2 782.3 343.24C769.95 351.28 757.92 359.11 746.02 366.24C734.12 373.37 722.41 379.72 710.92 385.09C700.071 390.181 688.857 394.453 677.37 397.87L673.37 399.02C672.04 399.39 670.7 399.68 669.37 400.02L665.46 401.02C664.17 401.31 662.87 401.54 661.6 401.8C656.725 402.824 651.798 403.578 646.84 404.06C631.916 405.599 616.84 404.687 602.21 401.36C598.259 400.467 594.366 399.338 590.55 397.98C589.185 397.597 587.875 397.043 586.65 396.33C586.7 396.2 588.07 396.66 590.74 397.33C593.41 398 597.33 399.1 602.47 400.11C617.008 402.924 631.892 403.484 646.6 401.77C651.47 401.218 656.307 400.407 661.09 399.34C662.35 399.07 663.62 398.83 664.9 398.52L668.74 397.52C670.03 397.18 671.34 396.87 672.65 396.52L676.65 395.33C687.95 391.842 698.98 387.53 709.65 382.43C720.99 377.04 732.59 370.65 744.4 363.56C756.21 356.47 768.19 348.66 780.53 340.61C792.87 332.56 805 324.56 817 317.38C828.568 310.375 840.487 303.967 852.71 298.18C863.874 292.929 875.416 288.523 887.24 285C897.573 281.982 908.12 279.752 918.79 278.33C927.554 277.162 936.372 276.442 945.21 276.17C949.1 276.17 952.72 276.01 956.05 276.09L960.83 276.16L965.15 276.33L969.02 276.5L972.4 276.73C974.5 276.89 976.28 276.99 977.7 277.15C979.167 277.222 980.624 277.436 982.05 277.79Z" fill="white"/>
<path d="M1246.42 397.62C1245.88 397.515 1245.35 397.336 1244.86 397.09C1243.86 396.69 1242.39 396.09 1240.52 395.27C1238.65 394.45 1236.38 393.38 1233.75 392.15C1231.12 390.92 1228.16 389.45 1224.92 387.73C1208.03 378.814 1191.69 368.886 1176 358C1166.75 351.69 1158.09 345.48 1150.21 339.79C1142.33 334.1 1135.21 329.02 1129.1 324.87C1122.99 320.72 1117.98 317.5 1114.48 315.3C1110.98 313.1 1109.01 311.92 1109.08 311.8C1109.61 311.963 1110.12 312.191 1110.6 312.48C1111.6 312.97 1113.01 313.72 1114.81 314.75C1118.42 316.75 1123.57 319.85 1129.76 323.89C1135.95 327.93 1143.18 332.89 1151.1 338.54C1159.02 344.19 1167.71 350.33 1176.94 356.63C1192.6 367.459 1208.79 377.492 1225.46 386.69C1228.64 388.46 1231.59 389.95 1234.14 391.31L1240.77 394.67C1242.6 395.57 1244.02 396.28 1244.98 396.77C1245.49 396.991 1245.98 397.276 1246.42 397.62Z" fill="white"/>
<path d="M1191 391.06C1192.56 393.091 1194.32 394.954 1196.26 396.62C1222.26 418.89 1274.39 400.71 1312.69 355.99C1350.99 311.27 1360.94 256.99 1334.93 234.71C1332.81 232.881 1330.48 231.301 1328 230C1326.57 253.72 1307.81 290.86 1277.36 326.41C1247.37 361.45 1214.14 385.49 1191 391.06Z" fill="#F4DDBE"/>
<path d="M1206.34 403.18C1234.23 414.46 1278.68 395.66 1312.4 356.29C1347.11 315.75 1358.54 267.29 1340.99 242.04C1345.09 269.72 1329.81 310.13 1299.12 345.96C1269.68 380.33 1233.9 401.34 1206.34 403.18Z" fill="#F4DDBE"/>
<path d="M1334.32 234.2C1332.52 232.776 1330.58 231.521 1328.55 230.45C1327.12 254.17 1308.35 291.32 1277.91 326.86C1247.91 361.86 1214.71 385.86 1191.53 391.47C1192.74 393.051 1194.08 394.533 1195.53 395.9C1203.16 394.59 1212.46 390.55 1222.68 384.22C1222.73 384.372 1222.79 384.517 1222.88 384.65C1224.1 386.4 1229.09 385.03 1234.02 381.58C1238.95 378.13 1242.02 373.93 1240.74 372.18C1240.62 372.019 1240.47 371.883 1240.3 371.78C1255.8 359.335 1270.07 345.435 1282.92 330.27C1314.31 293.62 1333.79 256 1334.32 234.2Z" fill="white"/>
<path d="M1237.19 290.83C1201.78 332.17 1182.46 374.74 1191.02 390.57C1209.6 387.21 1246.65 362.11 1277.66 326.18C1308.25 290.76 1327.48 252.08 1328.27 229.75C1311.12 224.22 1272.34 249.79 1237.19 290.83Z" fill="#F4DDBE"/>
<path d="M1327.54 229.57C1321.61 227.66 1313.11 229.46 1303.08 234.32C1303.65 234.659 1304.19 235.043 1304.69 235.47C1318.84 247.59 1300.69 292.04 1264.09 334.75C1247.8 353.75 1230.62 369.22 1215.32 379.46C1233.89 368.27 1256.69 349.46 1276.93 326C1307.51 290.57 1326.74 251.89 1327.54 229.57Z" fill="#F4DDBE"/>
<path d="M1272.42 321.155C1293.31 296.767 1303.56 271.274 1295.31 264.215C1287.07 257.155 1263.46 271.202 1242.57 295.59C1221.68 319.977 1211.43 345.47 1219.67 352.529C1227.92 359.589 1251.53 345.542 1272.42 321.155Z" fill="#FCEF04"/>
<path d="M1287.79 262.49C1294.4 270.59 1284.79 294.31 1265.52 316.84C1247.52 337.91 1227.09 350.75 1217.15 348C1217.47 349.737 1218.36 351.319 1219.67 352.5C1227.91 359.56 1251.52 345.5 1272.41 321.13C1293.3 296.76 1303.54 271.25 1295.3 264.19C1293.48 262.64 1290.91 262.11 1287.79 262.49Z" fill="#EC8E46"/>
<path d="M1267.59 277.44C1261 282 1253.16 289.25 1245.5 298.19C1230.22 316.03 1221.63 333.74 1226.3 337.74C1229.57 340.53 1238.43 335.91 1248.68 326.81C1243.04 330.18 1238.46 331.27 1236.16 329.29C1234.77 328.1 1234.35 325.93 1234.77 323.07C1237.35 321.614 1239.63 319.675 1241.48 317.36C1245.19 313.03 1247.18 308.64 1245.92 307.56C1244.92 306.72 1242.26 308.15 1239.37 310.88C1243.03 304.226 1247.39 297.978 1252.37 292.24C1256.95 286.826 1262.05 281.87 1267.59 277.44Z" fill="white"/>
<path d="M1275.49 380.78C1277.08 374.944 1279.3 369.295 1282.09 363.93C1284.73 358.863 1287.74 353.996 1291.09 349.37C1297.29 340.985 1303.94 332.937 1311 325.26C1317.5 318 1323.5 311.15 1328.78 304.73C1334.06 298.31 1338.78 292.3 1342.88 286.73C1351.16 275.6 1357.22 266.19 1361.88 258.58C1366.54 250.97 1369.66 245.07 1371.88 240.77C1376.35 232.14 1377.25 229.77 1376.79 230.87C1376.33 231.97 1374.25 236.28 1372.02 240.51C1369.79 244.74 1367.49 248.94 1366.91 249.94C1366.33 250.94 1367.64 248.86 1372.15 240.25C1375.36 234.177 1378.25 227.942 1380.81 221.57C1382.72 216.773 1384.32 211.86 1385.61 206.86C1387.23 200.538 1388.12 194.053 1388.28 187.53C1388.37 179.647 1387.54 171.781 1385.81 164.09C1383.78 155.059 1380.95 146.225 1377.37 137.69C1373.21 127.638 1367.99 118.06 1361.79 109.12C1360.96 107.92 1360.04 106.75 1359.15 105.55C1358.26 104.35 1357.4 103.11 1356.38 101.96C1354.38 99.64 1352.48 97.2 1350.23 94.96C1345.73 90.1417 1340.79 85.7528 1335.47 81.85L1330.66 78.51L1325.59 75.51L1324.33 74.77L1323 74.14L1320.35 72.87C1319.46 72.45 1318.58 72.01 1317.69 71.6L1314.94 70.6C1311.26 69.1539 1307.49 67.9513 1303.66 67L1297.87 65.89C1296.92 65.7079 1295.96 65.5777 1295 65.5L1292 65.19C1284.19 64.5314 1276.34 64.8269 1268.6 66.07C1260.96 67.394 1253.46 69.4295 1246.2 72.15C1239 74.8519 1232.03 78.1049 1225.33 81.88C1221.95 83.7 1218.72 85.75 1215.46 87.75C1212.2 89.75 1209.11 92 1206 94.23C1193.79 103.232 1182.26 113.129 1171.51 123.84C1160.74 134.44 1150.61 145.69 1140.86 157.06C1131.11 168.43 1121.38 179.55 1110.21 188.84C1107.43 191.156 1104.54 193.325 1101.54 195.34C1100.06 196.34 1098.54 197.34 1097.01 198.28L1094.69 199.66C1093.92 200.13 1093.15 200.6 1092.34 200.99C1086.01 204.458 1079.34 207.279 1072.44 209.41C1058.64 213.814 1044.12 215.512 1029.68 214.41C1028.12 214.28 1026.68 214.21 1025.28 214.13C1023.88 214.05 1022.65 213.91 1021.46 213.86C1019.09 213.81 1017.11 213.66 1015.46 213.74C1012.19 213.93 1010.39 214.43 1010.13 215.44C1009.87 216.45 1011.19 217.92 1014.31 219.29C1016.23 220.169 1018.24 220.84 1020.31 221.29C1021.54 221.58 1022.89 221.86 1024.31 222.12C1025.73 222.38 1027.31 222.47 1029.02 222.62L1031.55 222.82L1034.06 222.88C1035.73 222.88 1037.38 223 1039.06 222.96L1043.93 222.81H1045.14L1046.33 222.71L1048.71 222.5C1051.87 222.3 1054.94 221.78 1057.97 221.36C1059.48 221.14 1060.97 220.78 1062.42 220.51C1063.87 220.24 1065.36 219.96 1066.78 219.51C1077.43 216.929 1087.68 212.944 1097.28 207.66C1105.4 203.085 1112.98 197.603 1119.86 191.32C1123.02 188.49 1125.91 185.67 1128.59 182.91C1131.27 180.15 1133.76 177.49 1136.09 174.91C1140.74 169.76 1144.79 165.04 1148.43 160.82C1152.07 156.6 1155.32 152.9 1158.25 149.65C1164.09 143.15 1168.6 138.45 1171.91 135.05C1178.57 128.29 1180.37 126.69 1179.54 127.46C1178.71 128.23 1175.37 131.46 1172.11 134.85C1168.85 138.24 1165.64 141.59 1164.87 142.42C1164.1 143.25 1165.69 141.42 1172.31 134.65C1175.63 131.26 1180.24 126.65 1186.64 120.76C1194.74 113.275 1203.28 106.289 1212.23 99.84C1218.24 95.5391 1224.5 91.6117 1230.99 88.08C1238.69 83.9113 1246.77 80.4697 1255.11 77.8C1264.75 74.6132 1274.85 73.019 1285 73.08L1289.1 73.17L1293.25 73.6L1295.35 73.82C1296.05 73.91 1296.74 74.07 1297.44 74.2L1301.68 75C1303.09 75.34 1304.48 75.79 1305.91 76.17L1308.04 76.78C1308.76 76.98 1309.44 77.3 1310.15 77.55L1314.4 79.17L1318.58 81.17C1324.96 84.4115 1330.92 88.3995 1336.36 93.05C1341.78 97.8054 1346.75 103.051 1351.2 108.72C1355.65 114.456 1359.62 120.547 1363.08 126.93C1366.59 133.316 1369.59 139.962 1372.08 146.81C1377.08 160.48 1380.56 174.86 1379.98 189.05C1379.62 196.187 1378.33 203.247 1376.14 210.05C1373.94 216.971 1371.21 223.716 1368 230.23C1355.09 256.75 1337.95 281.17 1318.82 303.81C1309.32 315.16 1298.87 325.91 1289.42 337.91C1284.6 343.922 1280.26 350.305 1276.45 357C1272.6 363.817 1269.61 371.081 1267.54 378.63C1266.05 383.61 1265.65 388.851 1266.36 394C1266.99 397.44 1268.14 399 1269.16 399C1270.18 399 1271.16 397.32 1272.01 394.27C1272.86 391.22 1273.86 386.72 1275.49 380.78Z" fill="#FFB956"/>
<path d="M1163.45 142.64C1169.06 136.64 1172.9 132.76 1175.27 130.4C1177.64 128.04 1178.57 127.18 1178.48 127.25C1182.76 123.09 1188.18 117.98 1195.18 112.04C1198.67 109.04 1202.57 105.89 1206.93 102.6C1209.1 100.93 1211.45 99.31 1213.86 97.6L1217.64 95.08L1219.64 93.79L1221.64 92.54C1227.51 88.8562 1233.61 85.5656 1239.91 82.69C1247.11 79.3193 1254.63 76.6762 1262.36 74.8C1271.11 72.6394 1280.12 71.7769 1289.12 72.24C1299.25 72.8794 1309.15 75.506 1318.26 79.97L1320.7 81.14C1321.49 81.57 1322.25 82.05 1323.04 82.5L1325.37 83.86L1326.54 84.54L1332.11 88.4L1336.33 91.81C1341.85 96.5445 1346.92 101.788 1351.46 107.47C1355.94 113.228 1359.97 119.323 1363.52 125.7L1366.1 130.55C1366.91 132.19 1367.67 133.86 1368.46 135.55C1369.25 137.24 1369.94 138.9 1370.65 140.55C1371.36 142.2 1372.08 143.92 1372.65 145.66C1375.27 152.488 1377.34 159.509 1378.87 166.66C1380.43 173.744 1381.15 180.988 1381 188.24C1380.72 195.45 1379.5 202.592 1377.35 209.48C1375.17 216.472 1372.46 223.285 1369.24 229.86C1356.39 256.52 1339.24 281.03 1320.12 303.76C1310.62 315.16 1300.18 325.89 1290.74 337.76C1285.92 343.713 1281.58 350.032 1277.74 356.66C1273.88 363.368 1270.86 370.525 1268.74 377.97C1267.74 381.432 1267.16 385 1267 388.6C1268.64 376.7 1273.42 365.02 1280.08 354.19C1286.74 343.36 1295.3 333.34 1304.25 323.38C1308.72 318.38 1313.25 313.38 1317.79 308.22C1322.33 303.06 1326.79 297.68 1331.13 292.15C1340.15 280.828 1348.5 268.984 1356.13 256.68C1360.03 250.367 1363.74 243.847 1367.25 237.12C1370.85 230.376 1374.01 223.409 1376.71 216.26C1379.46 209.022 1381.31 201.471 1382.22 193.78C1383 185.935 1382.69 178.02 1381.3 170.26C1379.89 162.336 1377.78 154.553 1375 147C1372.27 139.27 1368.89 131.781 1364.92 124.61C1356.92 110.24 1346.31 96.83 1332.79 86.72C1325.7 81.3865 1317.8 77.2176 1309.39 74.37C1301.08 71.6346 1292.38 70.2832 1283.64 70.37C1275.01 70.4932 1266.44 71.761 1258.14 74.14C1249.96 76.4864 1242.01 79.6072 1234.42 83.46C1226.94 87.2276 1219.74 91.5183 1212.86 96.3C1206.13 101.034 1199.64 106.107 1193.43 111.5C1181.39 121.948 1170.02 133.136 1159.37 145C1148.88 156.5 1139.44 168.45 1129.2 179.29C1124.19 184.679 1118.85 189.746 1113.2 194.46C1110.42 196.771 1107.52 198.94 1104.52 200.96L1102.3 202.48L1100 203.91L1097.72 205.29C1096.97 205.76 1096.21 206.21 1095.42 206.61C1083.47 213.169 1070.5 217.665 1057.05 219.91L1052.23 220.64C1050.62 220.83 1049.02 220.96 1047.42 221.12L1045.04 221.34L1042.66 221.44C1041.07 221.49 1039.5 221.59 1037.93 221.6C1034.8 221.53 1031.69 221.6 1028.64 221.29C1027.11 221.16 1025.64 221.11 1024.08 220.91L1019.6 220.33C1022.46 220.964 1025.36 221.388 1028.28 221.6C1033.83 222.058 1039.41 222.138 1044.97 221.84L1048.97 221.5C1050.29 221.36 1051.62 221.32 1052.91 221.1L1056.78 220.54L1058.68 220.27L1060.56 219.89C1069.96 218.119 1079.11 215.246 1087.84 211.33C1095.48 207.892 1102.74 203.648 1109.48 198.67C1115.25 194.336 1120.69 189.59 1125.77 184.47C1130.49 179.8 1134.58 175.28 1138.29 171.11C1142 166.94 1145.29 163.11 1148.34 159.57C1154.39 152.56 1159.37 147 1163.45 142.64Z" fill="#F4CAAB"/>
<path d="M1348.4 94.85C1347.43 94.1022 1346.5 93.2904 1345.64 92.42C1343.79 90.87 1341.24 88.42 1337.56 85.69C1336.65 85.01 1335.75 84.2 1334.68 83.51L1331.37 81.29L1329.6 80.1C1328.98 79.72 1328.33 79.37 1327.68 78.99L1323.59 76.66C1317.04 73.3034 1310.1 70.7548 1302.93 69.07C1294.23 67.176 1285.29 66.6363 1276.42 67.47C1266.31 68.4268 1256.39 70.7826 1246.93 74.47C1236.53 78.5219 1226.57 83.6144 1217.2 89.67C1207.21 96.1838 1197.71 103.423 1188.78 111.33C1170.35 127.42 1154.71 144.77 1141 160.75C1134.09 168.75 1127.44 176.14 1120.73 182.57C1114.62 188.574 1107.92 193.951 1100.73 198.62C1094.76 202.377 1088.46 205.578 1081.91 208.18L1077.69 209.74C1076.35 210.28 1074.99 210.6 1073.69 211.01C1072.39 211.42 1071.21 211.79 1070.03 212.09L1066.67 212.9C1065.6 213.15 1064.61 213.42 1063.67 213.59L1061 214.07C1059.34 214.34 1058 214.64 1056.8 214.73C1055.64 214.925 1054.46 215.002 1053.29 214.96C1054.4 214.594 1055.55 214.339 1056.71 214.2C1057.84 214.03 1059.21 213.64 1060.84 213.29L1063.47 212.7C1064.41 212.5 1065.39 212.18 1066.47 211.9L1069.78 210.99C1070.93 210.65 1072.11 210.21 1073.37 209.81C1074.63 209.41 1075.94 209.01 1077.25 208.44L1081.38 206.81C1087.77 204.101 1093.92 200.835 1099.74 197.05C1106.71 192.342 1113.21 186.967 1119.14 181C1125.71 174.58 1132.25 167.14 1139.14 159.16C1152.8 143.09 1168.5 125.56 1187.08 109.34C1196.09 101.343 1205.69 94.0354 1215.8 87.48C1225.34 81.3676 1235.48 76.2539 1246.07 72.22C1255.75 68.5005 1265.9 66.1642 1276.23 65.28C1285.32 64.5237 1294.48 65.1986 1303.36 67.28C1310.65 69.1017 1317.69 71.8296 1324.3 75.4L1328.39 77.85C1329.04 78.25 1329.7 78.63 1330.31 79.02L1332.07 80.28L1335.36 82.62C1336.42 83.35 1337.3 84.2 1338.21 84.92C1340.94 87.1302 1343.54 89.494 1346 92C1346.65 92.6291 1347.27 93.297 1347.84 94C1348.25 94.56 1348.43 94.82 1348.4 94.85Z" fill="white"/>
<path d="M1319.37 312.05C1319.58 311.638 1319.84 311.258 1320.16 310.92L1322.6 307.86C1324.75 305.21 1327.84 301.38 1331.6 296.59C1341.39 284.113 1350.47 271.092 1358.79 257.59C1368.43 241.72 1376.01 226.59 1380.1 215.05C1381.73 210.473 1383.07 205.797 1384.1 201.05C1384.81 197.67 1385.1 195.78 1385.2 195.79C1385.25 196.257 1385.23 196.728 1385.15 197.19C1385.09 198.1 1384.88 199.43 1384.62 201.19C1383.78 206.009 1382.57 210.756 1381 215.39C1377.1 227.15 1369.62 242.39 1359.94 258.33C1351.61 271.882 1342.39 284.867 1332.34 297.2C1328.49 301.93 1325.27 305.67 1323 308.2C1321.87 309.48 1321 310.46 1320.36 311.1C1319.72 311.74 1319.41 312.08 1319.37 312.05Z" fill="white"/>
<path d="M45.9497 287.221C45.4157 271.559 44.9708 257.055 44.6149 243.707C44.4369 230.359 44.3479 217.189 44.3479 204.197C44.3479 191.205 44.4369 178.213 44.6149 165.221C44.9708 152.051 45.5047 137.991 46.2166 123.041H91.3327C90.6208 131.05 89.9979 139.148 89.464 147.335C95.515 139.682 102.723 133.364 111.088 128.38C119.452 123.219 129.33 120.639 140.72 120.639C151.932 120.639 161.098 122.507 168.217 126.245C175.514 129.982 181.209 135.143 185.302 141.728C189.574 148.313 192.599 155.877 194.379 164.42C196.337 172.785 197.582 181.861 198.116 191.65C198.65 201.26 198.917 210.96 198.917 220.748C198.917 231.427 198.739 241.66 198.383 251.449C198.027 261.237 197.671 269.424 197.315 276.009C196.959 282.594 196.692 286.509 196.514 287.755H151.665C152.021 280.458 152.377 272.716 152.733 264.53C153.089 256.165 153.445 247.978 153.801 239.969C154.157 231.783 154.335 224.397 154.335 217.812C154.335 179.904 148.195 160.949 135.915 160.949C125.77 160.949 116.516 165.399 108.151 174.297C99.9643 183.018 93.1124 194.052 87.5952 207.4C87.5952 209.18 87.5952 210.96 87.5952 212.739C87.5952 221.282 87.5952 230.181 87.5952 239.435C87.7732 248.512 87.9512 257.233 88.1292 265.597C88.4851 273.784 88.7521 280.903 88.93 286.954L45.9497 287.221Z" fill="black"/>
<path d="M304.289 289.891C290.051 289.891 277.593 287.577 266.914 282.95C256.414 278.322 247.693 272.004 240.752 263.996C233.812 255.809 228.65 246.465 225.269 235.965C221.887 225.465 220.197 214.43 220.197 202.862C220.197 191.116 222.243 180.259 226.337 170.293C230.608 160.149 236.392 151.339 243.689 143.864C251.164 136.389 259.885 130.605 269.851 126.512C279.817 122.24 290.674 120.105 302.42 120.105C314.7 120.105 326.09 122.24 336.591 126.512C347.091 130.783 356.257 136.745 364.087 144.398C371.918 152.051 377.969 161.038 382.241 171.361C386.69 181.683 388.915 192.896 388.915 204.998C388.915 231.872 381.529 252.783 366.757 267.733C351.985 282.505 331.163 289.891 304.289 289.891ZM304.022 246.643C317.014 246.643 326.891 242.995 333.654 235.698C340.595 228.401 344.066 217.901 344.066 204.197C344.066 191.917 340.328 182.039 332.853 174.564C325.378 167.09 315.59 163.352 303.488 163.352C296.191 163.352 289.517 165.31 283.466 169.225C277.415 172.963 272.521 178.035 268.783 184.442C265.224 190.671 263.444 197.612 263.444 205.265C263.444 212.028 264.779 218.613 267.448 225.02C270.296 231.427 274.745 236.677 280.796 240.77C286.847 244.686 294.589 246.643 304.022 246.643Z" fill="black"/>
<path d="M489.126 289.891C474.889 289.891 462.431 287.577 451.752 282.95C441.252 278.322 432.531 272.004 425.59 263.996C418.649 255.809 413.488 246.465 410.107 235.965C406.725 225.465 405.034 214.43 405.034 202.862C405.034 191.116 407.081 180.259 411.174 170.293C415.446 160.149 421.23 151.339 428.527 143.864C436.002 136.389 444.722 130.605 454.689 126.512C464.655 122.24 475.512 120.105 487.258 120.105C499.538 120.105 510.928 122.24 521.428 126.512C531.929 130.783 541.094 136.745 548.925 144.398C556.756 152.051 562.807 161.038 567.078 171.361C571.528 181.683 573.752 192.896 573.752 204.998C573.752 231.872 566.367 252.783 551.595 267.733C536.823 282.505 516 289.891 489.126 289.891ZM488.86 246.643C501.852 246.643 511.729 242.995 518.492 235.698C525.433 228.401 528.903 217.901 528.903 204.197C528.903 191.917 525.166 182.039 517.691 174.564C510.216 167.09 500.428 163.352 488.326 163.352C481.029 163.352 474.355 165.31 468.304 169.225C462.253 172.963 457.358 178.035 453.621 184.442C450.061 190.671 448.282 197.612 448.282 205.265C448.282 212.028 449.617 218.613 452.286 225.02C455.134 231.427 459.583 236.677 465.634 240.77C471.685 244.686 479.427 246.643 488.86 246.643Z" fill="black"/>
<path d="M661.951 289.09C652.696 289.09 643.62 287.488 634.721 284.284C626.001 281.081 618.081 276.098 610.962 269.335C604.021 262.75 598.504 254.474 594.41 244.508C590.317 234.363 588.27 222.528 588.27 209.002C588.27 193.696 590.584 180.526 595.211 169.492C600.017 158.28 606.335 149.114 614.165 141.995C621.996 134.698 630.717 129.27 640.327 125.711C649.938 122.151 659.548 120.372 669.159 120.372C674.854 120.372 680.282 120.817 685.443 121.706C690.605 122.418 695.41 123.486 699.859 124.91C700.393 111.918 701.016 98.837 701.728 85.667C702.618 72.4971 703.597 59.5051 704.664 46.691L749.514 49.6276C748.09 64.3993 746.844 80.3279 745.776 97.4132C744.708 114.321 743.907 131.584 743.373 149.203C743.018 166.823 742.84 183.997 742.84 200.726C742.84 216.388 743.018 231.338 743.373 245.575C743.907 259.635 744.53 272.449 745.242 284.018L699.058 287.488C698.88 284.106 698.791 280.814 698.791 277.611C693.63 280.992 687.935 283.751 681.706 285.886C675.655 288.022 669.07 289.09 661.951 289.09ZM631.251 206.599C631.251 215.854 633.031 223.151 636.59 228.49C640.149 233.651 644.51 237.3 649.671 239.435C654.832 241.571 659.815 242.639 664.621 242.639C670.316 242.639 676.011 241.393 681.706 238.901C687.401 236.41 692.74 232.05 697.724 225.82C697.724 223.685 697.724 221.638 697.724 219.68C697.724 205.265 697.902 190.493 698.257 175.365C689.893 168.068 680.816 164.42 671.028 164.42C666.934 164.42 662.574 165.043 657.947 166.289C653.319 167.534 648.959 169.759 644.866 172.963C640.95 175.988 637.658 180.259 634.988 185.777C632.497 191.116 631.251 198.057 631.251 206.599Z" fill="black"/>
<path d="M822.969 289.09C813.181 289.09 805.083 286.954 798.676 282.683C792.447 278.589 787.463 272.894 783.726 265.597C780.167 258.3 777.497 249.936 775.717 240.503C774.116 231.071 773.048 221.015 772.514 210.337C772.158 199.481 771.98 188.624 771.98 177.768C771.98 168.335 772.247 158.013 772.781 146.801C773.315 135.41 773.938 123.931 774.649 112.363C775.539 100.617 776.429 89.5824 777.319 79.26C778.387 68.9376 779.366 59.95 780.256 52.2972L828.575 52.8311C827.151 61.9077 825.817 72.2301 824.571 83.7983C823.325 95.1886 822.257 106.757 821.367 118.503C820.655 130.249 820.032 141.106 819.499 151.072C819.143 161.038 818.965 168.958 818.965 174.831C818.965 191.027 819.232 203.752 819.766 213.006C820.477 222.261 821.456 228.846 822.702 232.761C824.126 236.499 825.995 238.368 828.308 238.368C831.334 238.368 834.626 236.499 838.186 232.761C841.745 228.846 845.216 224.486 848.597 219.68L871.289 264.796C865.771 270.848 859.186 276.365 851.534 281.348C843.881 286.509 834.359 289.09 822.969 289.09Z" fill="black"/>
<path d="M974.846 289.357C957.76 289.357 942.722 285.975 929.73 279.212C916.916 272.627 906.86 263.373 899.563 251.449C892.444 239.524 888.885 225.731 888.885 210.07C888.885 200.637 890.487 190.76 893.69 180.437C896.894 169.937 902.055 160.149 909.174 151.072C916.293 141.995 925.636 134.61 937.204 128.914C948.951 123.219 963.188 120.372 979.918 120.372C992.02 120.372 1002.16 121.706 1010.35 124.376C1018.72 127.046 1025.48 130.516 1030.64 134.787C1035.98 139.059 1039.98 143.597 1042.65 148.402C1045.5 153.208 1047.37 157.835 1048.26 162.284C1049.33 166.556 1049.86 170.115 1049.86 172.963C1049.86 190.226 1042.56 203.574 1027.97 213.006C1013.55 222.261 993.088 226.888 966.57 226.888C960.519 226.888 954.735 226.621 949.218 226.087C943.878 225.554 938.895 224.931 934.268 224.219C937.649 233.117 943.256 239.702 951.086 243.974C958.917 248.067 967.015 250.114 975.38 250.114C987.482 250.114 998.16 247.978 1007.41 243.707C1016.67 239.257 1025.39 232.494 1033.58 223.418L1057.34 257.589C1051.64 262.216 1045.23 267.021 1038.11 272.004C1031.17 276.988 1022.63 281.081 1012.49 284.284C1002.34 287.666 989.795 289.357 974.846 289.357ZM980.719 160.416C970.218 160.416 960.964 163.085 952.955 168.424C944.946 173.763 939.073 180.793 935.336 189.514C939.785 190.226 944.145 190.849 948.417 191.383C952.866 191.739 957.226 191.917 961.498 191.917C965.413 191.917 969.862 191.561 974.846 190.849C980.007 190.137 984.99 189.069 989.795 187.645C994.779 186.222 998.872 184.442 1002.08 182.306C1005.28 179.993 1006.88 177.323 1006.88 174.297C1006.88 172.874 1006.17 171.094 1004.75 168.958C1003.32 166.823 1000.74 164.865 997.003 163.085C993.266 161.305 987.838 160.416 980.719 160.416Z" fill="black"/>
<path d="M1156.51 290.158C1144.4 290.158 1133.19 288.734 1122.87 285.886C1112.55 283.039 1103.2 279.39 1094.84 274.941C1086.47 270.492 1079 265.775 1072.41 260.792L1096.44 222.083C1103.91 229.024 1111.12 234.363 1118.06 238.101C1125 241.838 1132.21 244.419 1139.69 245.842C1147.34 247.266 1155.62 247.978 1164.51 247.978C1172.17 247.978 1178.31 246.999 1182.93 245.042C1187.56 242.906 1189.87 240.236 1189.87 237.033C1189.87 234.363 1187.65 232.316 1183.2 230.893C1178.75 229.291 1173.06 227.956 1166.12 226.888C1159.17 225.642 1151.88 224.13 1144.22 222.35C1133.37 219.502 1123.22 216.21 1113.79 212.473C1104.36 208.735 1096.71 203.663 1090.83 197.256C1085.14 190.849 1082.29 182.306 1082.29 171.628C1082.29 163.085 1084.34 155.61 1088.43 149.203C1092.52 142.618 1097.95 137.19 1104.71 132.919C1111.66 128.469 1119.49 125.177 1128.21 123.041C1136.93 120.906 1145.92 119.838 1155.17 119.838C1171.19 119.838 1184.98 121.795 1196.55 125.711C1208.3 129.448 1219.51 134.432 1230.19 140.661L1205.89 177.501C1200.55 173.763 1194.41 170.56 1187.47 167.89C1180.71 165.043 1173.86 162.907 1166.92 161.483C1160.15 159.882 1153.84 159.081 1147.96 159.081C1141.56 159.081 1136.48 160.06 1132.75 162.017C1129.19 163.975 1127.41 166.734 1127.41 170.293C1127.41 172.429 1129.63 174.475 1134.08 176.433C1138.71 178.213 1147.43 180.615 1160.24 183.641C1167.9 185.421 1175.99 187.289 1184.54 189.247C1193.08 191.027 1201.09 193.607 1208.56 196.989C1216.21 200.192 1222.35 204.909 1226.98 211.138C1231.79 217.189 1234.19 225.287 1234.19 235.431C1234.19 252.516 1227.34 265.864 1213.63 275.475C1199.93 285.263 1180.89 290.158 1156.51 290.158Z" fill="black"/>
</svg>
