<svg xmlns="http://www.w3.org/2000/svg" viewBox="0 0 134.63 354.37"><defs><style>.cls-1{isolation:isolate;}.cls-2{fill:#e94c3b;}.cls-3{fill:#fff;}.cls-4{mix-blend-mode:multiply;}.cls-5{fill:#e0dec9;}.cls-6{fill:none;stroke:#021223;stroke-linecap:round;stroke-linejoin:round;stroke-width:2px;}</style></defs><title>left chopstick</title><g class="cls-1"><g id="Layer_2" data-name="Layer 2"><g id="OBJECTS"><polygon class="cls-2" points="105.95 54.08 123.86 1.08 111.54 2.86 93.71 56.49 105.95 54.08"/><polygon class="cls-3" points="111.87 2.86 94.04 56.49 96.77 55.95 115.13 2.39 111.87 2.86"/><polygon class="cls-2" points="105.95 54.08 115.06 67.78 133.63 15.51 123.98 1 105.95 54.08"/><g class="cls-4"><path class="cls-5" d="M127.06,15.3c-2,7.78-5,15.26-7.72,22.85-1.43,4.07-2.75,8.18-4.08,12.29s-2.59,8.05-3.66,12.14l3.46,5.19,18.57-52.26-4.94-7.44C128.21,10.5,127.68,12.91,127.06,15.3Z"/></g><polygon class="cls-2" points="115.06 67.78 102.38 70.19 93.71 56.49 105.95 54.08 115.06 67.78"/><polygon class="cls-6" points="105.95 54.08 123.86 1.08 111.54 2.86 93.71 56.49 105.95 54.08"/><polygon class="cls-6" points="105.95 54.08 115.06 67.78 133.63 15.51 123.98 1 105.95 54.08"/><polygon class="cls-6" points="115.06 67.78 102.38 70.19 93.71 56.49 105.95 54.08 115.06 67.78"/><path class="cls-5" d="M110.62,67.94,8.64,350.77A3.94,3.94,0,0,1,1.2,348.2L95.54,62.73a8,8,0,1,1,15.15,5Z"/><path class="cls-3" d="M95.16,62.73.82,348.2a3.91,3.91,0,0,0,1.4,4.37L102.59,57.26A8,8,0,0,0,95.16,62.73Z"/><g class="cls-4"><path class="cls-5" d="M10.29,335.55A39.31,39.31,0,0,1,1.74,351.7a3.84,3.84,0,0,0,1.87,1.43,3.92,3.92,0,0,0,5-2.36l102-282.83.07-.21a8,8,0,0,0-4-9.65Z"/></g><path class="cls-6" d="M110.62,67.94,8.64,350.77A3.94,3.94,0,0,1,1.2,348.2L95.54,62.73a8,8,0,1,1,15.15,5Z"/><path class="cls-6" d="M81.06,107.86a10.5,10.5,0,0,1,12.74,4.81l-.41-.64"/><path class="cls-6" d="M84.45,97.38a10.53,10.53,0,0,1,12.74,4.82l-.42-.65"/></g></g></g></svg>