<svg xmlns="http://www.w3.org/2000/svg" viewBox="0 0 928.91 382.06"><defs><style>.cls-1{isolation:isolate;}.cls-2{fill:#9ad130;}.cls-3{fill:#fff;}.cls-4{mix-blend-mode:multiply;}.cls-10,.cls-11,.cls-17,.cls-21,.cls-5,.cls-8,.cls-9{fill:none;stroke:#021223;stroke-linecap:round;stroke-linejoin:round;}.cls-5{stroke-width:2px;}.cls-6{fill:#ffb956;}.cls-7{fill:#f4caab;}.cls-8{stroke-width:1.7px;}.cls-9{stroke-width:1.61px;}.cls-10{stroke-width:2.09px;}.cls-11{stroke-width:1.72px;}.cls-12{fill:#e94c3b;}.cls-13{fill:#cda186;}.cls-14{fill:#f9918f;}.cls-15{fill:#e0d3ad;}.cls-16{fill:#ececec;}.cls-17{stroke-width:2.28px;}.cls-18{fill:#f4ddbe;}.cls-19{fill:#fcef04;}.cls-20{fill:#ec8e46;}.cls-21{stroke-width:1.89px;}</style></defs><title>noodles 1</title><g class="cls-1"><g id="Layer_2" data-name="Layer 2"><g id="OBJECTS"><path class="cls-2" d="M384.81,154.15c-6.22-1.85-13.55,4.32-16.35,13.79s0,18.63,6.18,20.48,13.54-4.33,16.35-13.79S391,156,384.81,154.15Zm-8.46,28.5c-4.78-1.42-7.31-7.09-5.65-12.68s6.87-8.95,11.65-7.54,7.31,7.1,5.65,12.68S381.13,184.07,376.35,182.65Z"/><path class="cls-2" d="M385,154.42c-6.18-1.84-13.48,4.36-16.29,13.84s-.08,18.66,6.1,20.49,13.49-4.36,16.3-13.84S391.17,156.25,385,154.42Zm-7.75,26.11c-4.39-1.3-6.47-7.34-4.65-13.49s6.87-10.08,11.26-8.78,6.48,7.35,4.65,13.5S381.63,181.84,377.23,180.53Z"/><path class="cls-3" d="M384.5,156.05c5,1.5,7.88,7.66,7.44,15,1.14-8-1.63-15-7-16.59s-11.48,2.8-14.88,10.1C373.71,158.17,379.45,154.55,384.5,156.05Z"/><g class="cls-4"><path class="cls-2" d="M392.18,168.29a20.82,20.82,0,0,1-6.79,9.17c-2.33,2.62-5.37,3.9-8.16,3.07s-4.64-3.56-5.16-7a20.86,20.86,0,0,1-.69-11.4,26.43,26.43,0,0,0-2.69,6.15c-2.82,9.48-.08,18.66,6.1,20.49s13.49-4.36,16.3-13.84A26.44,26.44,0,0,0,392.18,168.29Z"/></g><path class="cls-5" d="M391.09,174.91c-2.81,9.48-10.11,15.68-16.3,13.84s-8.92-11-6.1-20.49S378.8,152.58,385,154.42,393.9,165.43,391.09,174.91Z"/><path class="cls-5" d="M388.49,171.76c-1.82,6.15-6.86,10.08-11.26,8.77s-6.47-7.34-4.65-13.49,6.87-10.08,11.26-8.78S390.32,165.61,388.49,171.76Z"/><path class="cls-5" d="M372.25,168.14A8.23,8.23,0,1,1,388,172.82"/><line class="cls-5" x1="375.07" y1="188.64" x2="377.35" y2="180.95"/><line class="cls-5" x1="380.13" y1="188.36" x2="382.63" y2="179.93"/><line class="cls-5" x1="384.74" y1="185.36" x2="388.52" y2="172.15"/><line class="cls-5" x1="370.6" y1="185.54" x2="373.1" y2="177.11"/><line class="cls-5" x1="368.37" y1="180.5" x2="372.41" y2="167.37"/><path class="cls-2" d="M623.83,35.63c6.13-2.71,7.76-12.47,3.64-21.8S615-.86,608.9,1.85s-7.76,12.47-3.64,21.8S617.7,38.34,623.83,35.63ZM611.41,7.54c4.71-2.08,10.5.69,12.93,6.19s.59,11.65-4.12,13.73-10.5-.69-12.93-6.19S606.7,9.62,611.41,7.54Z"/><path class="cls-2" d="M623.51,35.53c6.1-2.69,7.7-12.45,3.57-21.8S614.65-1,608.56,1.69s-7.7,12.46-3.56,21.8S617.42,38.23,623.51,35.53ZM612.14,9.79c4.33-1.91,10,1.45,12.69,7.51s1.34,12.53-3,14.44-10-1.44-12.69-7.51S607.81,11.71,612.14,9.79Z"/><path class="cls-3" d="M622.8,33.92c-5,2.2-11.33-.75-15.86-6.79,4.44,7,11.32,10.73,16.57,8.4s7.16-9.88,5-17.91C629.87,25,627.77,31.72,622.8,33.92Z"/><g class="cls-4"><path class="cls-2" d="M608.57,29.43a21.51,21.51,0,0,1-.79-11.76c.07-3.61,1.61-6.66,4.36-7.88s6-.29,8.75,2.08a21.52,21.52,0,0,1,8.17,8.5,27.37,27.37,0,0,0-2-6.64c-4.14-9.34-12.43-14.73-18.52-12s-7.7,12.46-3.56,21.8A26.91,26.91,0,0,0,608.57,29.43Z"/></g><path class="cls-5" d="M605,23.49c-4.14-9.34-2.54-19.1,3.56-21.8s14.38,2.7,18.52,12,2.53,19.11-3.57,21.8S609.13,32.84,605,23.49Z"/><ellipse class="cls-5" cx="616.99" cy="20.77" rx="8.57" ry="12" transform="translate(44.27 251.22) rotate(-23.85)"/><path class="cls-5" d="M624.35,16.22a8.5,8.5,0,1,1-15.55,6.87"/><line class="cls-5" x1="608.42" y1="1.96" x2="611.77" y2="9.54"/><line class="cls-5" x1="604.62" y1="5.57" x2="608.29" y2="13.88"/><line class="cls-5" x1="603" y1="11.02" x2="608.86" y2="23.94"/><line class="cls-5" x1="614.01" y1="1.42" x2="617.68" y2="9.73"/><line class="cls-5" x1="619.13" y1="3.89" x2="624.74" y2="16.93"/><path class="cls-6" d="M844.28,315.36c-15.32,3.31-29.69,6-43.19,7.64-6.73,1-13.26,1.55-19.53,2.21-3.13.36-6.22.5-9.25.72l-8.9.6a416.78,416.78,0,0,1-59.2-1c-2-.18-4-.26-6-.51l-5.66-.67-5.37-.62c-1.74-.21-3.44-.38-5.08-.67l-9.32-1.47-4.26-.68-4-.79-7.24-1.45c-2.25-.47-4.37-.83-6.29-1.34l-9.93-2.44-3.77-.93-3-.88-4.06-1.19-1.62-.47,4.52,1.32,3.6,1.05c1.28.39,2.66.67,4,1,10.92,2.67,21.84,5.35-.33-.08-2.79-.62-6-1.63-9.85-2.73s-8.24-2.33-13.2-4.06c-2.49-.86-5.16-1.67-7.94-2.71s-5.75-2.09-8.87-3.24l-9.83-3.85c-3.45-1.36-7-2.91-10.84-4.47-15.16-6.36-33-14.68-54.42-24.47-10.72-4.87-22.35-10.07-35.1-15.31a435.82,435.82,0,0,0-42-14.93c-2.17-.7-4.38-1.26-6.57-1.86s-4.39-1.22-6.6-1.75c-4.44-1-8.85-2.16-13.32-3C413,230.44,404,229.1,395,227.91a336.55,336.55,0,0,0-54.51-2.17c-9.1.29-18.17,1.18-27.21,2.2-4.5.65-9,1.16-13.51,2-2.24.39-4.49.74-6.73,1.16l-6.69,1.35c-8.91,1.87-17.75,4-26.47,6.6l-3.27.94-3.26,1-6.5,2c-4.3,1.43-8.61,2.84-12.87,4.38-34.2,12.12-66.89,27.56-99.79,42q-12.33,5.43-24.75,10.59t-25,9.84c-8.4,3.07-16.84,6-25.37,8.63s-17.12,5-25.8,7c-3.77.88-7.06,1.64-9.85,2.45s-5.14,1.44-7,2.13a24.54,24.54,0,0,0-4.12,1.89c-.9.57-1.31,1.1-1.25,1.56s.62.85,1.66,1.14a16.7,16.7,0,0,0,4.56.45,66.68,66.68,0,0,0,7.44-.5c2.94-.43,6.37-1,10.22-1.87,31.11-7.3,56.79-17.35,78.58-26.33s39.75-17.33,54.84-24,27.24-12,37-16,17.1-6.87,22.48-8.84,8.76-3.17,10.62-3.84,2.24-.79,1.59-.57c-1.28.48-6.62,2.28-11.89,4.29s-10.54,4-11.83,4.53l1.58-.62c1.86-.71,5.19-2.05,10.57-4s12.77-4.65,22.77-7.88a361.35,361.35,0,0,1,38.69-10.13,327.33,327.33,0,0,1,139.41,2.33c2.16.54,4.34,1,6.48,1.59l6.45,1.74c2.15.54,4.26,1.26,6.4,1.89l6.39,1.95c4.22,1.44,8.45,2.84,12.65,4.35l6.28,2.33c2.09.77,4.18,1.56,6.25,2.4,16.65,6.54,33,13.92,49.36,21.41s32.71,15.11,49.41,22.1,33.71,13.42,51.25,18.29A393.22,393.22,0,0,0,683.6,330.8a427.42,427.42,0,0,0,54.32,3.7c36.33.31,72.57-4.1,108-11.88,7.67-1.8,13.33-3.52,16.93-5.27s5.28-3.08,5-4-2.36-1.3-6.3-1A136.39,136.39,0,0,0,844.28,315.36Z"/><g class="cls-4"><path class="cls-7" d="M214.73,261.63c9.25-3.64,15.4-5.9,19.2-7.26l5.12-1.81c6.81-2.34,15.32-5.23,26-8.18a340.68,340.68,0,0,1,38.89-8.51c1.92-.31,3.9-.55,5.9-.83s4.05-.6,6.15-.8c4.18-.43,8.52-1,13-1.25,9-.75,18.74-1,29.13-1a314.86,314.86,0,0,1,33.23,2.08,327.42,327.42,0,0,1,37.12,6.41,364,364,0,0,1,51.06,16.13c16.68,6.53,33.06,13.89,49.42,21.38s32.7,15.12,49.36,22.12a447.38,447.38,0,0,0,51.11,18.37,390.89,390.89,0,0,0,53.19,11.28,435,435,0,0,0,54.2,3.82l6.8,0h3.4l3.39-.11c4.53-.16,9.06-.26,13.58-.48l13.55-.91c4.52-.35,9-.89,13.52-1.32A521.43,521.43,0,0,0,844.66,322c4.85-1.12,8.81-2.19,12.07-3.19-6.8,1.5-13.7,3.2-20.85,4.49-3.56.66-7.14,1.44-10.8,2L814,327.13l-2.8.45-2.82.38-5.68.73c-3.81.48-7.65,1.05-11.54,1.37l-11.77,1.13-12,.76c-4,.31-8.1.38-12.2.5s-8.23.29-12.4.2-8.35,0-12.58-.12L717.49,332a427.2,427.2,0,0,1-52.33-6.31,375.86,375.86,0,0,1-53.38-14.15c-17.8-6.09-35.42-13.67-53.17-21.63S523,273.39,504.67,265.37A489.54,489.54,0,0,0,447.82,244a323.36,323.36,0,0,0-31.43-7.69q-15.79-3-31.6-4.47c-10.52-.94-21-1.37-31.41-1.37s-20.7.62-30.87,1.57l-7.61.82-7.53,1c-2.52.31-5,.76-7.48,1.18s-5,.8-7.42,1.34c-9.85,1.86-19.48,4.29-28.93,7s-18.7,5.7-27.74,8.94-17.92,6.66-26.6,10.22c-17.37,7.1-34.06,14.63-50.27,21.93S127,298.86,111.6,305.33s-30.42,12.29-45.15,17.1a375.26,375.26,0,0,1-43,11.56c2.94-.43,6.33-1.08,10.2-1.91,13.21-3,25.46-6.63,36.84-10.41S92.43,313.92,102.2,310c19.55-7.83,36.18-15.28,50.56-21.67s26.48-11.81,36.71-16.22S208,264.32,214.73,261.63Z"/></g><path class="cls-3" d="M468.53,246.69a3.68,3.68,0,0,1-1.08-.24c-.7-.19-1.74-.51-3.1-.93-2.73-.82-6.68-2.2-11.89-3.65a341.33,341.33,0,0,0-44.56-10.12c-9.53-1.45-20-2.78-31.35-3.46a345.5,345.5,0,0,0-36.18-.33,332.36,332.36,0,0,0-39.76,4.14,350.86,350.86,0,0,0-41.8,9.64c-14.11,4.11-27.63,8.95-40.54,13.92s-25.2,10.18-36.86,15.22c-23.29,10.14-44.1,19.57-61.79,27S87.43,310.68,77.3,314.08c-5.08,1.67-9,3-11.73,3.73-1.35.39-2.38.67-3.08.85a4.55,4.55,0,0,1-1.08.22,3.93,3.93,0,0,1,1-.45c.68-.26,1.69-.62,3-1.08C68.08,316.43,72,315,77,313.2c10-3.66,24.4-9.33,42-16.92s38.29-17.16,61.57-27.42c11.65-5.11,23.95-10.35,36.89-15.39s26.52-9.89,40.71-14a349.28,349.28,0,0,1,42.1-9.66,328.43,328.43,0,0,1,40-4,339.49,339.49,0,0,1,36.41.55c11.39.77,21.93,2.21,31.5,3.77A309.29,309.29,0,0,1,452.74,241c5.18,1.59,9.09,3.12,11.77,4.09,1.33.49,2.34.88,3,1.15A3.82,3.82,0,0,1,468.53,246.69Z"/><path class="cls-8" d="M844.28,315.36c-15.32,3.31-29.69,6-43.19,7.64-6.73,1-13.26,1.55-19.53,2.21-3.13.36-6.22.5-9.25.72l-8.9.6a416.78,416.78,0,0,1-59.2-1c-2-.18-4-.26-6-.51l-5.66-.67-5.37-.62c-1.74-.21-3.44-.38-5.08-.67l-9.32-1.47-4.26-.68-4-.79-7.24-1.45c-2.25-.47-4.37-.83-6.29-1.34l-9.93-2.44-3.77-.93-3-.88-4.06-1.19-1.62-.47,4.52,1.32,3.6,1.05c1.28.39,2.66.67,4,1,10.92,2.67,21.84,5.35-.33-.08-2.79-.62-6-1.63-9.85-2.73s-8.24-2.33-13.2-4.06c-2.49-.86-5.16-1.67-7.94-2.71s-5.75-2.09-8.87-3.24l-9.83-3.85c-3.45-1.36-7-2.91-10.84-4.47-15.16-6.36-33-14.68-54.42-24.47-10.72-4.87-22.35-10.07-35.1-15.31a435.82,435.82,0,0,0-42-14.93c-2.17-.7-4.38-1.26-6.57-1.86s-4.39-1.22-6.6-1.75c-4.44-1-8.85-2.16-13.32-3C413,230.44,404,229.1,395,227.91a336.55,336.55,0,0,0-54.51-2.17c-9.1.29-18.17,1.18-27.21,2.2-4.5.65-9,1.16-13.51,2-2.24.39-4.49.74-6.73,1.16l-6.69,1.35c-8.91,1.87-17.75,4-26.47,6.6l-3.27.94-3.26,1-6.5,2c-4.3,1.43-8.61,2.84-12.87,4.38-34.2,12.12-66.89,27.56-99.79,42q-12.33,5.43-24.75,10.59t-25,9.84c-8.4,3.07-16.84,6-25.37,8.63s-17.12,5-25.8,7c-3.77.88-7.06,1.64-9.85,2.45s-5.14,1.44-7,2.13a24.54,24.54,0,0,0-4.12,1.89c-.9.57-1.31,1.1-1.25,1.56s.62.85,1.66,1.14a16.7,16.7,0,0,0,4.56.45,66.68,66.68,0,0,0,7.44-.5c2.94-.43,6.37-1,10.22-1.87,31.11-7.3,56.79-17.35,78.58-26.33s39.75-17.33,54.84-24,27.24-12,37-16,17.1-6.87,22.48-8.84,8.76-3.17,10.62-3.84,2.24-.79,1.59-.57c-1.28.48-6.62,2.28-11.89,4.29s-10.54,4-11.83,4.53l1.58-.62c1.86-.71,5.19-2.05,10.57-4s12.77-4.65,22.77-7.88a361.35,361.35,0,0,1,38.69-10.13,327.33,327.33,0,0,1,139.41,2.33c2.16.54,4.34,1,6.48,1.59l6.45,1.74c2.15.54,4.26,1.26,6.4,1.89l6.39,1.95c4.22,1.44,8.45,2.84,12.65,4.35l6.28,2.33c2.09.77,4.18,1.56,6.25,2.4,16.65,6.54,33,13.92,49.36,21.41s32.71,15.11,49.41,22.1,33.71,13.42,51.25,18.29A393.22,393.22,0,0,0,683.6,330.8a427.42,427.42,0,0,0,54.32,3.7c36.33.31,72.57-4.1,108-11.88,7.67-1.8,13.33-3.52,16.93-5.27s5.28-3.08,5-4-2.36-1.3-6.3-1A136.39,136.39,0,0,0,844.28,315.36Z"/><path class="cls-3" d="M745,329.28a8.7,8.7,0,0,1-1.64.12l-4.68.1-7.42.08-9.83-.29a383.11,383.11,0,0,1-56.53-6.21A357.09,357.09,0,0,1,610,308.26l-9.2-3.46c-2.71-1-5-2-6.89-2.77l-4.32-1.83a8.07,8.07,0,0,1-1.47-.71,8.58,8.58,0,0,1,1.56.48l4.41,1.61c1.91.69,4.22,1.62,6.95,2.57l9.25,3.28a390.65,390.65,0,0,0,54.83,14.43,422.07,422.07,0,0,0,56.34,6.55l9.8.48,7.41.13,4.68.13A7.32,7.32,0,0,1,745,329.28Z"/><path class="cls-6" d="M780.29,344.36a248.76,248.76,0,0,1-76.49,1.07c-1.36-.19-2.71-.33-4-.56l-3.93-.68c-2.6-.45-5.15-.84-7.61-1.41L681,341.22l-6.88-1.76c-2.26-.53-4.42-1.22-6.54-1.84s-4.22-1.21-6.22-1.9c-4-1.4-7.85-2.59-11.42-4.06-7.22-2.7-13.59-5.53-19.3-8.14l-8-3.84-7.07-3.61c-8.84-4.58-15.32-8.25-20-10.93-9.43-5.38-11.79-6.82-10.68-6.15s5.74,3.38,10.39,6l6.54,3.69,3.93,2.14c1.14.59-1.32-.62-10.75-6-4.72-2.68-11.17-6.44-19.79-11.54S555.7,281.71,542,274c-6.85-3.82-14.4-8-22.9-12.2l-6.52-3.23-6.91-3.16-3.57-1.62-3.7-1.54c-2.51-1-5-2.1-7.66-3.13a274,274,0,0,0-76.68-17.36c-8.6-.66-17.23-.9-25.85-.81s-17.24.73-25.82,1.64c-4.27.57-8.57,1-12.8,1.8s-8.52,1.36-12.71,2.32-8.43,1.72-12.58,2.8-8.35,2-12.47,3.2c-33.1,9-65,21.22-97.65,29.89A309.66,309.66,0,0,1,164.65,282a214.08,214.08,0,0,1-50.15-.81,232.33,232.33,0,0,1-48.74-12c-2-.64-3.91-1.51-5.86-2.27l-5.84-2.35-5.71-2.62c-1.9-.9-3.84-1.7-5.68-2.7l-5.58-2.9c-.92-.49-1.87-.94-2.78-1.46l-2.72-1.58-5.43-3.16c-1.81-1.06-3.53-2.26-5.3-3.38-1.53-1-3-1.89-4.34-2.71s-2.57-1.69-3.73-2.4c-2.33-1.44-4.35-2.55-6-3.37C3.51,236.49,1.51,236,1,236.7s.35,2.53,2.87,5.38a64.81,64.81,0,0,0,5.22,4.76c1.09.89,2.28,1.86,3.6,2.84s2.81,1.92,4.39,2.94A232,232,0,0,0,54.57,272.3l4.53,1.83c1.5.61,3,1.21,4.49,1.7l8.81,3.06L81,281.45c.7.2,1.4.42,2.1.61l2.11.52,4.15,1,4.07,1c1.35.3,2.69.54,4,.81,2.66.51,5.26,1.06,7.82,1.5,5.15.71,10.06,1.6,14.82,2l7,.66,6.69.33c4.36.31,8.52.17,12.49.2a209.73,209.73,0,0,0,21.48-1.34l4.67-.48c1.51-.18,3-.43,4.39-.64l8-1.22c5-.94,9.33-1.81,13.1-2.56l9.6-2.25c2.69-.59,4.83-1.21,6.56-1.66l3.94-1c1.84-.49,2.2-.58,1.56-.42l-4.37,1.17c-2.13.54-4.72,1.31-7.37,1.89-5.28,1.21-10.54,2.53-11.85,2.71l1.59-.31,10.58-2.48c2.69-.59,5.81-1.51,9.52-2.47s7.94-2.19,12.78-3.61l3.75-1.09,4-1.22,8.63-2.68L267,263.82c7.43-2.42,15.56-5.07,24.51-7.85,4.46-1.42,9.15-2.75,14-4.23,2.45-.7,5-1.37,7.51-2.08s5.16-1.46,7.84-2.08l8.19-2c2.78-.68,5.65-1.22,8.55-1.85l4.41-.92c1.49-.29,3-.52,4.52-.78,3-.49,6.13-1.08,9.3-1.52A270.31,270.31,0,0,1,397,238a264.93,264.93,0,0,1,98.1,20.5,414.61,414.61,0,0,1,45.27,22.64c14.74,8.37,29.27,17.22,44,25.79s29.79,16.88,45.44,24l5.93,2.58c2,.83,3.92,1.77,6,2.51l6,2.34,3,1.18,3.06,1.05,6.13,2.09c2.06.65,4.13,1.24,6.2,1.86,4.12,1.31,8.33,2.25,12.51,3.35a258.76,258.76,0,0,0,25.45,4.68c8.55,1.23,17.17,1.81,25.78,2.19l6.48.11c1.07,0,2.15,0,3.23,0l3.24-.07,6.47-.15,6.46-.39,3.23-.2c1.07-.08,2.15-.2,3.22-.3l6.44-.65c2.14-.24,4.28-.58,6.42-.87s4.28-.56,6.39-1c14.81-2.55,21.56-6.5,21.1-8.14S794.65,341.89,780.29,344.36Z"/><g class="cls-4"><path class="cls-7" d="M194.51,283.65c1.17-.24,2.29-.44,3.36-.67l3-.71,5.26-1.24c3.17-.71,5.61-1.37,7.47-1.87l5-1.33c3.34-.85,7-2,11.2-3.18s8.73-2.63,13.78-4.19c10.1-3.15,22-7.1,36.18-11.66s30.51-9.68,49.69-14.18c2.4-.56,4.85-1,7.34-1.57s5-1.12,7.59-1.51c5.18-.86,10.5-1.84,16.05-2.47a266.22,266.22,0,0,1,134,18.25,415.19,415.19,0,0,1,45.41,22.57c14.77,8.35,29.3,17.21,44,25.78s29.73,16.89,45.32,24.08c3.92,1.74,7.86,3.46,11.81,5.13l6,2.34c2,.77,4,1.59,6,2.25l6.1,2.09c2,.72,4.12,1.25,6.17,1.89s4.11,1.28,6.21,1.78l6.25,1.6c2.08.56,4.19,1,6.29,1.42s4.2.93,6.32,1.31l6.36,1.1c1.06.18,2.11.39,3.18.53l3.2.43,6.39.84,6.43.6,3.21.3,3.22.18,6.44.36c8.6.21,17.21.26,25.8-.36,4.29-.2,8.57-.69,12.85-1.11,2.15-.18,4.27-.56,6.4-.83s4.27-.55,6.38-.94a104.93,104.93,0,0,0,11.59-2.56,259.68,259.68,0,0,1-41,5,254.38,254.38,0,0,1-44.37-1.93,259.42,259.42,0,0,1-46.15-10.36,311.55,311.55,0,0,1-45.85-19.66c-30.31-15.58-59.83-35.56-92.35-52.53-2-1.1-4.1-2.07-6.15-3.1s-4.12-2.07-6.2-3.06l-6.31-2.89-3.17-1.45-3.21-1.34a256.81,256.81,0,0,0-26.4-9.61c-2.27-.66-4.52-1.39-6.81-2l-6.88-1.81c-4.62-1.08-9.27-2.17-14-3a276.8,276.8,0,0,0-28.59-3.92,271.42,271.42,0,0,0-60.61,1.95c-19.76,3-38.86,8-57.39,13.66S260,264,242.17,269.53s-35.45,10.59-53,14a241.27,241.27,0,0,1-52,4.71,234,234,0,0,1-48.73-6.46A233.33,233.33,0,0,1,8.64,245.64c1.1.87,2.31,1.81,3.62,2.79s2.8,1.92,4.37,2.95a220.71,220.71,0,0,0,31.89,17.43,225.92,225.92,0,0,0,30.13,11.08,227.13,227.13,0,0,0,51.63,9c3.76.15,7.37.45,10.85.37h7.59c.81,0,1.62-.08,2.42-.11l9.17-.47,8.35-.86,3.88-.39,3.68-.55,6.81-1c2.16-.29,4.17-.73,6.08-1.1Z"/></g><path class="cls-3" d="M434.23,235.16a39.78,39.78,0,0,1-4.1-.37c-2.68-.26-6.62-.78-11.72-1.15l-4-.33-4.45-.24c-1.56-.07-3.17-.21-4.86-.24l-5.25-.13-2.77-.06h-2.86l-6,0c-4.11.17-8.46.26-13,.64a256.16,256.16,0,0,0-29.62,3.74l-4,.69-4,.86-8.26,1.76-8.42,2.1c-1.42.36-2.86.69-4.3,1.08l-4.32,1.2C289,251.06,264.09,260,237.67,268.1l-4.94,1.52-4.93,1.44c-3.29.93-6.53,1.94-9.78,2.77l-9.68,2.55-9.59,2.24c-1.58.39-3.17.7-4.75,1l-4.72.92-4.68.91-4.66.71-4.61.69c-1.53.22-3,.5-4.57.62l-9,.9a229.28,229.28,0,0,1-33.82.16c-2.64-.2-5.23-.52-7.77-.76l-3.78-.38-3.69-.56-7.14-1.08-6.79-1.37a215.26,215.26,0,0,1-40.67-12.62c-4.68-1.87-8.15-3.66-10.53-4.82-1.19-.58-2.09-1-2.69-1.35a3.73,3.73,0,0,1-.88-.53,3.24,3.24,0,0,1,1,.32c.63.25,1.56.63,2.78,1.15,2.44,1,6,2.68,10.67,4.41a230.92,230.92,0,0,0,40.66,11.87l6.75,1.28,7.1,1,3.66.52,3.76.35c2.52.21,5.09.51,7.71.68a231.88,231.88,0,0,0,33.52-.36l8.92-.94c1.51-.12,3-.4,4.53-.62l4.57-.71,4.62-.71,4.64-.92,4.69-.93c1.57-.3,3.15-.62,4.72-1l9.52-2.24,9.63-2.55c3.24-.83,6.47-1.84,9.74-2.77l4.91-1.43,4.93-1.53c26.36-8.12,51.32-17,74.68-23.18l4.35-1.18c1.44-.38,2.89-.71,4.32-1.06l8.48-2.06,8.31-1.72,4.06-.84,4-.66a248.12,248.12,0,0,1,29.83-3.49c4.59-.33,9-.37,13.1-.48,2.07,0,4.08,0,6,0l2.88,0,2.78.1,5.27.22c1.7.07,3.32.24,4.88.34l4.46.34,4,.43c5.11.51,9,1.17,11.71,1.58,1.33.2,2.34.38,3,.54A3.7,3.7,0,0,1,434.23,235.16Z"/><path class="cls-9" d="M780.29,344.36a248.76,248.76,0,0,1-76.49,1.07c-1.36-.19-2.71-.33-4-.56l-3.93-.68c-2.6-.45-5.15-.84-7.61-1.41L681,341.22l-6.88-1.76c-2.26-.53-4.42-1.22-6.54-1.84s-4.22-1.21-6.22-1.9c-4-1.4-7.85-2.59-11.42-4.06-7.22-2.7-13.59-5.53-19.3-8.14l-8-3.84-7.07-3.61c-8.84-4.58-15.32-8.25-20-10.93-9.43-5.38-11.79-6.82-10.68-6.15s5.74,3.38,10.39,6l6.54,3.69,3.93,2.14c1.14.59-1.32-.62-10.75-6-4.72-2.68-11.17-6.44-19.79-11.54S555.7,281.71,542,274c-6.85-3.82-14.4-8-22.9-12.2l-6.52-3.23-6.91-3.16-3.57-1.62-3.7-1.54c-2.51-1-5-2.1-7.66-3.13a274,274,0,0,0-76.68-17.36c-8.6-.66-17.23-.9-25.85-.81s-17.24.73-25.82,1.64c-4.27.57-8.57,1-12.8,1.8s-8.52,1.36-12.71,2.32-8.43,1.72-12.58,2.8-8.35,2-12.47,3.2c-33.1,9-65,21.22-97.65,29.89A309.66,309.66,0,0,1,164.65,282a214.08,214.08,0,0,1-50.15-.81,232.33,232.33,0,0,1-48.74-12c-2-.64-3.91-1.51-5.86-2.27l-5.84-2.35-5.71-2.62c-1.9-.9-3.84-1.7-5.68-2.7l-5.58-2.9c-.92-.49-1.87-.94-2.78-1.46l-2.72-1.58-5.43-3.16c-1.81-1.06-3.53-2.26-5.3-3.38-1.53-1-3-1.89-4.34-2.71s-2.57-1.69-3.73-2.4c-2.33-1.44-4.35-2.55-6-3.37C3.51,236.49,1.51,236,1,236.7s.35,2.53,2.87,5.38a64.81,64.81,0,0,0,5.22,4.76c1.09.89,2.28,1.86,3.6,2.84s2.81,1.92,4.39,2.94A232,232,0,0,0,54.57,272.3l4.53,1.83c1.5.61,3,1.21,4.49,1.7l8.81,3.06L81,281.45c.7.2,1.4.42,2.1.61l2.11.52,4.15,1,4.07,1c1.35.3,2.69.54,4,.81,2.66.51,5.26,1.06,7.82,1.5,5.15.71,10.06,1.6,14.82,2l7,.66,6.69.33c4.36.31,8.52.17,12.49.2a209.73,209.73,0,0,0,21.48-1.34l4.67-.48c1.51-.18,3-.43,4.39-.64l8-1.22c5-.94,9.33-1.81,13.1-2.56l9.6-2.25c2.69-.59,4.83-1.21,6.56-1.66l3.94-1c1.84-.49,2.2-.58,1.56-.42l-4.37,1.17c-2.13.54-4.72,1.31-7.37,1.89-5.28,1.21-10.54,2.53-11.85,2.71l1.59-.31,10.58-2.48c2.69-.59,5.81-1.51,9.52-2.47s7.94-2.19,12.78-3.61l3.75-1.09,4-1.22,8.63-2.68L267,263.82c7.43-2.42,15.56-5.07,24.51-7.85,4.46-1.42,9.15-2.75,14-4.23,2.45-.7,5-1.37,7.51-2.08s5.16-1.46,7.84-2.08l8.19-2c2.78-.68,5.65-1.22,8.55-1.85l4.41-.92c1.49-.29,3-.52,4.52-.78,3-.49,6.13-1.08,9.3-1.52A270.31,270.31,0,0,1,397,238a264.93,264.93,0,0,1,98.1,20.5,414.61,414.61,0,0,1,45.27,22.64c14.74,8.37,29.27,17.22,44,25.79s29.79,16.88,45.44,24l5.93,2.58c2,.83,3.92,1.77,6,2.51l6,2.34,3,1.18,3.06,1.05,6.13,2.09c2.06.65,4.13,1.24,6.2,1.86,4.12,1.31,8.33,2.25,12.51,3.35a258.76,258.76,0,0,0,25.45,4.68c8.55,1.23,17.17,1.81,25.78,2.19l6.48.11c1.07,0,2.15,0,3.23,0l3.24-.07,6.47-.15,6.46-.39,3.23-.2c1.07-.08,2.15-.2,3.22-.3l6.44-.65c2.14-.24,4.28-.58,6.42-.87s4.28-.56,6.39-1c14.81-2.55,21.56-6.5,21.1-8.14S794.65,341.89,780.29,344.36Z"/><path class="cls-3" d="M686.3,344.48a7.31,7.31,0,0,1-1.54-.21c-1-.18-2.46-.43-4.34-.82-3.74-.91-9.18-2.1-15.76-4.1-3.32-.89-6.86-2.2-10.71-3.45-1.93-.61-3.85-1.43-5.87-2.18l-6.21-2.39c-8.38-3.55-17.54-7.62-26.85-12.52-4.7-2.35-9.17-4.89-13.54-7.23s-8.49-4.79-12.43-7.09c-7.88-4.59-14.93-8.83-20.84-12.39l-14-8.47-3.8-2.33a7.12,7.12,0,0,1-1.28-.88,8.62,8.62,0,0,1,1.4.67c.91.47,2.22,1.2,3.9,2.15,3.38,1.89,8.24,4.66,14.2,8.15l21,12.16c3.95,2.28,8.13,4.6,12.45,7s8.83,4.86,13.52,7.2c9.29,4.89,18.4,9,26.72,12.57l6.17,2.42c2,.76,3.91,1.6,5.83,2.22,3.82,1.29,7.32,2.64,10.62,3.58,6.53,2.1,11.92,3.41,15.62,4.44l4.29,1A7.79,7.79,0,0,1,686.3,344.48Z"/><path class="cls-6" d="M918.19,245.66A80.91,80.91,0,0,1,900,239.28a63.94,63.94,0,0,1-13.6-9.1,53.34,53.34,0,0,1-14.65-20.45,50.23,50.23,0,0,1-2.54-9.08,63.64,63.64,0,0,1-.84-7.67,91.74,91.74,0,0,1,.13-10.66c.37-5.13.58-6.46.5-5.84s-.33,3.17-.49,5.69-.23,5-.23,5.62-.08-.66.24-5.78c.16-2.56.49-6.09,1.09-10.88s1.49-10.89,2.29-18.6,1.45-16.92,1.6-27.92c0-2.75,0-5.61,0-8.58s-.1-6-.32-9.37a56,56,0,0,0-1.61-10.58,35.63,35.63,0,0,0-2-5.61c-.41-.94-1-1.83-1.46-2.74-.27-.46-.51-.92-.81-1.36l-.93-1.29a34.71,34.71,0,0,0-10.64-9.45A48,48,0,0,0,843,70.57a66.45,66.45,0,0,0-13.24-1.83c-2.21-.07-4.45-.06-6.63.05s-4.34.26-6.49.54c-17.27,1.93-33.7,8-48.67,16s-28.68,18.22-41.61,28.86c-6.46,5.32-12.78,10.77-19.06,16.21L698,138.51a41.92,41.92,0,0,1-9.28,6.21,61,61,0,0,0-5.9,2.86A8.76,8.76,0,0,0,681,148.9a3.05,3.05,0,0,0-1,1.5,2.31,2.31,0,0,0,.37,1.81,5.08,5.08,0,0,0,2.25,1.66c2.18.93,5.93,1,9.78-.82a47.77,47.77,0,0,0,9.83-6.26c1.43-1.13,2.73-2.28,4-3.33l3.66-3.16,13.3-11.47c8.21-7,15.21-12.68,21.2-17.2a214.22,214.22,0,0,1,24.3-16.22c2.25-1.29,3.69-2,4.48-2.46s1-.5.68-.35c-.55.29-2.81,1.46-5,2.73s-4.4,2.6-4.94,2.9.58-.39,5.07-3c1.13-.64,2.47-1.4,4.07-2.23s3.45-1.79,5.58-2.84a141.28,141.28,0,0,1,16.7-6.8c3.5-1.13,7.36-2.27,11.66-3.21a105.28,105.28,0,0,1,14.18-2.1,67.56,67.56,0,0,1,8-.21,59.32,59.32,0,0,1,8.42.88,49.19,49.19,0,0,1,8.62,2.37,33.57,33.57,0,0,1,8.07,4.46,23.25,23.25,0,0,1,6.68,7.88,30.62,30.62,0,0,1,2.89,10.4,117.55,117.55,0,0,1,.6,12q.09,6.14-.06,12.28c-.21,8.17-.73,16.35-1.59,24.48s-2.17,16.3-3,24.79-1,17.3.73,26.13a56.47,56.47,0,0,0,4.18,12.85,59.87,59.87,0,0,0,7,11.46,65.8,65.8,0,0,0,9.2,9.67,70.67,70.67,0,0,0,10.83,7.7,86.74,86.74,0,0,0,24.44,9.4,17.45,17.45,0,0,0,8.55.12c2-.6,3-1.62,3.13-2.76C928.09,249.61,924.87,247.12,918.19,245.66Z"/><g class="cls-4"><path class="cls-7" d="M762.8,97.65c3.86-2.36,6.47-3.79,8.07-4.69l2.18-1.15c2.89-1.53,6.55-3.35,11.16-5.33a129,129,0,0,1,17-6,103.14,103.14,0,0,1,24.13-3.72,59.16,59.16,0,0,1,14.53,1.36,42.48,42.48,0,0,1,7.53,2.35,31.79,31.79,0,0,1,7.11,4,24.63,24.63,0,0,1,7.12,8.13,30.13,30.13,0,0,1,3.15,10.66,111.83,111.83,0,0,1,.66,12q.1,6.16,0,12.32-.3,12.3-1.56,24.57c-.82,8.15-2.15,16.32-3,24.75s-1.09,17.13.57,25.81a56.39,56.39,0,0,0,10.79,24A67.9,67.9,0,0,0,891.81,244a85.58,85.58,0,0,0,24.1,9.42,25.74,25.74,0,0,0,5.89.72,93.27,93.27,0,0,1-19.7-5.93,73.59,73.59,0,0,1-18.93-11.63,63.4,63.4,0,0,1-14.88-18.41,54,54,0,0,1-4.47-11.58A63.08,63.08,0,0,1,862,194.07c-.45-8.49.51-17.07,1.65-25.65.58-4.29,1.2-8.6,1.72-12.95s.93-8.76,1.27-13.2q1-13.35.8-27.17a95.74,95.74,0,0,0-.89-13.7A28.49,28.49,0,0,0,861.71,89c-.36-.47-.69-1-1.06-1.43l-1.19-1.32c-.2-.22-.39-.44-.6-.65l-.66-.6-1.31-1.19a34.6,34.6,0,0,0-6-3.85,46,46,0,0,0-13.59-4.27A62.42,62.42,0,0,0,823.13,75a98.21,98.21,0,0,0-14,1.78,110.71,110.71,0,0,0-13.4,3.5A127.31,127.31,0,0,0,783,85.11a167.11,167.11,0,0,0-23.16,12.57c-14.44,9.33-27,19.9-38.5,30-5.75,5-11.25,10-16.57,14.74a73.59,73.59,0,0,1-8.48,6.77,41.66,41.66,0,0,1-4.8,2.7,25.92,25.92,0,0,1-5.38,1.78,16.83,16.83,0,0,0,5.34-1.35,43.45,43.45,0,0,0,8.44-5.05c1.23-.94,2.42-1.88,3.53-2.83l3.2-2.75,11.72-10.13c7.31-6.31,13.71-11.65,19.34-16.12A255.8,255.8,0,0,1,762.8,97.65Z"/></g><path class="cls-3" d="M870.08,95.69c-.1,0-.39-.67-1-2a34.57,34.57,0,0,0-3-5.53,31.53,31.53,0,0,0-6.6-7.23,39.76,39.76,0,0,0-11.05-6.13,59,59,0,0,0-14.65-3.19,80,80,0,0,0-17,.42,127.68,127.68,0,0,0-37,10.6A198.91,198.91,0,0,0,746.72,102C737.1,108.76,728.85,115.41,722,121s-12.37,10.24-16.23,13.33-6.06,4.74-6.19,4.59,1.82-2.08,5.44-5.45,8.92-8.21,15.63-14.06,14.88-12.7,24.51-19.7A190.42,190.42,0,0,1,778.69,80a125.52,125.52,0,0,1,37.89-10.61c1.52-.16,3-.32,4.51-.38s2.95-.19,4.44-.18a68.88,68.88,0,0,1,8.59.41,58.9,58.9,0,0,1,15.15,3.68,40.07,40.07,0,0,1,11.36,6.81,30.55,30.55,0,0,1,6.51,7.89,26.4,26.4,0,0,1,2.55,5.93C870.08,94.91,870.18,95.66,870.08,95.69Z"/><path class="cls-10" d="M918.19,245.66A80.91,80.91,0,0,1,900,239.28a63.94,63.94,0,0,1-13.6-9.1,53.34,53.34,0,0,1-14.65-20.45,50.23,50.23,0,0,1-2.54-9.08,63.64,63.64,0,0,1-.84-7.67,91.74,91.74,0,0,1,.13-10.66c.37-5.13.58-6.46.5-5.84s-.33,3.17-.49,5.69-.23,5-.23,5.62-.08-.66.24-5.78c.16-2.56.49-6.09,1.09-10.88s1.49-10.89,2.29-18.6,1.45-16.92,1.6-27.92c0-2.75,0-5.61,0-8.58s-.1-6-.32-9.37a56,56,0,0,0-1.61-10.58,35.63,35.63,0,0,0-2-5.61c-.41-.94-1-1.83-1.46-2.74-.27-.46-.51-.92-.81-1.36l-.93-1.29a34.71,34.71,0,0,0-10.64-9.45A48,48,0,0,0,843,70.57a66.45,66.45,0,0,0-13.24-1.83c-2.21-.07-4.45-.06-6.63.05s-4.34.26-6.49.54c-17.27,1.93-33.7,8-48.67,16s-28.68,18.22-41.61,28.86c-6.46,5.32-12.78,10.77-19.06,16.21L698,138.51a41.92,41.92,0,0,1-9.28,6.21,61,61,0,0,0-5.9,2.86A8.76,8.76,0,0,0,681,148.9a3.05,3.05,0,0,0-1,1.5,2.31,2.31,0,0,0,.37,1.81,5.08,5.08,0,0,0,2.25,1.66c2.18.93,5.93,1,9.78-.82a47.77,47.77,0,0,0,9.83-6.26c1.43-1.13,2.73-2.28,4-3.33l3.66-3.16,13.3-11.47c8.21-7,15.21-12.68,21.2-17.2a214.22,214.22,0,0,1,24.3-16.22c2.25-1.29,3.69-2,4.48-2.46s1-.5.68-.35c-.55.29-2.81,1.46-5,2.73s-4.4,2.6-4.94,2.9.58-.39,5.07-3c1.13-.64,2.47-1.4,4.07-2.23s3.45-1.79,5.58-2.84a141.28,141.28,0,0,1,16.7-6.8c3.5-1.13,7.36-2.27,11.66-3.21a105.28,105.28,0,0,1,14.18-2.1,67.56,67.56,0,0,1,8-.21,59.32,59.32,0,0,1,8.42.88,49.19,49.19,0,0,1,8.62,2.37,33.57,33.57,0,0,1,8.07,4.46,23.25,23.25,0,0,1,6.68,7.88,30.62,30.62,0,0,1,2.89,10.4,117.55,117.55,0,0,1,.6,12q.09,6.14-.06,12.28c-.21,8.17-.73,16.35-1.59,24.48s-2.17,16.3-3,24.79-1,17.3.73,26.13a56.47,56.47,0,0,0,4.18,12.85,59.87,59.87,0,0,0,7,11.46,65.8,65.8,0,0,0,9.2,9.67,70.67,70.67,0,0,0,10.83,7.7,86.74,86.74,0,0,0,24.44,9.4,17.45,17.45,0,0,0,8.55.12c2-.6,3-1.62,3.13-2.76C928.09,249.61,924.87,247.12,918.19,245.66Z"/><path class="cls-3" d="M878.8,226.3a9.23,9.23,0,0,1-2-2,47,47,0,0,1-4.56-6.29,49,49,0,0,1-4.79-10.48,56.35,56.35,0,0,1-2.44-14,93.94,93.94,0,0,1,.39-14.31c.42-4.4,1-8.35,1.47-11.68s.95-6,1.27-7.89a11.47,11.47,0,0,1,.65-2.88,10.71,10.71,0,0,1-.06,3c-.14,1.89-.42,4.61-.79,8s-.81,7.29-1.14,11.66a103.49,103.49,0,0,0-.27,14.1,59.41,59.41,0,0,0,2.26,13.64,53.93,53.93,0,0,0,4.38,10.35C876.29,223.09,879,226.13,878.8,226.3Z"/><path class="cls-6" d="M856.68,192.9c-15.8-2.31-30.49-4.45-44-6.88q-10.17-1.83-19.49-3.89c-6.22-1.38-12.15-2.88-17.81-4.44a251.54,251.54,0,0,1-30.57-10.63c-9.11-3.89-17.19-8-24.45-11.92-14.49-7.94-25.68-15.27-34.57-21.17s-15.41-10.51-20.18-13.84c-19.07-13.39-9.68-6.79-.29-.2l10.56,7.33c1.14.78-1.3-.86-10.84-7.53l-20.11-14.11c-4.4-3.08-9.38-6.54-15-10.35s-12-8-19.12-12.46-15.09-9.21-24.11-13.93a251.79,251.79,0,0,0-30.44-13.63,194.93,194.93,0,0,0-38.07-9.76,176.55,176.55,0,0,0-45.55-.62,173.18,173.18,0,0,0-27.35,5.4c-8.92,2.49-17.9,5.71-26.15,10.67A54.86,54.86,0,0,0,407.6,70a43.55,43.55,0,0,0-4.68,5.84c-.65,1.07-1.33,2.14-1.91,3.26s-1.16,2.24-1.6,3.43a43.37,43.37,0,0,0-3,14.57,60.38,60.38,0,0,0,1.22,14.44,32.29,32.29,0,0,0,.77,3.51c.3,1.16.56,2.33.9,3.48.76,2.26,1.41,4.57,2.36,6.76a89.71,89.71,0,0,0,6.3,12.78,117.14,117.14,0,0,0,17.43,22.11c3.26,3.37,6.77,6.45,10.29,9.49s7.24,5.88,11,8.5c1.9,1.33,3.75,2.73,5.69,4l5.81,3.81c3.95,2.4,7.88,4.85,11.94,7A273.16,273.16,0,0,0,495,205.25c8.45,3.65,17,7,25.72,10S538.15,221,547,223.49s17.7,4.75,26.59,6.88c35.58,8.47,71.48,14.72,106.49,24a133.06,133.06,0,0,0,17.34,3.67c4,.43,6.13.18,6.42-.73s-1.3-2.43-4.92-4.21a89.13,89.13,0,0,0-16.92-6c-15.52-4.12-30.1-7.38-43.67-10.32l-37.75-8c-23.2-5-42.48-9.76-58.38-14.5A396.64,396.64,0,0,1,504,200.89c-9.8-4-16.94-7.47-22-10.11s-8.24-4.42-10-5.37l-1.48-.83,4.14,2.31c1,.55,2.11,1.2,3.31,1.82l3.72,1.91c1.26.64,2.51,1.31,3.72,1.9l3.41,1.63c2.08,1,3.66,1.76,4.29,2s.26.15-1.53-.72l-3.86-1.84-2.86-1.36-3.48-1.8-4.19-2.16-4.87-2.72c-.87-.49-1.79-1-2.72-1.53l-2.87-1.73c-2-1.21-4.12-2.44-6.3-3.92-8.81-5.77-19.81-13.3-31.13-25a119.25,119.25,0,0,1-8.3-9.65c-1.4-1.73-2.64-3.62-4-5.51-.64-1-1.24-2-1.87-3l-.95-1.51-.86-1.57a74.25,74.25,0,0,1-6.08-13.71A65,65,0,0,1,404,102.68,39.69,39.69,0,0,1,406.13,86a34.35,34.35,0,0,1,10.7-14.31,65.61,65.61,0,0,1,17.7-10c3.33-1.33,6.82-2.47,10.44-3.56,1.8-.56,3.65-1,5.5-1.53s3.74-.91,5.64-1.37A168.94,168.94,0,0,1,509.23,52c2.21.26,4.43.45,6.63.79l3.31.47,3.28.57c2.2.34,4.37.89,6.55,1.33,1.09.24,2.19.45,3.27.71l3.24.84a197.67,197.67,0,0,1,25.41,8.47,312.61,312.61,0,0,1,47.67,25.18c15.29,9.64,30.11,20.12,45,30.6s29.9,21,45.53,30.59a312.83,312.83,0,0,0,49.19,25.12c17.25,6.74,35.18,11.35,53.17,14.92s36.1,6.13,54.1,8.78C886.88,204.92,888,197.49,856.68,192.9Z"/><g class="cls-4"><path class="cls-7" d="M494,197.54c-9.1-4.15-14.93-7.23-18.5-9.17l-4.76-2.66a238.6,238.6,0,0,1-22.95-15,161.86,161.86,0,0,1-14-11.7,124.74,124.74,0,0,1-14.43-16,88.45,88.45,0,0,1-12.08-21.73c-.39-1-.7-2.11-1.06-3.18-.18-.54-.36-1.08-.53-1.62s-.29-1.11-.44-1.66c-.27-1.11-.56-2.24-.84-3.37s-.4-2.31-.6-3.48a49.17,49.17,0,0,1-.39-14.51,36,36,0,0,1,1.72-7.26,26,26,0,0,1,1.51-3.48l.42-.86c.15-.28.32-.55.49-.83.33-.55.65-1.12,1-1.66a39.75,39.75,0,0,1,5.13-6.12,52.4,52.4,0,0,1,6.55-5.24c9.56-6.4,21.7-10.38,34.7-13.44a169.6,169.6,0,0,1,26.54-3.94,172.9,172.9,0,0,1,26.83.29c4.45.44,8.9,1,13.3,1.76,1.1.2,2.21.36,3.31.59l3.28.7c2.19.46,4.39.91,6.55,1.52A189.93,189.93,0,0,1,560.26,64,304.87,304.87,0,0,1,608.14,89c15.35,9.61,30.19,20.09,45.08,30.57s29.87,21,45.44,30.62,31.81,18.4,49,25.2,35,11.47,53,15.08,36,6.17,54.06,8.82c5,.73,9.06,1.18,12.48,1.45-13.84-2.15-28.31-4.27-43.33-6.77s-30.57-5.5-46.37-9.79a252.5,252.5,0,0,1-47.36-17.79c-15.6-7.65-30.8-17-45.94-27.08s-30.18-21-45.7-31.87-31.56-21.61-48.7-31.11-35.47-17.55-55-22.44A169.47,169.47,0,0,0,474,49.75a171,171,0,0,0-31.88,6.68,100.57,100.57,0,0,0-15,5.82,66.7,66.7,0,0,0-6.91,3.9A49.53,49.53,0,0,0,414,70.87a41.86,41.86,0,0,0-5.33,5.66,35.75,35.75,0,0,0-4,6.6,37.64,37.64,0,0,0-3.22,14.93,55.09,55.09,0,0,0,.38,7.7c.13,1.28.4,2.54.61,3.81a37.22,37.22,0,0,0,.77,3.78,71.56,71.56,0,0,0,5.09,14.46A86.06,86.06,0,0,0,416,141a107,107,0,0,0,9.5,11.79,152,152,0,0,0,22.4,19.81,229.63,229.63,0,0,0,24.79,15.75,277.62,277.62,0,0,0,25.82,12.57c8.72,3.69,17.47,7,26.2,9.93s17.47,5.52,26.11,7.9c17.3,4.73,34.3,8.49,50.76,12s32.41,6.63,47.66,9.94,29.84,6.79,43.61,10.6c-2.84-.93-6.16-2-10-3-26.41-7-50-11.69-70.77-16.13q-15.56-3.3-29-6.35t-24.94-6.12C527.44,211.53,507.17,203.49,494,197.54Z"/></g><path class="cls-3" d="M494.57,44.82a4,4,0,0,1-1.13.11c-.74,0-1.85.1-3.29.15s-3.24.13-5.36.29-4.54.33-7.28.59a186.19,186.19,0,0,0-19.76,3.12l-2.91.63-3,.74c-2,.47-4.09,1.08-6.22,1.67s-4.28,1.32-6.51,2-4.49,1.55-6.77,2.49a79,79,0,0,0-13.84,7.1,51.45,51.45,0,0,0-6.64,5.07A42.21,42.21,0,0,0,406,75.24a37,37,0,0,0-4.48,7.9,38.88,38.88,0,0,0-2.42,9,55.47,55.47,0,0,0,.79,19.18,77.25,77.25,0,0,0,6.49,19,98.44,98.44,0,0,0,11.18,17.57,149.74,149.74,0,0,0,32,29.46,248,248,0,0,0,37.57,21.8,341.43,341.43,0,0,0,37.5,15.1c24.41,8.27,47,13.65,65.93,18s34.33,7.56,44.9,10c5.29,1.21,9.38,2.2,12.15,2.9,1.38.34,2.43.62,3.14.82a3.73,3.73,0,0,1,1,.37,3.71,3.71,0,0,1-1.11-.13l-3.19-.59-12.24-2.44c-10.63-2.17-26-5.18-45.07-9.26s-41.7-9.36-66.28-17.56a336.5,336.5,0,0,1-37.8-15.07,246.8,246.8,0,0,1-38-22,151,151,0,0,1-32.47-30,100.27,100.27,0,0,1-11.4-18,79.11,79.11,0,0,1-6.6-19.55A57.56,57.56,0,0,1,397,91.85a40.18,40.18,0,0,1,2.62-9.5A39.26,39.26,0,0,1,404.37,74a43.68,43.68,0,0,1,6.21-6.69,54.21,54.21,0,0,1,6.91-5.19A80,80,0,0,1,431.71,55c2.34-.93,4.65-1.71,6.9-2.45s4.45-1.38,6.6-2,4.25-1.16,6.3-1.6l3-.7,2.94-.59a174.39,174.39,0,0,1,20-2.73c2.75-.19,5.2-.34,7.33-.37s3.92-.08,5.38-.06,2.56,0,3.3.09A4,4,0,0,1,494.57,44.82Z"/><path class="cls-11" d="M856.68,192.9c-15.8-2.31-30.49-4.45-44-6.88q-10.17-1.83-19.49-3.89c-6.22-1.38-12.15-2.88-17.81-4.44a251.54,251.54,0,0,1-30.57-10.63c-9.11-3.89-17.19-8-24.45-11.92-14.49-7.94-25.68-15.27-34.57-21.17s-15.41-10.51-20.18-13.84c-19.07-13.39-9.68-6.79-.29-.2l10.56,7.33c1.14.78-1.3-.86-10.84-7.53l-20.11-14.11c-4.4-3.08-9.38-6.54-15-10.35s-12-8-19.12-12.46-15.09-9.21-24.11-13.93a251.79,251.79,0,0,0-30.44-13.63,194.93,194.93,0,0,0-38.07-9.76,176.55,176.55,0,0,0-45.55-.62,173.18,173.18,0,0,0-27.35,5.4c-8.92,2.49-17.9,5.71-26.15,10.67A54.86,54.86,0,0,0,407.6,70a43.55,43.55,0,0,0-4.68,5.84c-.65,1.07-1.33,2.14-1.91,3.26s-1.16,2.24-1.6,3.43a43.37,43.37,0,0,0-3,14.57,60.38,60.38,0,0,0,1.22,14.44,32.29,32.29,0,0,0,.77,3.51c.3,1.16.56,2.33.9,3.48.76,2.26,1.41,4.57,2.36,6.76a89.71,89.71,0,0,0,6.3,12.78,117.14,117.14,0,0,0,17.43,22.11c3.26,3.37,6.77,6.45,10.29,9.49s7.24,5.88,11,8.5c1.9,1.33,3.75,2.73,5.69,4l5.81,3.81c3.95,2.4,7.88,4.85,11.94,7A273.16,273.16,0,0,0,495,205.25c8.45,3.65,17,7,25.72,10S538.15,221,547,223.49s17.7,4.75,26.59,6.88c35.58,8.47,71.48,14.72,106.49,24a133.06,133.06,0,0,0,17.34,3.67c4,.43,6.13.18,6.42-.73s-1.3-2.43-4.92-4.21a89.13,89.13,0,0,0-16.92-6c-15.52-4.12-30.1-7.38-43.67-10.32l-37.75-8c-23.2-5-42.48-9.76-58.38-14.5A396.64,396.64,0,0,1,504,200.89c-9.8-4-16.94-7.47-22-10.11s-8.24-4.42-10-5.37l-1.48-.83,4.14,2.31c1,.55,2.11,1.2,3.31,1.82l3.72,1.91c1.26.64,2.51,1.31,3.72,1.9l3.41,1.63c2.08,1,3.66,1.76,4.29,2s.26.15-1.53-.72l-3.86-1.84-2.86-1.36-3.48-1.8-4.19-2.16-4.87-2.72c-.87-.49-1.79-1-2.72-1.53l-2.87-1.73c-2-1.21-4.12-2.44-6.3-3.92-8.81-5.77-19.81-13.3-31.13-25a119.25,119.25,0,0,1-8.3-9.65c-1.4-1.73-2.64-3.62-4-5.51-.64-1-1.24-2-1.87-3l-.95-1.51-.86-1.57a74.25,74.25,0,0,1-6.08-13.71A65,65,0,0,1,404,102.68,39.69,39.69,0,0,1,406.13,86a34.35,34.35,0,0,1,10.7-14.31,65.61,65.61,0,0,1,17.7-10c3.33-1.33,6.82-2.47,10.44-3.56,1.8-.56,3.65-1,5.5-1.53s3.74-.91,5.64-1.37A168.94,168.94,0,0,1,509.23,52c2.21.26,4.43.45,6.63.79l3.31.47,3.28.57c2.2.34,4.37.89,6.55,1.33,1.09.24,2.19.45,3.27.71l3.24.84a197.67,197.67,0,0,1,25.41,8.47,312.61,312.61,0,0,1,47.67,25.18c15.29,9.64,30.11,20.12,45,30.6s29.9,21,45.53,30.59a312.83,312.83,0,0,0,49.19,25.12c17.25,6.74,35.18,11.35,53.17,14.92s36.1,6.13,54.1,8.78C886.88,204.92,888,197.49,856.68,192.9Z"/><path class="cls-3" d="M756.91,174.18a6.64,6.64,0,0,1-1.59-.44l-4.47-1.55c-1.93-.7-4.25-1.65-7-2.72s-5.74-2.46-9.1-4c-6.67-3.09-14.48-7.08-22.94-11.91s-17.55-10.51-26.92-16.75c-18.72-12.51-35.19-24.58-47.31-33-6-4.25-11-7.67-14.37-10l-3.91-2.73a8,8,0,0,1-1.33-1,7.4,7.4,0,0,1,1.46.79c.94.56,2.3,1.42,4,2.54,3.5,2.21,8.5,5.52,14.62,9.68,12.26,8.28,28.81,20.24,47.49,32.73C695,142,704,147.72,712.42,152.59s16.14,8.93,22.74,12.11c1.65.81,3.25,1.5,4.74,2.2s2.9,1.38,4.25,1.92l6.88,2.92,4.38,1.76A11.1,11.1,0,0,1,756.91,174.18Z"/><path class="cls-12" d="M592.43,378.86c-4.79,4-13.06,1.69-18.34-.51S564,373,558.73,370.68a24.81,24.81,0,0,0-10.59-2.61c-4.39.11-8.49,2-12.65,3.41-9.71,3.2-15.49-1.34-23.12-6.92a187.51,187.51,0,0,1-24.13-21.16c-37.54-38.92-52.15-85.71-32.65-104.52L476.73,225,612.2,365Z"/><g class="cls-4"><path class="cls-13" d="M465.42,288.19a141.25,141.25,0,0,0,49.78,65.53c6.93,5,14.78,9.48,23.31,9.52,6.46,0,12.91-2.48,19.26-1.3,5.16,1,9.53,4.25,14.13,6.79a53.5,53.5,0,0,0,24.25,6.59l-4.09,2.88c-4.8,4.05-13.06,1.69-18.34-.51s-10.14-5.32-15.37-7.66a24.61,24.61,0,0,0-10.59-2.62c-4.38.11-8.48,2-12.65,3.41-9.7,3.2-15.49-1.34-23.12-6.92a188.08,188.08,0,0,1-24.13-21.16c-37.53-38.92-52.15-85.71-32.64-104.52l1.68-1.12A141.18,141.18,0,0,0,465.42,288.19Z"/></g><path class="cls-5" d="M592.43,378.86c-4.79,4-13.06,1.69-18.34-.51S564,373,558.73,370.68a24.81,24.81,0,0,0-10.59-2.61c-4.39.11-8.49,2-12.65,3.41-9.71,3.2-15.49-1.34-23.12-6.92a187.51,187.51,0,0,1-24.13-21.16c-37.54-38.92-52.15-85.71-32.65-104.52L476.73,225,612.2,365Z"/><path class="cls-12" d="M471.59,228.43C452.08,247.25,466.7,294,504.23,333a188.86,188.86,0,0,0,24.13,21.16c7.63,5.58,13.42,10.12,23.12,6.92,4.17-1.38,8.27-3.3,12.65-3.41a24.82,24.82,0,0,1,10.6,2.61c5.22,2.35,10.07,5.47,15.36,7.67s13.54,4.55,18.34.51c11.16-9.42,8.53-27.62,5.22-40-4.83-18.16-20.38-34.28-35.47-44.72-6.77-4.69-14.09-8.56-20.87-13.25A97,97,0,0,1,541,256.35c-6-6.57-11.11-14-17.14-20.61C511,221.61,487.5,213.09,471.59,228.43Z"/><g class="cls-4"><path class="cls-13" d="M523.9,235.74c6,6.6,11.09,14,17.14,20.61a95.58,95.58,0,0,0,9.08,8.58c-6.51-2-12-6.52-17.57-10.63-5.76-4.29-11.9-8.31-18.84-10.14s-14.86-1.14-20.5,3.29a26.45,26.45,0,0,0-7.27,9.9,47.73,47.73,0,0,0-3.11,31.2c2.09,8.46,6.54,16.17,11.63,23.25A135.9,135.9,0,0,0,530.08,346a65.63,65.63,0,0,0,12.58,6.74c5.83,2.23,12.33,3.31,18.26,5.26a85.57,85.57,0,0,0-9.44,3c-9.7,3.2-15.49-1.34-23.12-6.92A188.86,188.86,0,0,1,504.23,333C466.7,294,452.08,247.25,471.59,228.43,487.5,213.09,511,221.61,523.9,235.74Z"/></g><path class="cls-5" d="M471.59,228.43C452.08,247.25,466.7,294,504.23,333a188.86,188.86,0,0,0,24.13,21.16c7.63,5.58,13.42,10.12,23.12,6.92,4.17-1.38,8.27-3.3,12.65-3.41a24.82,24.82,0,0,1,10.6,2.61c5.22,2.35,10.07,5.47,15.36,7.67s13.54,4.55,18.34.51c11.16-9.42,8.53-27.62,5.22-40-4.83-18.16-20.38-34.28-35.47-44.72-6.77-4.69-14.09-8.56-20.87-13.25A97,97,0,0,1,541,256.35c-6-6.57-11.11-14-17.14-20.61C511,221.61,487.5,213.09,471.59,228.43Z"/><path class="cls-14" d="M479.55,238c-15.23,14.69-1,54.13,31.76,88.11a182.67,182.67,0,0,0,20.89,18.64c6.55,5,11.54,9,19.4,6.81,3.37-.95,6.67-2.35,10.28-2.24a22,22,0,0,1,8.86,2.65c4.42,2.19,8.57,5,13,7.06s11.39,4.4,15.16,1.27c8.77-7.29,5.76-22.49,2.46-32.93-4.82-15.26-18.4-29.33-31.33-38.68-5.81-4.2-12-7.75-17.83-11.94a94.87,94.87,0,0,1-14.08-12.41c-5.3-5.72-9.82-12.12-15.1-17.86C511.73,234.19,492,226.05,479.55,238Z"/><path class="cls-3" d="M592.81,321.56C576.62,290.87,571.58,296.65,558,281c22.39,14.66,41.24,30.82,45.51,58.38C599.92,333.44,596,327.68,592.81,321.56Z"/><path class="cls-3" d="M488.47,232.92a38.67,38.67,0,0,0-4.6,9.37c-3.36,10.32-2.42,21.69.87,32s8.82,19.83,14.66,29a115.33,115.33,0,0,0,10.51,14.52A98.67,98.67,0,0,0,526,332a5.62,5.62,0,0,1,.72-4.87c2.51-3.24,9.17-2.26,14.88,2.17s8.29,10.64,5.78,13.87a4.48,4.48,0,0,1-1.37,1.15l.59.26c4,1.59,8.14,2.6,12,4.46.27.13.53.28.8.42a61.54,61.54,0,0,0-7.75,2.08c-7.86,2.21-12.85-1.82-19.4-6.8a183.62,183.62,0,0,1-20.89-18.64c-32.77-34-47-73.42-31.76-88.11A20.35,20.35,0,0,1,488.47,232.92Z"/><path class="cls-5" d="M479.55,238c-15.23,14.69-1,54.13,31.76,88.11a182.67,182.67,0,0,0,20.89,18.64c6.55,5,11.54,9,19.4,6.81,3.37-.95,6.67-2.35,10.28-2.24a22,22,0,0,1,8.86,2.65c4.42,2.19,8.57,5,13,7.06s11.39,4.4,15.16,1.27c8.77-7.29,5.76-22.49,2.46-32.93-4.82-15.26-18.4-29.33-31.33-38.68-5.81-4.2-12-7.75-17.83-11.94a94.87,94.87,0,0,1-14.08-12.41c-5.3-5.72-9.82-12.12-15.1-17.86C511.73,234.19,492,226.05,479.55,238Z"/><path class="cls-12" d="M490.87,263.3a25.66,25.66,0,0,1-.09-11.2,14.12,14.12,0,0,1,6.35-9,7.66,7.66,0,0,1,3.47-1.1,9.58,9.58,0,0,1,3.92.85c11.45,4.58,18.25,16.08,26.75,25a69.35,69.35,0,0,0,11,9.36c5.92,4.05,12.47,7.1,18.39,11.14s11.37,9.33,13.62,16.13c1.42,4.27,1,9.87-2.92,12.08-2.93,1.66-6.65.74-9.7-.7-9.18-4.33-15.81-12.61-24.12-18.44a17.45,17.45,0,0,0-5.64-2.85c-3.1-.77-6.35-.08-9.53.22C506.35,296.35,493.61,276.9,490.87,263.3Z"/><g class="cls-4"><path class="cls-15" d="M495.65,252a33.21,33.21,0,0,0-.23,11.07,26.5,26.5,0,0,0,3.44,8.37c4.87,8.24,12.9,15.26,22.43,16.22,4.4.45,8.89-.41,13.25.39,6.56,1.19,11.82,5.89,17.25,9.77S564,305,570.37,303a11.47,11.47,0,0,0,2.73-1.32,23.35,23.35,0,0,1,1.18,2.87c1.41,4.26,1,9.86-2.92,12.07-2.94,1.67-6.65.74-9.7-.7-9.18-4.33-15.82-12.6-24.12-18.43a17.38,17.38,0,0,0-5.64-2.86c-3.1-.77-6.35-.07-9.53.23-16,1.51-28.71-17.94-31.45-31.53a25.86,25.86,0,0,1-.1-11.21,14.22,14.22,0,0,1,6.35-9l.45-.23A58.49,58.49,0,0,0,495.65,252Z"/></g><path class="cls-5" d="M490.87,263.3a25.66,25.66,0,0,1-.09-11.2,14.12,14.12,0,0,1,6.35-9,7.66,7.66,0,0,1,3.47-1.1,9.58,9.58,0,0,1,3.92.85c11.45,4.58,18.25,16.08,26.75,25a69.35,69.35,0,0,0,11,9.36c5.92,4.05,12.47,7.1,18.39,11.14s11.37,9.33,13.62,16.13c1.42,4.27,1,9.87-2.92,12.08-2.93,1.66-6.65.74-9.7-.7-9.18-4.33-15.81-12.61-24.12-18.44a17.45,17.45,0,0,0-5.64-2.85c-3.1-.77-6.35-.08-9.53.22C506.35,296.35,493.61,276.9,490.87,263.3Z"/><path class="cls-14" d="M504.87,257.36c-3.51,2-3.51,8.64,0,14.84s9.23,9.59,12.75,7.59,3.51-8.64,0-14.84S508.39,255.36,504.87,257.36Z"/><path class="cls-5" d="M504.87,257.36c-3.51,2-3.51,8.64,0,14.84s9.23,9.59,12.75,7.59,3.51-8.64,0-14.84S508.39,255.36,504.87,257.36Z"/><path class="cls-12" d="M592.91,353.64a7.39,7.39,0,0,0,3.47-1.28,6.51,6.51,0,0,0,1.45-1.68,10.55,10.55,0,0,0,1.62-7.52,8.35,8.35,0,0,0-4.56-6.05c-4.74-2.14-10.31,1.07-15.41.07-2.13-.41-4.05-1.54-6.12-2.17a4.4,4.4,0,0,0-2.43-.19c-3.64,1-1.87,5.83-.56,7.93s3.73,3.91,5.68,5.54C580.69,352.18,586.81,354.54,592.91,353.64Z"/><path class="cls-5" d="M592.91,353.64a7.39,7.39,0,0,0,3.47-1.28,6.51,6.51,0,0,0,1.45-1.68,10.55,10.55,0,0,0,1.62-7.52,8.35,8.35,0,0,0-4.56-6.05c-4.74-2.14-10.31,1.07-15.41.07-2.13-.41-4.05-1.54-6.12-2.17a4.4,4.4,0,0,0-2.43-.19c-3.64,1-1.87,5.83-.56,7.93s3.73,3.91,5.68,5.54C580.69,352.18,586.81,354.54,592.91,353.64Z"/><path class="cls-3" d="M371,268.58c0,3.79-5,6.87-6,10.36s1.82,8.8,0,12-7.76,3.37-10.37,6-2.76,8.51-6,10.36-8.35-1-12,0-6.57,6-10.36,6-6.87-5-10.37-6-8.8,1.83-12,0-3.36-7.76-6-10.36-8.51-2.77-10.37-6,1-8.35,0-12-6-6.57-6-10.36,5-6.87,6-10.37-1.83-8.8,0-12,7.76-3.37,10.37-6,2.76-8.51,6-10.37,8.34,1,12,0,6.58-6,10.37-6,6.87,5,10.36,6,8.8-1.83,12,0,3.37,7.76,6,10.37,8.51,2.76,10.37,6-1,8.34,0,12S371,264.79,371,268.58Z"/><g class="cls-4"><path class="cls-16" d="M365,278.94c.93-3.49,6-6.57,6-10.36s-5-6.87-6-10.37,1.83-8.79,0-12-7.76-3.37-10.36-6-2.77-8.4-5.9-10.31c7.44,16.9,5.36,37.73-5.53,52.69-6.53,9-16.43,16-27.48,16.86a42.57,42.57,0,0,1-15.85-2.11c-.69-.21-1.37-.44-2-.68l.19.17c2.61,2.6,2.76,8.51,6,10.36s8.35-1,12,0,6.58,6,10.37,6,6.87-5,10.36-6,8.8,1.83,12,0,3.37-7.76,6-10.36,8.51-2.77,10.37-6S364.06,282.56,365,278.94Z"/></g><path class="cls-5" d="M371,268.58c0,3.79-5,6.87-6,10.36s1.82,8.8,0,12-7.76,3.37-10.37,6-2.76,8.51-6,10.36-8.35-1-12,0-6.57,6-10.36,6-6.87-5-10.37-6-8.8,1.83-12,0-3.36-7.76-6-10.36-8.51-2.77-10.37-6,1-8.35,0-12-6-6.57-6-10.36,5-6.87,6-10.37-1.83-8.8,0-12,7.76-3.37,10.37-6,2.76-8.51,6-10.37,8.34,1,12,0,6.58-6,10.37-6,6.87,5,10.36,6,8.8-1.83,12,0,3.37,7.76,6,10.37,8.51,2.76,10.37,6-1,8.34,0,12S371,264.79,371,268.58Z"/><path class="cls-12" d="M330.08,273.86a4.86,4.86,0,0,1-5.51-.83,4.75,4.75,0,0,1-1.09-4.89c1.26-4,6.31-6.74,10.36-6.76,4.65,0,8.57,3.6,10.6,7.51a13.6,13.6,0,0,1,.09,12.39c-2.26,4.35-6.53,6.51-11.14,7.6a26.78,26.78,0,0,1-7.82.84,24.24,24.24,0,0,1-7.73-2.28,15.71,15.71,0,0,1-5.63-3.73,17.35,17.35,0,0,1-3.29-6.15c-1.72-5.09-2.86-10.75-2-16.11s3.52-10,8.17-12.77c4.45-2.67,9.75-3.57,14.86-3.89a2.94,2.94,0,0,0,2.89-2.88A2.91,2.91,0,0,0,330,239c-6,.37-12.17,1.44-17.45,4.48a23.05,23.05,0,0,0-10.73,14.42c-1.75,6.84-.74,14.16,1.43,20.78a25.53,25.53,0,0,0,4.37,8.48,19.88,19.88,0,0,0,7.63,5.38,32.51,32.51,0,0,0,9.87,2.9,31.12,31.12,0,0,0,10.42-1.16c6-1.54,11.64-5,14.34-10.8a19.76,19.76,0,0,0-.71-18c-3.11-5.56-9.14-10.1-15.73-9.85-6.76.26-14.6,5.11-15.8,12.21a10.39,10.39,0,0,0,14,11.6,3,3,0,0,0,2-3.55c-.37-1.37-2.1-2.61-3.55-2Z"/><path class="cls-2" d="M489.06,27.27c-6.76,4-7.26,15.65-1.12,25.93s16.61,15.33,23.37,11.29,7.26-15.64,1.11-25.92S495.82,23.23,489.06,27.27Zm18.5,31c-5.19,3.1-12.33.7-15.95-5.37s-2.36-13.49,2.83-16.59,12.33-.7,16,5.36S512.75,55.13,507.56,58.23Z"/><path class="cls-2" d="M489.44,27.33c-6.72,4-7.18,15.63-1,25.92S505,68.65,511.73,64.63s7.18-15.62,1-25.92S496.16,23.32,489.44,27.33ZM506.39,55.7c-4.77,2.85-11.87-.25-15.86-6.93s-3.36-14.41,1.41-17.26,11.87.25,15.87,6.93S511.17,52.85,506.39,55.7Z"/><path class="cls-3" d="M490.5,29.11c5.48-3.27,13.32-.74,19.47,5.64-6.19-7.57-14.74-10.87-20.53-7.42s-6.92,12.56-3.19,21.59C483.54,40.48,485,32.39,490.5,29.11Z"/><g class="cls-4"><path class="cls-2" d="M507.74,32.3a25.3,25.3,0,0,1,2.61,13.6c.43,4.22-.93,8-4,9.8s-7,1.22-10.5-1.16a25.31,25.31,0,0,1-10.74-8.74,31.69,31.69,0,0,0,3.27,7.45c6.15,10.3,16.59,15.4,23.31,11.38s7.18-15.62,1-25.92A31.92,31.92,0,0,0,507.74,32.3Z"/></g><ellipse class="cls-5" cx="500.59" cy="45.98" rx="14.18" ry="21.72" transform="matrix(0.86, -0.51, 0.51, 0.86, 47.29, 263.29)"/><ellipse class="cls-5" cx="499.17" cy="43.61" rx="10.07" ry="14.09" transform="translate(48.31 262.22) rotate(-30.86)"/><path class="cls-5" d="M491.24,50a10,10,0,1,1,17.14-10.24"/><line class="cls-5" x1="511.86" y1="64.3" x2="506.86" y2="55.94"/><line class="cls-5" x1="515.76" y1="59.55" x2="510.29" y2="50.4"/><line class="cls-5" x1="516.87" y1="52.96" x2="508.18" y2="38.74"/><line class="cls-5" x1="505.42" y1="65.73" x2="499.95" y2="56.58"/><line class="cls-5" x1="499.09" y1="63.59" x2="490.68" y2="49.2"/><path class="cls-6" d="M871.81,353.81a192.75,192.75,0,0,1-43.07-3.68l-4.91-1c-1.61-.34-3.2-.76-4.78-1.13-3.17-.72-6.23-1.63-9.25-2.44-6-1.78-11.75-3.62-17.17-5.67a333,333,0,0,1-53.26-25.77c-14.16-8.35-25.2-15.73-34-21.71s-15.21-10.59-19.92-13.95c-18.91-13.49-9.58-6.85-.28-.21s18.58,13.17-.29-.2c-4.72-3.35-11.16-8-20-14.14-4.44-3-9.48-6.44-15.3-10.07s-12.42-7.49-20-11.34a206.57,206.57,0,0,0-25.9-10.83,274.31,274.31,0,0,0-32.11-8.75c-11.74-2.5-24.47-4.6-38.28-6.32-6.9-.89-14.1-1.58-21.57-2.18s-15.26-.91-23.32-1a265,265,0,0,0-55.06,4.92,206.74,206.74,0,0,0-26.81,7.34,253,253,0,0,0-25.64,10.44A452.08,452.08,0,0,0,333,262.88c-15.43,9.68-30.46,19.82-45.67,29.46s-30.65,18.82-46.72,26.53a260.51,260.51,0,0,1-24.52,10.42,205.41,205.41,0,0,1-25.43,7.36,142.37,142.37,0,0,1-52.19,1.92c-17.25-2.58-34-8.59-48.16-18.46-6.11-4.28-10.54-7.7-13.88-9.74s-5.46-2.79-6.43-2-.66,3.17,1.51,6.75a46.77,46.77,0,0,0,13.08,13.13,119.77,119.77,0,0,0,42.33,18.28,148.29,148.29,0,0,0,39.46,3.37,153.54,153.54,0,0,0,17.5-1.81c2.8-.42,5.45-1,8.09-1.55s5.17-1.18,7.66-1.79a228.74,228.74,0,0,0,26.67-8.68,328.06,328.06,0,0,0,37.2-17.88c9.42-5.26,16.26-9.45,21.24-12.5,9.92-6.16,12.36-7.8,11.2-7s-6,3.83-10.9,6.86l-6.91,4.21L274,312.2l1.49-.88c1.75-1,4.89-2.92,9.87-6S297.05,298,306,292.16s20.1-13.21,34.09-22c7-4.37,14.74-9.06,23.36-13.89a320.1,320.1,0,0,1,28.79-14.4,224,224,0,0,1,35.47-12.11,209.23,209.23,0,0,1,20.58-3.93c7.18-1,14.66-1.78,22.45-2.14a337.89,337.89,0,0,1,53.46,1.86,440.63,440.63,0,0,1,52.93,8.79c17.32,4.16,34.2,9.83,49.85,18s30.47,18.33,45.17,28.81C701.52,302.28,731.7,323.26,765,339a271.44,271.44,0,0,0,52,18.7,205.49,205.49,0,0,0,55.19,6,73.41,73.41,0,0,0,10.56-1.14c1.49-.29,2.85-.59,4.09-.91a33.92,33.92,0,0,0,3.28-1.1,16,16,0,0,0,4.21-2.23c.88-.77,1.25-1.47,1.14-2.09s-.7-1.13-1.75-1.52a16.79,16.79,0,0,0-4.55-1c-1-.1-2.08-.13-3.29-.18s-2.54-.1-4-.1C879,353.64,875.63,353.59,871.81,353.81Z"/><g class="cls-4"><path class="cls-7" d="M272.16,311.9q3.27-1.92,6-3.54l4.9-3c2.95-1.78,5.2-3.24,6.95-4.32,3.48-2.17,4.76-3,4.65-2.95,6.18-3.92,13.8-8.91,23.19-15s20.55-13.41,34.06-21.45c6.76-4,14.1-8.22,22.19-12.36a285.06,285.06,0,0,1,26.56-12.08,207.19,207.19,0,0,1,31.72-9.65c5.74-1.31,11.75-2.27,17.95-3.16s12.66-1.44,19.32-1.76c8.91-.49,17.86-.55,26.81-.25s17.9,1,26.82,1.94,17.85,2.12,26.72,3.55,17.68,3.1,26.39,5.14a260.61,260.61,0,0,1,25.71,7.41,195.8,195.8,0,0,1,24.49,10.44c15.86,8.07,30.67,18.28,45.38,28.75,29.37,21.1,59.43,42.13,92.55,57.91a272.11,272.11,0,0,0,51.68,18.85A203.47,203.47,0,0,0,871,362.63a79.07,79.07,0,0,0,12.69-1.33c-3.53.38-7.12.51-10.74.68-1.82.06-3.64,0-5.47.06-.91,0-1.83,0-2.75,0L862,362c-1.85-.08-3.71-.07-5.57-.23l-5.6-.41c-3.74-.39-7.53-.74-11.31-1.34a210.58,210.58,0,0,1-22.91-4.59c-7.67-2-15.38-4.3-23.07-7.07a324.35,324.35,0,0,1-45.78-21c-15.12-8.35-30.07-17.87-45-28.11-7.47-5.11-14.93-10.42-22.42-15.82s-15.05-10.85-22.81-16.13-15.75-10.37-24.09-15a197.7,197.7,0,0,0-26.13-12.1c-18.16-6.85-37.54-11.25-57.37-14.44A420.3,420.3,0,0,0,489.18,220c-21.79-.28-43.4,1.75-63.92,7s-39.78,13.69-57.83,23.45-35,20.83-51.62,31.68-32.8,21.63-49.28,31.09c-8.24,4.73-16.5,9.21-24.88,13.21a274.41,274.41,0,0,1-25.34,10.61,195.77,195.77,0,0,1-25.7,7.32q-6.44,1.42-12.91,2.27t-12.85,1.11a142.88,142.88,0,0,1-48.79-6.12c-15.15-4.74-28.92-12.17-39.92-21.91l1.71,1.68c.61.57,1.26,1.13,1.94,1.72,1.34,1.2,2.89,2.34,4.52,3.56a115.49,115.49,0,0,0,35.58,16.87,143.12,143.12,0,0,0,34.23,5.29,150.42,150.42,0,0,0,30.23-2,206.08,206.08,0,0,0,25.41-6.13,265.78,265.78,0,0,0,37.93-15.5C257.85,320.15,265.81,315.59,272.16,311.9Z"/></g><path class="cls-3" d="M510.05,215.79a23.32,23.32,0,0,1-4.38,0c-1.44-.06-3.21-.06-5.31-.12l-3.38-.08-3.86,0-4.31,0-4.75.07c-3.32,0-6.92.22-10.78.35-7.73.43-16.53,1.16-26.17,2.61a218,218,0,0,0-31.11,7,250.18,250.18,0,0,0-34,13.29c-11.62,5.48-23.4,12-35.35,19.22s-24,15.07-36.35,23.11-24.38,15.87-36.28,23-23.61,13.48-35.1,18.85a240.11,240.11,0,0,1-33.55,12.78l-4,1.15c-1.33.37-2.67.66-4,1l-3.91,1c-1.29.29-2.59.52-3.86.78a135.54,135.54,0,0,1-14.76,2.26,137.62,137.62,0,0,1-44.63-2.7,101.5,101.5,0,0,1-11.66-3.38,16.76,16.76,0,0,1-3.9-1.65c.05-.13,1.42.33,4.09,1s6.59,1.77,11.73,2.78a144.32,144.32,0,0,0,44.13,1.66,137.78,137.78,0,0,0,14.49-2.43c1.26-.27,2.53-.51,3.81-.82l3.84-1c1.29-.34,2.6-.65,3.91-1l4-1.19a242.09,242.09,0,0,0,33-12.9c11.34-5.39,22.94-11.78,34.75-18.87s23.79-14.9,36.13-22.95S333,262.56,345,255.38a396.32,396.32,0,0,1,35.71-19.2A246.48,246.48,0,0,1,415.24,223a212.86,212.86,0,0,1,31.55-6.67,260.72,260.72,0,0,1,26.42-2.16c3.89,0,7.51-.16,10.84-.08l4.78.07,4.32.17,3.87.17,3.38.23c2.1.16,3.88.26,5.3.42A22.63,22.63,0,0,1,510.05,215.79Z"/><path class="cls-17" d="M871.81,353.81a192.75,192.75,0,0,1-43.07-3.68l-4.91-1c-1.61-.34-3.2-.76-4.78-1.13-3.17-.72-6.23-1.63-9.25-2.44-6-1.78-11.75-3.62-17.17-5.67a333,333,0,0,1-53.26-25.77c-14.16-8.35-25.2-15.73-34-21.71s-15.21-10.59-19.92-13.95c-18.91-13.49-9.58-6.85-.28-.21s18.58,13.17-.29-.2c-4.72-3.35-11.16-8-20-14.14-4.44-3-9.48-6.44-15.3-10.07s-12.42-7.49-20-11.34a206.57,206.57,0,0,0-25.9-10.83,274.31,274.31,0,0,0-32.11-8.75c-11.74-2.5-24.47-4.6-38.28-6.32-6.9-.89-14.1-1.58-21.57-2.18s-15.26-.91-23.32-1a265,265,0,0,0-55.06,4.92,206.74,206.74,0,0,0-26.81,7.34,253,253,0,0,0-25.64,10.44A452.08,452.08,0,0,0,333,262.88c-15.43,9.68-30.46,19.82-45.67,29.46s-30.65,18.82-46.72,26.53a260.51,260.51,0,0,1-24.52,10.42,205.41,205.41,0,0,1-25.43,7.36,142.37,142.37,0,0,1-52.19,1.92c-17.25-2.58-34-8.59-48.16-18.46-6.11-4.28-10.54-7.7-13.88-9.74s-5.46-2.79-6.43-2-.66,3.17,1.51,6.75a46.77,46.77,0,0,0,13.08,13.13,119.77,119.77,0,0,0,42.33,18.28,148.29,148.29,0,0,0,39.46,3.37,153.54,153.54,0,0,0,17.5-1.81c2.8-.42,5.45-1,8.09-1.55s5.17-1.18,7.66-1.79a228.74,228.74,0,0,0,26.67-8.68,328.06,328.06,0,0,0,37.2-17.88c9.42-5.26,16.26-9.45,21.24-12.5,9.92-6.16,12.36-7.8,11.2-7s-6,3.83-10.9,6.86l-6.91,4.21L274,312.2l1.49-.88c1.75-1,4.89-2.92,9.87-6S297.05,298,306,292.16s20.1-13.21,34.09-22c7-4.37,14.74-9.06,23.36-13.89a320.1,320.1,0,0,1,28.79-14.4,224,224,0,0,1,35.47-12.11,209.23,209.23,0,0,1,20.58-3.93c7.18-1,14.66-1.78,22.45-2.14a337.89,337.89,0,0,1,53.46,1.86,440.63,440.63,0,0,1,52.93,8.79c17.32,4.16,34.2,9.83,49.85,18s30.47,18.33,45.17,28.81C701.52,302.28,731.7,323.26,765,339a271.44,271.44,0,0,0,52,18.7,205.49,205.49,0,0,0,55.19,6,73.41,73.41,0,0,0,10.56-1.14c1.49-.29,2.85-.59,4.09-.91a33.92,33.92,0,0,0,3.28-1.1,16,16,0,0,0,4.21-2.23c.88-.77,1.25-1.47,1.14-2.09s-.7-1.13-1.75-1.52a16.79,16.79,0,0,0-4.55-1c-1-.1-2.08-.13-3.29-.18s-2.54-.1-4-.1C879,353.64,875.63,353.59,871.81,353.81Z"/><path class="cls-3" d="M774.42,335.62a6.11,6.11,0,0,1-1.56-.53c-1-.4-2.47-1-4.34-1.82s-4.14-1.89-6.77-3.12-5.59-2.7-8.83-4.42A474.28,474.28,0,0,1,704,296c-9.25-6.31-17.91-12.52-25.79-18.21s-15-10.77-21.11-14.92-11.12-7.37-14.62-9.57-5.47-3.38-5.4-3.5a6.72,6.72,0,0,1,1.52.68c1,.49,2.41,1.24,4.21,2.27,3.61,2,8.76,5.1,14.95,9.14s13.42,9,21.34,14.65,16.61,11.79,25.84,18.09a566.53,566.53,0,0,0,48.52,30.06c3.18,1.77,6.13,3.26,8.68,4.62l6.63,3.36c1.83.9,3.25,1.61,4.21,2.1A6.56,6.56,0,0,1,774.42,335.62Z"/><path class="cls-18" d="M719,329.06a36.84,36.84,0,0,0,5.26,5.56c26,22.27,78.13,4.09,116.43-40.63s48.25-99,22.24-121.28A36.79,36.79,0,0,0,856,168c-1.43,23.72-20.19,60.86-50.64,96.41C775.37,299.45,742.14,323.49,719,329.06Z"/><g class="cls-4"><path class="cls-18" d="M734.34,341.18c27.89,11.28,72.34-7.52,106.06-46.89,34.71-40.54,46.14-89,28.59-114.25,4.1,27.68-11.18,68.09-41.87,103.92C797.68,318.33,761.9,339.34,734.34,341.18Z"/></g><path class="cls-3" d="M862.32,172.2a37.51,37.51,0,0,0-5.77-3.75c-1.43,23.72-20.2,60.87-50.64,96.41-30,35-63.2,59-86.38,64.61a37.3,37.3,0,0,0,4,4.43c7.63-1.31,16.93-5.35,27.15-11.68a1.69,1.69,0,0,0,.2.43c1.22,1.75,6.21.38,11.14-3.07s8-7.65,6.72-9.4a1.54,1.54,0,0,0-.44-.4,311.39,311.39,0,0,0,42.62-41.51C842.31,231.62,861.79,194,862.32,172.2Z"/><path class="cls-5" d="M719,329.06a36.84,36.84,0,0,0,5.26,5.56c26,22.27,78.13,4.09,116.43-40.63s48.25-99,22.24-121.28A36.79,36.79,0,0,0,856,168c-1.43,23.72-20.19,60.86-50.64,96.41C775.37,299.45,742.14,323.49,719,329.06Z"/><path class="cls-18" d="M765.19,228.83c-35.41,41.34-54.73,83.91-46.17,99.74,18.58-3.36,55.63-28.46,86.64-64.39,30.59-35.42,49.82-74.1,50.61-96.43C839.12,162.22,800.34,187.79,765.19,228.83Z"/><path class="cls-5" d="M764.92,229c-35.41,41.34-54.73,83.91-46.17,99.74,18.58-3.36,55.63-28.46,86.64-64.38C836,229,855.21,190.29,856,168,838.85,162.44,800.07,188,764.92,229Z"/><g class="cls-4"><path class="cls-18" d="M855.54,167.57c-5.93-1.91-14.43-.11-24.46,4.75a12.09,12.09,0,0,1,1.61,1.15c14.15,12.12-4,56.57-40.6,99.28-16.29,19-33.47,34.47-48.77,44.71,18.57-11.19,41.37-30,61.61-53.46C835.51,228.57,854.74,189.89,855.54,167.57Z"/></g><ellipse class="cls-19" cx="785.48" cy="246.35" rx="58.14" ry="19.65" transform="translate(87.43 682.69) rotate(-49.42)"/><ellipse class="cls-5" cx="785.48" cy="246.35" rx="58.14" ry="19.65" transform="translate(87.43 682.69) rotate(-49.42)"/><g class="cls-4"><path class="cls-20" d="M815.79,200.49c6.61,8.1-3,31.82-22.27,54.35-18,21.07-38.43,33.91-48.37,31.16a8,8,0,0,0,2.52,4.5c8.24,7.06,31.85-7,52.74-31.37s31.13-49.88,22.89-56.94C821.48,200.64,818.91,200.11,815.79,200.49Z"/></g><path class="cls-3" d="M795.59,215.44C789,220,781.16,227.25,773.5,236.19c-15.28,17.84-23.87,35.55-19.2,39.55,3.27,2.79,12.13-1.83,22.38-10.93-5.64,3.37-10.22,4.46-12.52,2.48-1.39-1.19-1.81-3.36-1.39-6.22a23.15,23.15,0,0,0,6.71-5.71c3.71-4.33,5.7-8.72,4.44-9.8-1-.84-3.66.59-6.55,3.32a107.75,107.75,0,0,1,13-18.64A109.76,109.76,0,0,1,795.59,215.44Z"/><path class="cls-6" d="M803.49,318.78a84.84,84.84,0,0,1,6.6-16.85,116.59,116.59,0,0,1,9-14.56A293.6,293.6,0,0,1,839,263.26c6.5-7.26,12.5-14.11,17.78-20.53s10-12.43,14.1-18c8.28-11.13,14.34-20.54,19-28.15s7.78-13.51,10-17.81c4.47-8.63,5.37-11,4.91-9.9s-2.54,5.41-4.77,9.64-4.53,8.43-5.11,9.43.73-1.08,5.24-9.69a198.86,198.86,0,0,0,8.66-18.68,121.91,121.91,0,0,0,4.8-14.71,86.54,86.54,0,0,0,2.67-19.33,101.26,101.26,0,0,0-2.47-23.44,157.64,157.64,0,0,0-8.44-26.4,152.39,152.39,0,0,0-15.58-28.57c-.83-1.2-1.75-2.37-2.64-3.57s-1.75-2.44-2.77-3.59c-2-2.32-3.9-4.76-6.15-7a106.33,106.33,0,0,0-14.76-13.11l-4.81-3.34-5.07-3-1.26-.74L851,12.14l-2.65-1.27c-.89-.42-1.77-.86-2.66-1.27l-2.75-1A90.09,90.09,0,0,0,831.66,5l-5.79-1.11A26.55,26.55,0,0,0,823,3.5L820,3.19a96.4,96.4,0,0,0-23.4.88,124.37,124.37,0,0,0-22.4,6.08,149.49,149.49,0,0,0-20.87,9.73c-3.38,1.82-6.61,3.87-9.87,5.87S737.11,30,734,32.23a306.14,306.14,0,0,0-34.49,29.61c-10.77,10.6-20.9,21.85-30.65,33.22s-19.48,22.49-30.65,31.78a104.16,104.16,0,0,1-8.67,6.5c-1.48,1-3,2-4.53,2.94l-2.32,1.38c-.77.47-1.54.94-2.35,1.33a107.54,107.54,0,0,1-19.9,8.42,112.49,112.49,0,0,1-42.76,5c-1.56-.13-3-.2-4.4-.28s-2.63-.22-3.82-.27c-2.37-.05-4.35-.2-6-.12-3.27.19-5.07.69-5.33,1.7s1.06,2.48,4.18,3.85a29.57,29.57,0,0,0,6,2c1.23.29,2.58.57,4,.83s3,.35,4.71.5l2.53.2,2.51.06c1.67,0,3.32.12,5,.08l4.87-.15,1.21,0,1.19-.1,2.38-.21c3.16-.2,6.23-.72,9.26-1.14,1.51-.22,3-.58,4.45-.85s2.94-.55,4.36-1a123.63,123.63,0,0,0,30.5-11.85,123.23,123.23,0,0,0,22.58-16.34c3.16-2.83,6.05-5.65,8.73-8.41s5.17-5.42,7.5-8c4.65-5.15,8.7-9.87,12.34-14.09s6.89-7.92,9.82-11.17c5.84-6.5,10.35-11.2,13.66-14.6,6.66-6.76,8.46-8.36,7.63-7.59s-4.17,4-7.43,7.39-6.47,6.74-7.24,7.57.82-1,7.44-7.77c3.32-3.39,7.93-8,14.33-13.89a272.35,272.35,0,0,1,25.59-20.92,180.18,180.18,0,0,1,18.76-11.76A140.94,140.94,0,0,1,783.11,15.8,93.45,93.45,0,0,1,813,11.08l4.1.09,4.15.43,2.1.22c.7.09,1.39.25,2.09.38l4.24.8c1.41.34,2.8.79,4.23,1.17l2.13.61c.72.2,1.4.52,2.11.77l4.25,1.62,4.18,2a90.27,90.27,0,0,1,17.78,11.88,117.12,117.12,0,0,1,14.84,15.67,133.32,133.32,0,0,1,11.88,18.21,142.08,142.08,0,0,1,9,19.88c5,13.67,8.48,28.05,7.9,42.24a82,82,0,0,1-3.84,21A145.15,145.15,0,0,1,896,168.23c-12.91,26.52-30.05,50.94-49.18,73.58-9.5,11.35-19.95,22.1-29.4,34.1A146.46,146.46,0,0,0,804.45,295a95.31,95.31,0,0,0-8.91,21.63A36.3,36.3,0,0,0,794.36,332c.63,3.44,1.78,5,2.8,5s2-1.68,2.85-4.73S801.86,324.72,803.49,318.78Z"/><g class="cls-4"><path class="cls-7" d="M691.45,80.64c5.61-6,9.45-9.88,11.82-12.24s3.3-3.22,3.21-3.15c4.28-4.16,9.7-9.27,16.7-15.21,3.49-3,7.39-6.15,11.75-9.44,2.17-1.67,4.52-3.29,6.93-5l3.78-2.52,2-1.29,2-1.25a156.59,156.59,0,0,1,18.27-9.85,119.46,119.46,0,0,1,22.45-7.89,91.89,91.89,0,0,1,26.76-2.56,77.31,77.31,0,0,1,29.14,7.73l2.44,1.17c.79.43,1.55.91,2.34,1.36l2.33,1.36,1.17.68,1.11.77,4.46,3.09,4.22,3.41a116.12,116.12,0,0,1,15.13,15.66A142.06,142.06,0,0,1,891.52,63.7l2.58,4.85c.81,1.64,1.57,3.31,2.36,5s1.48,3.35,2.19,5,1.43,3.37,2,5.11a140.84,140.84,0,0,1,6.22,21A91.7,91.7,0,0,1,909,126.24a81.84,81.84,0,0,1-3.65,21.24,142.46,142.46,0,0,1-8.11,20.38c-12.85,26.66-30,51.17-49.12,73.9-9.5,11.4-19.94,22.13-29.38,34a147.44,147.44,0,0,0-13,18.9,94.61,94.61,0,0,0-9,21.31A45.37,45.37,0,0,0,795,326.6c1.64-11.9,6.42-23.58,13.08-34.41s15.22-20.85,24.17-30.81c4.47-5,9-10,13.54-15.16s9-10.54,13.34-16.07a368.58,368.58,0,0,0,25-35.47q5.85-9.47,11.12-19.56a178.51,178.51,0,0,0,9.46-20.86,94.16,94.16,0,0,0,5.51-22.48,85.35,85.35,0,0,0-.92-23.52A136.84,136.84,0,0,0,903,85a147.92,147.92,0,0,0-10.08-22.39c-8-14.37-18.61-27.78-32.13-37.89a83.55,83.55,0,0,0-23.4-12.35,79.79,79.79,0,0,0-25.75-4,97.56,97.56,0,0,0-25.5,3.77,134.07,134.07,0,0,0-23.72,9.32A178.06,178.06,0,0,0,740.86,34.3a242.48,242.48,0,0,0-19.43,15.2A383.35,383.35,0,0,0,687.37,83c-10.49,11.5-19.93,23.45-30.17,34.29a174.35,174.35,0,0,1-16,15.17,107.74,107.74,0,0,1-8.68,6.5l-2.22,1.52L628,141.91l-2.28,1.38c-.75.47-1.51.92-2.3,1.32a121.26,121.26,0,0,1-38.37,13.3l-4.82.73c-1.61.19-3.21.32-4.81.48l-2.38.22-2.38.1c-1.59.05-3.16.15-4.73.16-3.13-.07-6.24,0-9.29-.31-1.53-.13-3-.18-4.56-.38l-4.48-.58a60.24,60.24,0,0,0,8.68,1.27,123.09,123.09,0,0,0,16.69.24l4-.34c1.32-.14,2.65-.18,3.94-.4l3.87-.56,1.9-.27,1.88-.38a121.61,121.61,0,0,0,27.28-8.56,117.71,117.71,0,0,0,21.64-12.66,149.48,149.48,0,0,0,16.29-14.2c4.72-4.67,8.81-9.19,12.52-13.36s7-8,10.05-11.54C682.39,90.56,687.37,85,691.45,80.64Z"/></g><path class="cls-3" d="M876.4,32.85a27.6,27.6,0,0,1-2.76-2.43c-1.85-1.55-4.4-4-8.08-6.73-.91-.68-1.81-1.49-2.88-2.18l-3.31-2.22L857.6,18.1c-.62-.38-1.27-.73-1.92-1.11l-4.09-2.33a91,91,0,0,0-20.66-7.59,86.55,86.55,0,0,0-26.51-1.6,109.64,109.64,0,0,0-29.49,7A165.57,165.57,0,0,0,745.2,27.67a243.35,243.35,0,0,0-28.42,21.66C698.35,65.42,682.71,82.77,669,98.75c-6.91,8-13.56,15.39-20.27,21.82a128.34,128.34,0,0,1-20,16.05,114.9,114.9,0,0,1-18.82,9.56l-4.22,1.56c-1.34.54-2.7.86-4,1.27s-2.48.78-3.66,1.08l-3.36.81c-1.07.25-2.06.52-3,.69l-2.67.48c-1.66.27-3,.57-4.2.66a17.44,17.44,0,0,1-3.51.23,17.6,17.6,0,0,1,3.42-.76c1.13-.17,2.5-.56,4.13-.91l2.63-.59c.94-.2,1.92-.52,3-.8l3.31-.91c1.15-.34,2.33-.78,3.59-1.18s2.57-.8,3.88-1.37l4.13-1.63a118.58,118.58,0,0,0,18.36-9.76A129.62,129.62,0,0,0,647.14,119c6.57-6.42,13.11-13.86,20-21.84,13.66-16.07,29.36-33.6,47.94-49.82A240,240,0,0,1,743.8,25.48a165,165,0,0,1,30.27-15.26,110.28,110.28,0,0,1,30.16-6.94,87.23,87.23,0,0,1,27.13,2,90,90,0,0,1,20.94,8.12l4.09,2.45c.65.4,1.31.78,1.92,1.17l1.76,1.26,3.29,2.34c1.06.73,1.94,1.58,2.85,2.3A92.48,92.48,0,0,1,874,30a22.57,22.57,0,0,1,1.84,2C876.25,32.56,876.43,32.82,876.4,32.85Z"/><path class="cls-21" d="M803.49,318.78a84.84,84.84,0,0,1,6.6-16.85,116.59,116.59,0,0,1,9-14.56A293.6,293.6,0,0,1,839,263.26c6.5-7.26,12.5-14.11,17.78-20.53s10-12.43,14.1-18c8.28-11.13,14.34-20.54,19-28.15s7.78-13.51,10-17.81c4.47-8.63,5.37-11,4.91-9.9s-2.54,5.41-4.77,9.64-4.53,8.43-5.11,9.43.73-1.08,5.24-9.69a198.86,198.86,0,0,0,8.66-18.68,121.91,121.91,0,0,0,4.8-14.71,86.54,86.54,0,0,0,2.67-19.33,101.26,101.26,0,0,0-2.47-23.44,157.64,157.64,0,0,0-8.44-26.4,152.39,152.39,0,0,0-15.58-28.57c-.83-1.2-1.75-2.37-2.64-3.57s-1.75-2.44-2.77-3.59c-2-2.32-3.9-4.76-6.15-7a106.33,106.33,0,0,0-14.76-13.11l-4.81-3.34-5.07-3-1.26-.74L851,12.14l-2.65-1.27c-.89-.42-1.77-.86-2.66-1.27l-2.75-1A90.09,90.09,0,0,0,831.66,5l-5.79-1.11A26.55,26.55,0,0,0,823,3.5L820,3.19a96.4,96.4,0,0,0-23.4.88,124.37,124.37,0,0,0-22.4,6.08,149.49,149.49,0,0,0-20.87,9.73c-3.38,1.82-6.61,3.87-9.87,5.87S737.11,30,734,32.23a306.14,306.14,0,0,0-34.49,29.61c-10.77,10.6-20.9,21.85-30.65,33.22s-19.48,22.49-30.65,31.78a104.16,104.16,0,0,1-8.67,6.5c-1.48,1-3,2-4.53,2.94l-2.32,1.38c-.77.47-1.54.94-2.35,1.33a107.54,107.54,0,0,1-19.9,8.42,112.49,112.49,0,0,1-42.76,5c-1.56-.13-3-.2-4.4-.28s-2.63-.22-3.82-.27c-2.37-.05-4.35-.2-6-.12-3.27.19-5.07.69-5.33,1.7s1.06,2.48,4.18,3.85a29.57,29.57,0,0,0,6,2c1.23.29,2.58.57,4,.83s3,.35,4.71.5l2.53.2,2.51.06c1.67,0,3.32.12,5,.08l4.87-.15,1.21,0,1.19-.1,2.38-.21c3.16-.2,6.23-.72,9.26-1.14,1.51-.22,3-.58,4.45-.85s2.94-.55,4.36-1a123.63,123.63,0,0,0,30.5-11.85,123.23,123.23,0,0,0,22.58-16.34c3.16-2.83,6.05-5.65,8.73-8.41s5.17-5.42,7.5-8c4.65-5.15,8.7-9.87,12.34-14.09s6.89-7.92,9.82-11.17c5.84-6.5,10.35-11.2,13.66-14.6,6.66-6.76,8.46-8.36,7.63-7.59s-4.17,4-7.43,7.39-6.47,6.74-7.24,7.57.82-1,7.44-7.77c3.32-3.39,7.93-8,14.33-13.89a272.35,272.35,0,0,1,25.59-20.92,180.18,180.18,0,0,1,18.76-11.76A140.94,140.94,0,0,1,783.11,15.8,93.45,93.45,0,0,1,813,11.08l4.1.09,4.15.43,2.1.22c.7.09,1.39.25,2.09.38l4.24.8c1.41.34,2.8.79,4.23,1.17l2.13.61c.72.2,1.4.52,2.11.77l4.25,1.62,4.18,2a90.27,90.27,0,0,1,17.78,11.88,117.12,117.12,0,0,1,14.84,15.67,133.32,133.32,0,0,1,11.88,18.21,142.08,142.08,0,0,1,9,19.88c5,13.67,8.48,28.05,7.9,42.24a82,82,0,0,1-3.84,21A145.15,145.15,0,0,1,896,168.23c-12.91,26.52-30.05,50.94-49.18,73.58-9.5,11.35-19.95,22.1-29.4,34.1A146.46,146.46,0,0,0,804.45,295a95.31,95.31,0,0,0-8.91,21.63A36.3,36.3,0,0,0,794.36,332c.63,3.44,1.78,5,2.8,5s2-1.68,2.85-4.73S801.86,324.72,803.49,318.78Z"/><path class="cls-3" d="M847.37,250.05a4.91,4.91,0,0,1,.79-1.13l2.44-3.06c2.15-2.65,5.24-6.48,9-11.27a420.62,420.62,0,0,0,27.19-39c9.64-15.87,17.22-31,21.31-42.54a114.43,114.43,0,0,0,4-14c.71-3.38,1-5.27,1.1-5.26a5.15,5.15,0,0,1-.05,1.4c-.06.91-.27,2.24-.53,4a95.73,95.73,0,0,1-3.62,14.2c-3.9,11.76-11.38,27-21.06,42.94a360.41,360.41,0,0,1-27.6,38.87c-3.85,4.73-7.07,8.47-9.34,11-1.13,1.28-2,2.26-2.64,2.9S847.41,250.08,847.37,250.05Z"/></g></g></g></svg>