<svg xmlns="http://www.w3.org/2000/svg" viewBox="0 0 240.03 296"><defs><style>.cls-1{isolation:isolate;}.cls-2{fill:#e94c3b;}.cls-3{fill:#fff;}.cls-4{mix-blend-mode:multiply;}.cls-5{fill:#e0dec9;}.cls-6{fill:none;stroke:#021223;stroke-linecap:round;stroke-linejoin:round;stroke-width:2px;}</style></defs><title>right chopstick</title><g class="cls-1"><g id="Layer_2" data-name="Layer 2"><g id="OBJECTS"><polygon class="cls-2" points="199.93 47.31 234.72 3.49 222.52 1 187.59 45.43 199.93 47.31"/><polygon class="cls-3" points="222.83 1.11 187.9 45.54 190.66 45.96 226.06 1.77 222.83 1.11"/><polygon class="cls-2" points="199.93 47.31 203.87 63.28 239.03 20.38 234.85 3.46 199.93 47.31"/><g class="cls-4"><path class="cls-5" d="M232.91,18c-4.54,6.64-9.92,12.65-15,18.89-2.72,3.35-5.36,6.77-8,10.19s-5.16,6.7-7.55,10.18l1.5,6.07L239,20.38l-2.14-8.67C235.62,13.82,234.31,15.92,232.91,18Z"/></g><polygon class="cls-2" points="203.87 63.28 191.11 61.26 187.59 45.43 199.93 47.31 203.87 63.28"/><polygon class="cls-6" points="199.93 47.31 234.72 3.49 222.52 1 187.59 45.43 199.93 47.31"/><polygon class="cls-6" points="199.93 47.31 203.87 63.28 239.03 20.38 234.85 3.46 199.93 47.31"/><polygon class="cls-6" points="203.87 63.28 191.11 61.26 187.59 45.43 199.93 47.31 203.87 63.28"/><path class="cls-5" d="M199.63,61.93,8,293.57a3.94,3.94,0,0,1-6.13-4.94L187.2,51.92a8,8,0,0,1,12.57,9.84Z"/><path class="cls-3" d="M186.85,51.8,1.48,288.51a3.94,3.94,0,0,0-.17,4.59L195.69,49.16A8,8,0,0,0,186.85,51.8Z"/><g class="cls-4"><path class="cls-5" d="M14.67,279.81a39.24,39.24,0,0,1-13.51,12.3,3.86,3.86,0,0,0,1.27,2A3.93,3.93,0,0,0,8,293.57L199.64,61.93l.14-.17a8,8,0,0,0-.55-10.45Z"/></g><path class="cls-6" d="M199.63,61.93,8,293.57a3.94,3.94,0,0,1-6.13-4.94L187.2,51.92a8,8,0,0,1,12.57,9.84Z"/><path class="cls-6" d="M158.31,89.49a10.53,10.53,0,0,1,10.36,8.84c-.06-.25-.11-.5-.17-.75"/><path class="cls-6" d="M165,80.78a10.51,10.51,0,0,1,10.36,8.84c-.06-.25-.11-.49-.17-.74"/></g></g></g></svg>