<svg xmlns="http://www.w3.org/2000/svg" viewBox="0 0 91.31 91.31"><defs><style>.cls-1{isolation:isolate;}.cls-2{fill:#fff;}.cls-3{mix-blend-mode:multiply;}.cls-4{fill:#ececec;}.cls-5{fill:none;stroke:#021223;stroke-linecap:round;stroke-linejoin:round;stroke-width:2px;}.cls-6{fill:#e94c3b;}</style></defs><title>thingy</title><g class="cls-1"><g id="Layer_2" data-name="Layer 2"><g id="OBJECTS"><path class="cls-2" d="M90.31,45.65c0,3.79-5,6.87-6,10.37s1.83,8.8,0,12S76.57,71.35,74,74s-2.76,8.51-6,10.37-8.34-1-12,0-6.58,6-10.37,6-6.87-5-10.36-6-8.8,1.83-12,0S20,76.57,17.34,74,8.84,71.2,7,68s1-8.34,0-12S1,49.44,1,45.65s5-6.87,6-10.36-1.83-8.8,0-12,7.76-3.37,10.37-6,2.76-8.5,6-10.36,8.35,1,12,0,6.57-6,10.36-6S52.52,6,56,7s8.8-1.83,12,0,3.37,7.76,6,10.37,8.51,2.76,10.37,6-1,8.35,0,12S90.31,41.86,90.31,45.65Z"/><g class="cls-3"><path class="cls-4" d="M84.33,56c.94-3.5,6-6.58,6-10.37s-5-6.87-6-10.36,1.83-8.8,0-12S76.57,20,74,17.35,71.2,9,68.07,7c7.44,16.9,5.35,37.74-5.54,52.69-6.52,9-16.42,16-27.47,16.87A42.39,42.39,0,0,1,19.2,74.47c-.68-.2-1.36-.44-2-.67a1.37,1.37,0,0,1,.18.16c2.61,2.61,2.77,8.51,6,10.37s8.35-1,12,0,6.57,6,10.36,6,6.87-5,10.37-6,8.8,1.83,12,0S71.35,76.57,74,74s8.51-2.76,10.37-6S83.37,59.64,84.33,56Z"/></g><path class="cls-5" d="M90.31,45.65c0,3.79-5,6.87-6,10.37s1.83,8.8,0,12S76.57,71.35,74,74s-2.76,8.51-6,10.37-8.34-1-12,0-6.58,6-10.37,6-6.87-5-10.36-6-8.8,1.83-12,0S20,76.57,17.34,74,8.84,71.2,7,68s1-8.34,0-12S1,49.44,1,45.65s5-6.87,6-10.36-1.83-8.8,0-12,7.76-3.37,10.37-6,2.76-8.5,6-10.36,8.35,1,12,0,6.57-6,10.36-6S52.52,6,56,7s8.8-1.83,12,0,3.37,7.76,6,10.37,8.51,2.76,10.37,6-1,8.35,0,12S90.31,41.86,90.31,45.65Z"/><path class="cls-6" d="M49.39,50.93a4.87,4.87,0,0,1-5.52-.82,4.78,4.78,0,0,1-1.08-4.9c1.26-4,6.3-6.74,10.36-6.75,4.64,0,8.57,3.59,10.6,7.51a13.64,13.64,0,0,1,.09,12.38C61.58,62.7,57.31,64.87,52.7,66a26.85,26.85,0,0,1-7.83.84,24.57,24.57,0,0,1-7.73-2.28,15.83,15.83,0,0,1-5.62-3.74,17.18,17.18,0,0,1-3.29-6.15c-1.72-5.08-2.86-10.74-2-16.1s3.52-10,8.18-12.77c4.45-2.67,9.75-3.57,14.86-3.89A3,3,0,0,0,52.18,19a2.92,2.92,0,0,0-2.89-2.89c-6,.38-12.17,1.44-17.45,4.49A23,23,0,0,0,21.11,35c-1.75,6.84-.74,14.16,1.42,20.79a25.69,25.69,0,0,0,4.38,8.47,19.74,19.74,0,0,0,7.62,5.38,33,33,0,0,0,9.88,2.91,31.7,31.7,0,0,0,10.42-1.16c6-1.55,11.64-5,14.33-10.81a19.7,19.7,0,0,0-.71-18c-3.1-5.56-9.13-10.1-15.72-9.85C46,33,38.13,37.8,36.93,44.9a10.56,10.56,0,0,0,3.41,9.8,10.45,10.45,0,0,0,10.58,1.8,3,3,0,0,0,2-3.55c-.38-1.37-2.1-2.61-3.55-2Z"/></g></g></g></svg>